<svg xmlns="http://www.w3.org/2000/svg" viewBox="0 0 810 810" version="1.0" nighteye="disabled"><defs><clipPath id="a"><path d="M 276 120 L 716.230469 120 L 716.230469 471 L 276 471 Z M 276 120"/></clipPath><clipPath id="b"><path d="M 93.511719 107.09375 L 701.789062 107.09375 L 701.789062 702.535156 L 93.511719 702.535156 Z M 93.511719 107.09375"/></clipPath></defs><g clip-path="url(#a)"><path fill="#95D3A7" d="M 581.671875 343.945312 C 572.863281 336.933594 559.582031 330.628906 559.023438 330.359375 L 552.304688 340.796875 L 585.476562 368.835938 L 595.332031 361.75 C 595.171875 361.335938 591.210938 351.539062 581.671875 343.945312 Z M 598.75 410.191406 L 588.613281 417.335938 L 608.632812 455.503906 L 620.429688 452.667969 C 620.433594 452.226562 620.488281 441.699219 614.542969 431.140625 C 609.050781 421.394531 599.171875 410.644531 598.75 410.191406 Z M 557.507812 380.304688 C 550.210938 374.441406 538.898438 369.734375 538.425781 369.53125 L 531.933594 380.046875 L 574.15625 416.617188 L 568.445312 396.476562 C 568.171875 395.492188 565.503906 386.738281 557.507812 380.304688 Z M 489.949219 249.597656 C 489.582031 249.589844 489.210938 249.582031 488.839844 249.582031 C 478.363281 249.582031 465.625 252.46875 465.09375 252.589844 L 466.160156 264.9375 L 530.652344 268.273438 L 510.65625 255.527344 C 510.292969 255.292969 501.601562 249.832031 489.949219 249.597656 Z M 710.730469 221.472656 L 608.601562 216.574219 L 631.421875 160.285156 C 633.183594 155.925781 629.265625 151.398438 624.699219 152.527344 L 510.667969 180.691406 L 510.667969 126.585938 C 510.667969 121.636719 504.84375 118.992188 501.113281 122.253906 L 425.90625 188.046875 L 402.808594 157.175781 C 400.261719 153.773438 395.027344 154.199219 393.074219 157.972656 L 355.28125 230.84375 L 654.238281 266.453125 L 713.347656 232.210938 C 718.316406 229.332031 716.46875 221.75 710.730469 221.472656 Z M 636.921875 395.515625 L 626.78125 402.664062 L 646.800781 440.828125 L 658.597656 437.992188 C 658.601562 437.554688 658.65625 427.023438 652.710938 416.460938 C 647.226562 406.71875 637.339844 395.96875 636.921875 395.515625 Z M 673.027344 377.886719 L 662.882812 385.039062 L 682.902344 423.199219 L 694.703125 420.367188 C 694.710938 419.921875 694.761719 409.398438 688.8125 398.835938 C 683.328125 389.089844 673.441406 378.339844 673.027344 377.886719 Z M 605.175781 312.257812 C 592.921875 302.628906 575.15625 292.808594 574.402344 292.390625 L 567.417969 302.710938 L 615.433594 342.074219 L 624.828125 334.125 C 624.554688 333.644531 617.976562 322.316406 605.175781 312.257812 Z M 646.292969 301.300781 C 646.019531 300.828125 639.4375 289.496094 626.632812 279.4375 C 614.386719 269.808594 596.621094 259.984375 595.867188 259.574219 L 588.878906 269.890625 L 636.894531 309.253906 Z M 390.792969 283.75 C 390.460938 283.746094 390.125 283.738281 389.789062 283.738281 C 380.53125 283.738281 369.355469 286.667969 368.886719 286.789062 L 370.109375 299.082031 L 426.449219 302.464844 L 409.457031 289.921875 C 408.636719 289.316406 401.136719 283.996094 390.792969 283.75 Z M 304.722656 383.082031 L 304.722656 434.410156 L 276.117188 470.472656 L 310.683594 470.472656 L 328.859375 447.550781 C 335.613281 439.039062 339.285156 428.496094 339.285156 417.636719 C 339.285156 398.554688 323.808594 383.082031 304.722656 383.082031 Z M 408.410156 367.503906 C 407.589844 366.902344 400.089844 361.582031 389.75 361.335938 C 389.417969 361.328125 389.078125 361.320312 388.742188 361.320312 C 379.492188 361.320312 368.308594 364.25 367.839844 364.371094 L 369.0625 376.667969 L 425.40625 380.050781 Z M 484.035156 291.980469 C 483.667969 291.972656 483.296875 291.972656 482.917969 291.972656 C 472.441406 291.972656 459.710938 294.851562 459.171875 294.972656 L 460.242188 307.324219 L 524.734375 310.65625 L 504.738281 297.910156 C 504.378906 297.675781 495.683594 292.214844 484.035156 291.980469 Z M 389.800781 325.300781 C 380.550781 325.300781 369.371094 328.230469 368.902344 328.351562 L 370.128906 340.644531 L 426.464844 344.03125 L 409.472656 331.484375 C 408.648438 330.878906 401.15625 325.5625 390.808594 325.3125 C 390.476562 325.308594 390.144531 325.300781 389.800781 325.300781 Z M 390.78125 242.1875 C 390.449219 242.179688 390.109375 242.179688 389.773438 242.179688 C 380.523438 242.179688 369.339844 245.101562 368.871094 245.226562 L 370.09375 257.519531 L 426.4375 260.902344 L 409.441406 248.359375 C 408.621094 247.753906 401.121094 242.433594 390.78125 242.1875 Z M 478.125 368.109375 C 477.757812 368.101562 477.386719 368.101562 477.007812 368.101562 C 466.53125 368.101562 453.800781 370.980469 453.261719 371.101562 L 454.332031 383.449219 L 518.824219 386.789062 L 498.832031 374.035156 C 498.464844 373.804688 489.773438 368.34375 478.125 368.109375 Z M 518.816406 350.574219 L 498.824219 337.824219 C 498.457031 337.589844 489.769531 332.136719 478.113281 331.894531 C 477.746094 331.890625 477.375 331.886719 477.003906 331.886719 C 466.523438 331.886719 453.789062 334.765625 453.257812 334.886719 L 454.328125 347.234375 Z M 475.0625 417.636719 C 475.0625 428.496094 471.386719 439.039062 464.640625 447.550781 L 446.457031 470.472656 L 411.894531 470.472656 L 440.503906 434.410156 L 440.503906 383.082031 C 459.589844 383.082031 475.0625 398.554688 475.0625 417.636719"/></g><path fill="#2E9962" d="M 668.425781 382.128906 C 668.425781 382.128906 678.167969 392.6875 683.363281 401.90625 C 688.554688 411.125 688.445312 420.292969 688.445312 420.292969 Z M 632.320312 399.761719 C 632.320312 399.761719 642.070312 410.3125 647.261719 419.53125 C 652.449219 428.75 652.339844 437.921875 652.339844 437.921875 Z M 571.382812 297.871094 C 571.382812 297.871094 589.316406 307.75 601.308594 317.171875 C 613.296875 326.597656 619.402344 337.238281 619.402344 337.238281 Z M 594.152344 414.433594 C 594.152344 414.433594 603.894531 424.992188 609.085938 434.207031 C 614.277344 443.429688 614.171875 452.59375 614.171875 452.59375 Z M 556.347656 336.015625 C 556.347656 336.015625 569.429688 342.199219 577.777344 348.84375 C 586.121094 355.480469 589.519531 364.054688 589.519531 364.054688 Z M 536.035156 375.316406 C 536.035156 375.316406 546.90625 379.8125 553.585938 385.179688 C 560.265625 390.546875 562.425781 398.175781 562.425781 398.175781 Z M 622.769531 284.355469 C 634.757812 293.78125 640.867188 304.414062 640.867188 304.414062 L 592.851562 265.054688 C 592.851562 265.054688 610.777344 274.933594 622.769531 284.355469 Z M 471.089844 221.652344 C 471.089844 221.652344 484.394531 218.613281 494.421875 218.816406 C 504.457031 219.023438 511.890625 223.765625 511.890625 223.765625 Z M 466.484375 258.6875 C 466.484375 258.6875 479.796875 255.648438 489.824219 255.855469 C 499.851562 256.054688 507.292969 260.800781 507.292969 260.800781 Z M 460.566406 301.074219 C 460.566406 301.074219 473.878906 298.03125 483.90625 298.238281 C 493.933594 298.4375 501.375 303.183594 501.375 303.183594 Z M 454.652344 340.988281 C 454.652344 340.988281 467.960938 337.949219 477.988281 338.152344 C 488.019531 338.351562 495.457031 343.097656 495.457031 343.097656 Z M 454.660156 377.203125 C 454.660156 377.203125 467.96875 374.160156 477.996094 374.367188 C 488.023438 374.566406 495.464844 379.3125 495.464844 379.3125 Z M 370.5 334.402344 C 370.5 334.402344 382 331.363281 390.664062 331.570312 C 399.328125 331.773438 405.753906 336.519531 405.753906 336.519531 Z M 369.441406 370.421875 C 369.441406 370.421875 380.933594 367.382812 389.597656 367.585938 C 398.261719 367.792969 404.691406 372.539062 404.691406 372.539062 Z M 405.742188 294.957031 L 370.484375 292.835938 C 370.484375 292.835938 381.984375 289.800781 390.648438 290.007812 C 399.3125 290.210938 405.742188 294.957031 405.742188 294.957031 Z M 390.632812 248.445312 C 399.292969 248.648438 405.722656 253.390625 405.722656 253.390625 L 370.472656 251.273438 C 370.472656 251.273438 381.96875 248.238281 390.632812 248.445312 Z M 658.976562 273.449219 C 639.097656 242.65625 611.21875 217.835938 578.328125 201.648438 L 578.03125 201.503906 C 504.671875 165.394531 416.785156 176.972656 355.28125 230.84375 L 355.28125 420.84375 L 532.914062 420.84375 L 586.320312 474.234375 L 701.050781 474.234375 L 701.050781 416.203125 C 701.050781 365.5625 686.441406 316 658.976562 273.449219"/><g clip-path="url(#b)"><path fill="#64B131" d="M 372.378906 383.082031 L 372.378906 434.410156 L 343.777344 470.472656 L 378.335938 470.472656 L 396.515625 447.550781 C 403.265625 439.039062 406.9375 428.496094 406.9375 417.636719 C 406.9375 398.554688 391.464844 383.082031 372.378906 383.082031 Z M 531.828125 447.550781 C 538.582031 439.039062 542.253906 428.496094 542.253906 417.636719 C 542.253906 398.554688 526.78125 383.082031 507.691406 383.082031 L 507.691406 434.410156 L 479.085938 470.472656 L 513.652344 470.472656 Z M 355.28125 230.84375 L 367.957031 111.894531 C 368.792969 108.628906 365.316406 105.945312 362.375 107.582031 L 235.484375 177.929688 C 221.007812 185.953125 208.851562 197.582031 200.199219 211.6875 L 124.921875 334.351562 L 97.824219 354.46875 C 91.722656 359 93.046875 368.476562 100.15625 371.160156 L 221.898438 417.128906 C 228.40625 419.585938 235.304688 420.84375 242.253906 420.84375 L 355.28125 420.84375 Z M 701.050781 474.234375 L 701.050781 602.4375 C 701.050781 617.023438 692.601562 630.289062 679.382812 636.457031 L 542.773438 700.183594 C 533.460938 704.527344 522.441406 702.738281 514.976562 695.679688 L 439.863281 624.589844 C 429.128906 614.4375 429.480469 597.253906 440.621094 587.550781 L 508.496094 528.386719 C 512.480469 524.910156 518.21875 524.316406 522.832031 526.894531 L 569.320312 552.894531 C 573.273438 555.105469 575.722656 559.28125 575.722656 563.8125 L 575.722656 614.40625 C 575.722656 619.121094 573.074219 623.433594 568.875 625.5625 L 534.898438 642.808594 C 530.339844 645.125 524.824219 644.425781 520.976562 641.054688 L 490.472656 614.277344 C 484.566406 609.097656 484.847656 599.8125 491.050781 594.996094 L 515.835938 575.734375 C 521.890625 571.035156 530.710938 572.828125 534.445312 579.519531 L 545.890625 600.019531 L 527.339844 590.804688 L 514.28125 599.84375 C 510.988281 602.125 510.65625 606.867188 513.597656 609.585938 L 526.125 621.15625 C 528.113281 622.992188 531.0625 623.34375 533.421875 622.023438 L 552.425781 611.398438 C 554.40625 610.292969 555.628906 608.207031 555.628906 605.9375 L 555.628906 573.761719 C 555.628906 571.46875 554.378906 569.355469 552.363281 568.261719 L 520.980469 551.207031 C 518.738281 549.992188 515.980469 550.253906 514.015625 551.878906 L 461.796875 594.917969 C 455.84375 599.828125 455.707031 608.90625 461.515625 613.988281 L 521.152344 666.175781 C 524.910156 669.472656 530.265625 670.210938 534.773438 668.0625 L 592.164062 640.753906 L 586.320312 474.234375 L 701.050781 474.234375"/></g><path fill="#FABB18" d="M 678.21875 565.339844 L 677.636719 598.636719 C 677.636719 598.636719 682.101562 592.363281 681.929688 584.191406 C 681.757812 576.023438 678.21875 565.339844 678.21875 565.339844 Z M 645.980469 600.117188 C 645.980469 600.117188 650.445312 593.839844 650.273438 585.671875 C 650.097656 577.503906 646.5625 566.820312 646.5625 566.820312 Z M 614.324219 600.117188 C 614.324219 600.117188 618.78125 593.839844 618.609375 585.671875 C 618.441406 577.503906 614.898438 566.820312 614.898438 566.820312 Z M 681.835938 516.769531 C 681.546875 504.234375 677.859375 487.734375 677.859375 487.734375 L 677.742188 538.769531 C 677.742188 538.769531 682.121094 529.296875 681.835938 516.769531 Z M 650.164062 518 C 649.882812 505.46875 646.191406 488.964844 646.191406 488.964844 L 646.074219 540 C 646.074219 540 650.453125 530.527344 650.164062 518 Z M 618.5 519.230469 C 618.210938 506.699219 614.519531 490.195312 614.519531 490.195312 L 614.40625 541.230469 C 614.40625 541.230469 618.78125 531.757812 618.5 519.230469 Z M 326.894531 303.800781 C 326.894531 330.121094 305.554688 351.460938 279.226562 351.460938 C 252.898438 351.460938 231.554688 330.121094 231.554688 303.800781 C 231.554688 277.480469 252.898438 256.136719 279.226562 256.136719 C 305.554688 256.136719 326.894531 277.480469 326.894531 303.800781"/><path fill="#2E5A45" d="M 279.367188 399.257812 C 269.496094 395.722656 259.644531 392.117188 249.75 388.640625 L 220.089844 378.160156 C 220.039062 378.144531 219.976562 378.132812 219.921875 378.125 L 188.460938 374.21875 L 156.980469 370.511719 L 125.496094 366.804688 C 115.003906 365.539062 104.492188 364.429688 93.996094 363.238281 C 93.792969 363.21875 93.597656 363.335938 93.535156 363.53125 C 93.457031 363.761719 93.578125 364.003906 93.808594 364.078125 L 93.886719 364.109375 C 99.003906 365.808594 104.148438 367.265625 109.308594 368.617188 L 117.050781 370.589844 L 124.824219 372.351562 C 129.996094 373.585938 135.199219 374.566406 140.402344 375.578125 C 143.003906 376.074219 145.59375 376.640625 148.203125 377.066406 L 156.027344 378.367188 L 163.855469 379.664062 C 166.460938 380.125 169.085938 380.410156 171.703125 380.785156 L 187.410156 382.910156 C 197.773438 383.96875 208.109375 385.242188 218.523438 385.914062 L 225.019531 387.867188 C 227.542969 388.601562 230.097656 389.25 232.628906 389.949219 L 240.242188 392.003906 C 242.777344 392.695312 245.359375 393.253906 247.917969 393.886719 C 250.484375 394.492188 253.035156 395.136719 255.613281 395.707031 L 263.371094 397.351562 C 268.558594 398.394531 273.78125 399.355469 279.078125 400.082031 L 279.164062 400.097656 C 279.363281 400.121094 279.558594 400.007812 279.632812 399.8125 C 279.710938 399.585938 279.597656 399.339844 279.367188 399.257812 Z M 279.226562 294.542969 C 274.113281 294.542969 269.964844 298.6875 269.964844 303.800781 C 269.964844 308.914062 274.113281 313.058594 279.226562 313.058594 C 284.339844 313.058594 288.484375 308.914062 288.484375 303.800781 C 288.484375 298.6875 284.339844 294.542969 279.226562 294.542969 Z M 666.050781 333.542969 C 654.628906 336.851562 644.507812 341.832031 634.785156 347.316406 C 625.109375 352.871094 615.945312 359.082031 607.222656 365.851562 C 598.496094 372.621094 590.230469 379.984375 582.476562 387.996094 C 578.613281 392.027344 574.867188 396.207031 571.328125 400.644531 C 569.570312 402.882812 567.832031 405.140625 566.179688 407.515625 C 564.507812 409.867188 562.933594 412.339844 561.46875 414.945312 L 562.234375 415.933594 L 575.492188 405.996094 L 588.636719 395.910156 L 614.910156 375.726562 L 640.929688 355.210938 L 653.933594 344.945312 L 666.820312 334.53125 Z M 565.183594 236.203125 C 556.464844 246.171875 549.929688 257.199219 544.160156 268.476562 C 538.507812 279.800781 533.78125 291.476562 529.851562 303.398438 C 525.9375 315.324219 522.839844 327.507812 520.648438 339.933594 C 519.578125 346.160156 518.710938 352.433594 518.199219 358.808594 C 517.960938 362 517.765625 365.207031 517.707031 368.441406 C 517.621094 371.679688 517.695312 374.949219 517.945312 378.273438 L 519.148438 378.609375 L 530.234375 342.882812 C 533.972656 330.988281 537.808594 319.125 541.738281 307.289062 C 545.5625 295.425781 549.503906 283.597656 553.585938 271.816406 C 555.671875 265.949219 557.722656 260.058594 559.898438 254.222656 C 561.953125 248.332031 564.167969 242.511719 566.339844 236.667969 Z M 441.796875 218.785156 L 443.050781 218.832031 L 442.402344 241.304688 L 441.5625 263.761719 L 439.867188 308.683594 L 437.753906 353.582031 L 436.695312 376.035156 L 435.4375 398.476562 L 434.183594 398.421875 C 433.191406 394.632812 432.367188 390.84375 431.695312 387.070312 C 430.996094 383.292969 430.433594 379.519531 429.914062 375.746094 C 428.898438 368.203125 428.21875 360.675781 427.730469 353.160156 C 426.808594 338.125 426.714844 323.121094 427.363281 308.148438 C 428.015625 293.183594 429.375 278.242188 431.566406 263.335938 C 433.84375 248.4375 436.761719 233.566406 441.796875 218.785156"/></svg>