<?xml version="1.0" encoding="UTF-8" standalone="no"?>
<!-- Created with Inkscape (http://www.inkscape.org/) -->

<svg
   width="70mm"
   height="45mm"
   viewBox="0 0 70 45"
   version="1.1"
   id="svg25772"
   inkscape:export-filename="C:\Users\Lapo\Downloads\cookie-chameleon.png"
   inkscape:export-xdpi="1100.05"
   inkscape:export-ydpi="1100.05"
   inkscape:version="1.1.1 (3bf5ae0d25, 2021-09-20)"
   sodipodi:docname="cookie-chameleon.svg"
   xmlns:inkscape="http://www.inkscape.org/namespaces/inkscape"
   xmlns:sodipodi="http://sodipodi.sourceforge.net/DTD/sodipodi-0.dtd"
   xmlns="http://www.w3.org/2000/svg"
   xmlns:svg="http://www.w3.org/2000/svg">
  <sodipodi:namedview
     id="namedview25774"
     pagecolor="#ffffff"
     bordercolor="#666666"
     borderopacity="1.0"
     inkscape:pageshadow="2"
     inkscape:pageopacity="0.0"
     inkscape:pagecheckerboard="true"
     inkscape:document-units="mm"
     showgrid="false"
     inkscape:zoom="1.1474186"
     inkscape:cx="83.666064"
     inkscape:cy="267.12134"
     inkscape:window-width="1920"
     inkscape:window-height="1027"
     inkscape:window-x="-8"
     inkscape:window-y="-8"
     inkscape:window-maximized="1"
     inkscape:current-layer="g25953" />
  <defs
     id="defs25769">
    <clipPath
       id="a">
      <path
         d="M 276,120 H 716.23047 V 471 H 276 Z m 0,0"
         id="path2" />
    </clipPath>
    <clipPath
       id="b">
      <path
         d="M 93.511719,107.09375 H 701.78906 V 702.53516 H 93.511719 Z m 0,0"
         id="path5" />
    </clipPath>
  </defs>
  <g
     inkscape:label="Layer 1"
     inkscape:groupmode="layer"
     id="layer1">
    <g
       id="g25953"
       transform="translate(-7.2527592,-32.945209)">
      <g
         id="g25979"
         transform="translate(-9.2333357)">
        <g
           id="g25874"
           transform="matrix(0.24765497,0,0,0.24765497,22.211137,4.6716587)">
          <g
             clip-path="url(#a)"
             id="g12"
             transform="matrix(0.26458333,0,0,0.26458333,66.282268,95.812663)">
            <path
               fill="#95d3a7"
               d="m 581.67187,343.94531 c -8.80859,-7.01172 -22.08984,-13.3164 -22.64843,-13.58594 l -6.71875,10.4375 33.17187,28.03907 9.85547,-7.08594 c -0.16016,-0.41406 -4.12109,-10.21094 -13.66016,-17.80469 z m 17.07813,66.2461 -10.13672,7.14453 20.01953,38.16797 11.79688,-2.83594 c 0.004,-0.44141 0.0586,-10.96875 -5.88672,-21.52735 -5.49219,-9.74609 -15.3711,-20.49609 -15.79297,-20.94921 z m -41.24219,-29.88672 c -7.29687,-5.86328 -18.60937,-10.57032 -19.08203,-10.77344 l -6.49219,10.51562 42.22266,36.57032 -5.71094,-20.14063 c -0.27344,-0.98437 -2.9414,-9.73828 -10.9375,-16.17187 z M 489.94922,249.59766 c -0.36719,-0.008 -0.73828,-0.0156 -1.10938,-0.0156 -10.47656,0 -23.21484,2.88672 -23.74609,3.00781 l 1.06641,12.34766 64.49218,3.33594 -19.99609,-12.7461 c -0.36328,-0.23437 -9.05469,-5.69531 -20.70703,-5.92968 z m 220.78125,-28.125 -102.12891,-4.89844 22.82031,-56.28906 c 1.76172,-4.35938 -2.15625,-8.88672 -6.72265,-7.75782 l -114.03125,28.16407 v -54.10547 c 0,-4.94922 -5.82422,-7.59375 -9.55469,-4.33203 l -75.20703,65.79296 -23.09766,-30.87109 c -2.54687,-3.40234 -7.78125,-2.97656 -9.73437,0.79688 l -37.79297,72.87109 298.95703,35.60937 59.10938,-34.24218 c 4.96875,-2.87891 3.12109,-10.46094 -2.61719,-10.73828 z m -73.8086,174.04296 -10.14062,7.14844 20.01953,38.16406 11.79688,-2.83593 c 0.004,-0.4375 0.0586,-10.96875 -5.88672,-21.53125 -5.48438,-9.74219 -15.3711,-20.49219 -15.78907,-20.94532 z m 36.10547,-17.6289 -10.14453,7.15234 20.01953,38.16016 11.80078,-2.83203 c 0.008,-0.44532 0.0586,-10.96875 -5.89062,-21.53125 -5.48438,-9.7461 -15.37109,-20.4961 -15.78516,-20.94922 z m -67.85156,-65.62891 c -12.25391,-9.6289 -30.01953,-19.44922 -30.77344,-19.86719 l -6.98437,10.32032 48.01562,39.36328 9.39453,-7.94922 c -0.27343,-0.48047 -6.85156,-11.80859 -19.65234,-21.86719 z m 41.11719,-10.95703 c -0.27344,-0.47266 -6.85547,-11.80469 -19.66016,-21.86328 -12.24609,-9.62891 -30.01172,-19.45313 -30.76562,-19.86328 l -6.98828,10.3164 48.01562,39.36329 z m -255.5,-17.55078 c -0.33203,-0.004 -0.66797,-0.0117 -1.00391,-0.0117 -9.25781,0 -20.43359,2.92969 -20.90234,3.05078 l 1.22265,12.29297 56.33985,3.38281 -16.99219,-12.54297 c -0.82031,-0.60546 -8.32031,-5.92578 -18.66406,-6.17187 z m -86.07031,99.33203 v 51.32813 l -28.60547,36.0625 h 34.5664 l 18.17578,-22.92188 c 6.75391,-8.51172 10.42579,-19.05469 10.42579,-29.91406 0,-19.08203 -15.47657,-34.55469 -34.5625,-34.55469 z m 103.6875,-15.57812 c -0.82032,-0.60157 -8.32032,-5.92188 -18.66016,-6.16797 -0.33203,-0.008 -0.67188,-0.0156 -1.00781,-0.0156 -9.25,0 -20.4336,2.92969 -20.90235,3.05078 l 1.22266,12.29688 56.34375,3.38281 z m 75.625,-75.52344 c -0.36719,-0.008 -0.73829,-0.008 -1.11719,-0.008 -10.47656,0 -23.20703,2.8789 -23.7461,3 l 1.07032,12.35156 64.49218,3.33203 -19.99609,-12.74609 c -0.35937,-0.23438 -9.05469,-5.69532 -20.70312,-5.92969 z m -94.23438,33.32031 c -9.25,0 -20.42969,2.92969 -20.89844,3.05078 l 1.22657,12.29297 56.33593,3.38672 -16.99218,-12.54688 c -0.82422,-0.60546 -8.31641,-5.92187 -18.66407,-6.17187 -0.33203,-0.004 -0.66406,-0.0117 -1.00781,-0.0117 z m 0.98047,-83.11328 c -0.33203,-0.008 -0.67188,-0.008 -1.00781,-0.008 -9.25,0 -20.4336,2.92187 -20.90235,3.04687 l 1.22266,12.29297 56.34375,3.38281 -16.99609,-12.54297 c -0.82032,-0.60546 -8.32032,-5.92578 -18.66016,-6.17187 z M 478.125,368.10937 c -0.36719,-0.008 -0.73828,-0.008 -1.11719,-0.008 -10.47656,0 -23.20703,2.87891 -23.74609,3 l 1.07031,12.34766 64.49219,3.33984 -19.99219,-12.7539 c -0.36719,-0.23047 -9.05859,-5.69141 -20.70703,-5.92579 z m 40.69141,-17.53515 -19.99219,-12.75 c -0.36719,-0.23438 -9.05469,-5.6875 -20.71094,-5.92969 -0.36719,-0.004 -0.73828,-0.008 -1.10937,-0.008 -10.48047,0 -23.21485,2.8789 -23.7461,3 l 1.07031,12.34765 z m -43.75391,67.0625 c 0,10.85937 -3.67578,21.40234 -10.42188,29.91406 l -18.18359,22.92188 h -34.5625 l 28.60938,-36.0625 v -51.32813 c 19.08593,0 34.55859,15.47266 34.55859,34.55469"
               id="path10" />
          </g>
          <path
             fill="#2e9962"
             d="m 243.13659,196.9176 c 0,0 2.57762,2.79363 3.95221,5.23276 1.37356,2.43912 1.34462,4.86482 1.34462,4.86482 z m -9.55291,4.66535 c 0,0 2.57969,2.79156 3.95325,5.23069 1.37253,2.43913 1.34359,4.86585 1.34359,4.86585 z m -16.12305,-26.95856 c 0,0 4.74494,2.61379 7.91787,5.10666 3.1719,2.49391 4.7873,5.30924 4.7873,5.30924 z m 6.02444,30.84049 c 0,0 2.57762,2.79363 3.95118,5.23172 1.37356,2.44017 1.34566,4.86482 1.34566,4.86482 z m -10.00249,-20.74809 c 0,0 3.46129,1.63608 5.66994,3.39411 2.20762,1.75597 3.10679,4.02457 3.10679,4.02457 z m -5.37434,10.39834 c 0,0 2.8763,1.18959 4.64364,2.60966 1.76733,1.42006 2.33887,3.43855 2.33887,3.43855 z m 22.94846,-24.06675 c 3.1719,2.4939 4.78834,5.30717 4.78834,5.30717 l -12.70413,-10.41383 c 0,0 4.74286,2.61379 7.91579,5.10666 z m -40.13191,-16.5902 c 0,0 3.5202,-0.80409 6.17326,-0.75034 2.65514,0.0548 4.62194,1.30948 4.62194,1.30948 z m -1.21853,9.79888 c 0,0 3.52226,-0.80408 6.17533,-0.7493 2.65307,0.0527 4.62194,1.30844 4.62194,1.30844 z m -1.5658,11.21482 c 0,0 3.52227,-0.80512 6.17534,-0.75034 2.65306,0.0527 4.62194,1.30845 4.62194,1.30845 z m -1.56476,10.5606 c 0,0 3.52123,-0.80409 6.1743,-0.75034 2.6541,0.0527 4.62194,1.30844 4.62194,1.30844 z m 0.002,9.58184 c 0,0 3.52124,-0.80512 6.1743,-0.75034 2.65307,0.0527 4.62194,1.30845 4.62194,1.30845 z m -22.26742,-11.32437 c 0,0 3.04271,-0.80409 5.33508,-0.74931 2.29236,0.0537 3.99252,1.30948 3.99252,1.30948 z m -0.28008,9.53016 c 0,0 3.04064,-0.80408 5.333,-0.75033 2.29237,0.0548 3.99356,1.31051 3.99356,1.31051 z m 9.60458,-19.96673 -9.32863,-0.56121 c 0,0 3.0427,-0.80305 5.33507,-0.74827 2.29237,0.0537 3.99356,1.30948 3.99356,1.30948 z m -3.99769,-12.30623 c 2.29133,0.0538 3.99252,1.30845 3.99252,1.30845 l -9.32656,-0.56017 c 0,0 3.04167,-0.80306 5.33404,-0.74828 z m 70.99928,6.61562 c -5.25962,-8.14731 -12.63592,-14.71435 -21.33823,-18.99729 l -0.0786,-0.0382 c -19.40967,-9.55394 -42.66303,-6.49056 -58.93594,7.76283 v 50.27083 h 46.99868 l 14.13041,14.12627 h 30.35577 v -15.3541 c 0,-13.39866 -3.8654,-26.51207 -11.13214,-37.7703"
             id="path14"
             style="stroke-width:0.264583" />
          <g
             clip-path="url(#b)"
             id="g18"
             transform="matrix(0.26458333,0,0,0.26458333,66.282268,95.812663)">
            <path
               fill="#64b131"
               d="m 372.37891,383.08203 v 51.32813 l -28.60157,36.0625 h 34.5586 l 18.17968,-22.92188 c 6.75,-8.51172 10.42188,-19.05469 10.42188,-29.91406 0,-19.08203 -15.47266,-34.55469 -34.55859,-34.55469 z m 159.44921,64.46875 c 6.75391,-8.51172 10.42579,-19.05469 10.42579,-29.91406 0,-19.08203 -15.47266,-34.55469 -34.5625,-34.55469 v 51.32813 l -28.60547,36.0625 h 34.5664 z M 355.28125,230.84375 367.95703,111.89453 c 0.83594,-3.26562 -2.64062,-5.94922 -5.58203,-4.3125 l -126.89063,70.34766 c -14.47656,8.02343 -26.63281,19.65234 -35.28515,33.75781 L 124.92188,334.35156 97.824219,354.46875 C 91.722656,359 93.046875,368.47656 100.15625,371.16016 l 121.74219,45.96875 c 6.50781,2.45703 13.40625,3.71484 20.35547,3.71484 H 355.28125 Z M 701.05078,474.23437 V 602.4375 c 0,14.58594 -8.44922,27.85156 -21.66797,34.01953 l -136.60937,63.72656 c -9.3125,4.34375 -20.33203,2.55469 -27.79688,-4.5039 l -75.11328,-71.08985 c -10.73437,-10.15234 -10.38281,-27.33593 0.75781,-37.03906 l 67.875,-59.16406 c 3.98438,-3.47656 9.72266,-4.07031 14.33594,-1.49219 l 46.48828,26 c 3.95313,2.21094 6.40235,6.38672 6.40235,10.91797 v 50.59375 c 0,4.71484 -2.64844,9.02734 -6.84766,11.15625 l -33.97656,17.24609 c -4.5586,2.31641 -10.07422,1.61719 -13.92188,-1.7539 l -30.5039,-26.77735 c -5.90625,-5.17968 -5.625,-14.46484 0.57812,-19.28125 l 24.78516,-19.26172 c 6.05468,-4.69921 14.875,-2.90625 18.60937,3.78516 l 11.44531,20.5 -18.55078,-9.21484 -13.05859,9.03906 c -3.29297,2.28125 -3.625,7.02344 -0.68359,9.74219 l 12.52734,11.57031 c 1.98828,1.83594 4.9375,2.1875 7.29687,0.86719 l 19.00391,-10.625 c 1.98047,-1.10547 3.20313,-3.19141 3.20313,-5.46094 v -32.17578 c 0,-2.29297 -1.25,-4.40625 -3.26563,-5.5 l -31.38281,-17.05469 c -2.24219,-1.21484 -5,-0.95312 -6.96485,0.67188 l -52.21875,43.03906 c -5.95312,4.91015 -6.08984,13.98828 -0.28125,19.07031 l 59.63672,52.1875 c 3.75782,3.29688 9.11328,4.03516 13.6211,1.88672 l 57.39062,-27.30859 -5.84375,-166.51954 h 114.73047"
               id="path16" />
          </g>
          <path
             fill="#fabb18"
             d="m 245.72764,245.39216 -0.15399,8.8098 c 0,0 1.18132,-1.65985 1.13585,-3.82199 -0.0455,-2.16111 -0.98186,-4.98781 -0.98186,-4.98781 z m -8.52971,9.20151 c 0,0 1.18132,-1.66088 1.13585,-3.82199 -0.0465,-2.16111 -0.98185,-4.98781 -0.98185,-4.98781 z m -8.37571,0 c 0,0 1.17925,-1.66088 1.13378,-3.82199 -0.0444,-2.16111 -0.98186,-4.98781 -0.98186,-4.98781 z m 17.86247,-22.0524 c -0.0765,-3.3166 -1.05213,-7.68222 -1.05213,-7.68222 l -0.031,13.50305 c 0,0 1.15859,-2.50631 1.08314,-5.82083 z m -8.37985,0.32556 c -0.0744,-3.31556 -1.0511,-7.68222 -1.0511,-7.68222 l -0.031,13.50305 c 0,0 1.15858,-2.50631 1.0821,-5.82083 z m -8.37778,0.32556 c -0.0765,-3.31556 -1.05317,-7.68222 -1.05317,-7.68222 l -0.03,13.50305 c 0,0 1.15755,-2.5063 1.08314,-5.82083 z m -77.15395,-56.9991 c 0,6.96391 -5.64616,12.61008 -12.61215,12.61008 -6.96598,0 -12.61318,-5.64617 -12.61318,-12.61008 0,-6.96392 5.6472,-12.61112 12.61318,-12.61112 6.96599,0 12.61215,5.6472 12.61215,12.61112"
             id="path20"
             style="stroke-width:0.264583" />
          <path
             fill="#2e5a45"
             d="m 140.19817,201.44962 c -2.61173,-0.93534 -5.21829,-1.88929 -7.83622,-2.80913 l -7.84758,-2.77295 c -0.0134,-0.004 -0.03,-0.007 -0.0444,-0.009 l -8.32404,-1.03352 -8.32921,-0.98082 -8.330239,-0.98082 c -2.776056,-0.33487 -5.557281,-0.62839 -8.334373,-0.94361 -0.05374,-0.005 -0.10542,0.0258 -0.121957,0.0775 -0.02067,0.061 0.01137,0.12506 0.07235,0.14469 l 0.02067,0.008 c 1.353922,0.44958 2.715082,0.83509 4.080371,1.19269 l 2.048455,0.52193 2.056722,0.46612 c 1.368391,0.3266 2.745051,0.58602 4.121711,0.8537 0.68833,0.13126 1.37356,0.28112 2.06396,0.39378 l 2.07015,0.34416 2.0712,0.34313 c 0.68936,0.12196 1.38389,0.19741 2.07635,0.29662 l 4.15582,0.56224 c 2.74195,0.28009 5.47667,0.61702 8.23206,0.79479 l 1.71876,0.51676 c 0.66766,0.1943 1.34358,0.36587 2.01331,0.55087 l 2.01435,0.54364 c 0.67076,0.18293 1.35392,0.33073 2.03088,0.49816 0.67903,0.1602 1.35392,0.33073 2.03605,0.48162 l 2.05259,0.43512 c 1.37253,0.27595 2.75436,0.5302 4.15582,0.72243 l 0.0227,0.004 c 0.0527,0.006 0.10439,-0.0238 0.12403,-0.0754 0.0207,-0.0599 -0.009,-0.12505 -0.0703,-0.14676 z m -0.0372,-27.7058 c -1.35289,0 -2.4505,1.09658 -2.4505,2.44947 0,1.35288 1.09761,2.44946 2.4505,2.44946 1.35289,0 2.44946,-1.09658 2.44946,-2.44946 0,-1.35289 -1.09657,-2.44947 -2.44946,-2.44947 z m 102.34724,10.31875 c -3.02204,0.8754 -5.69991,2.19315 -8.27236,3.64423 -2.56005,1.46967 -4.98471,3.11298 -7.29258,4.90409 -2.3089,1.7911 -4.49585,3.7393 -6.5474,5.85907 -1.02216,1.0666 -2.01332,2.17248 -2.9497,3.34657 -0.46508,0.59221 -0.925,1.18959 -1.36218,1.81797 -0.44236,0.62219 -0.85887,1.27641 -1.24644,1.96577 l 0.20257,0.26149 3.5078,-2.6293 3.47782,-2.66857 6.95152,-5.34024 6.88433,-5.42809 3.44061,-2.71612 3.40962,-2.75538 z m -26.68778,-25.7545 c -2.30683,2.63757 -4.03592,5.55522 -5.56244,8.53902 -1.49552,2.9962 -2.74609,6.08541 -3.78582,9.23974 -1.0356,3.15537 -1.85519,6.37894 -2.43499,9.66659 -0.28319,1.64745 -0.51263,3.3073 -0.64803,4.99401 -0.063,0.8444 -0.11472,1.69293 -0.13022,2.54869 -0.0227,0.85679 -0.003,1.72186 0.063,2.60139 l 0.31833,0.0889 2.93315,-9.45265 c 0.98909,-3.1471 2.00402,-6.28592 3.04375,-9.41751 1.01182,-3.13883 2.05465,-6.26835 3.13469,-9.38548 0.5519,-1.55236 1.09451,-3.11092 1.67018,-4.65501 0.54364,-1.55856 1.12965,-3.09852 1.70429,-4.64468 z m -32.64606,-4.6085 0.33176,0.0124 -0.17157,5.94589 -0.22221,5.94176 -0.44855,11.88557 -0.55913,11.87938 -0.28009,5.94073 -0.3328,5.93762 -0.33176,-0.0145 c -0.26252,-1.00252 -0.48059,-2.00504 -0.65836,-3.00343 -0.185,-0.99942 -0.33383,-1.99781 -0.47129,-2.9962 -0.26871,-1.99574 -0.44855,-3.98735 -0.57774,-5.97586 -0.24391,-3.97805 -0.26872,-7.94784 -0.0971,-11.90935 0.1726,-3.95945 0.53227,-7.9127 1.11208,-11.85664 0.60254,-3.94188 1.37459,-7.87652 2.70681,-11.7874"
             id="path22"
             style="stroke-width:0.264583" />
        </g>
        <g
           id="g894"
           transform="matrix(0.41931356,0,0,0.41931356,16.995656,51.783218)">
          <path
             fill="#fab153"
             d="M 58.92,29.7 A 30.075,30.075 0 0 1 57.2,41.05 c -1.46,3.58 -4.33,6.27 -6.98,8.96 a 27.616,27.616 0 0 1 -9.2,6.18 C 37.62,57.62 34.11,59 30.21,59 A 29.156,29.156 0 0 1 18.98,57.2 29.825,29.825 0 0 1 9.57,50.64 29.9,29.9 0 0 1 3.48,40.94 29.935,29.935 0 0 1 1,29.7 C 1,25.74 2.66,22.16 4.07,18.72 A 28.855,28.855 0 0 1 9.87,9.07 28.943,28.943 0 0 1 19.11,2.53 C 22.51,1.1 26.3,1 30.21,1 A 27.462,27.462 0 0 1 38.81,1.97 5.978,5.978 0 0 0 38,5 5,5 0 0 0 40.71,9.44 4.946,4.946 0 0 0 40,12 a 5,5 0 0 0 5,5 c 0.03,0 0,0.66 0,1 a 5,5 0 0 0 5,5 4.946,4.946 0 0 0 2.56,-0.71 5,5 0 0 0 4.44,2.71 2.625,2.625 0 0 0 1.83,-0.72 30.527,30.527 0 0 1 0.09,5.42 z"
             id="path2-1" />
          <circle
             cx="27"
             cy="12"
             r="5"
             fill="#7f5f4a"
             id="circle4" />
          <circle
             cx="45"
             cy="32"
             r="5"
             fill="#7f5f4a"
             id="circle6" />
          <circle
             cx="17"
             cy="38"
             r="5"
             fill="#7f5f4a"
             id="circle8" />
          <circle
             cx="14"
             cy="26"
             r="3"
             fill="#7f5f4a"
             id="circle10" />
          <circle
             cx="28"
             cy="27"
             r="3"
             fill="#7f5f4a"
             id="circle12" />
          <circle
             cx="36"
             cy="49"
             r="3"
             fill="#7f5f4a"
             id="circle14" />
          <circle
             cx="37"
             cy="21"
             r="2"
             fill="#7f5f4a"
             id="circle16" />
          <circle
             cx="15"
             cy="15"
             r="2"
             fill="#7f5f4a"
             id="circle18" />
          <circle
             cx="24"
             cy="49"
             r="2"
             fill="#7f5f4a"
             id="circle20" />
          <circle
             cx="31"
             cy="38"
             r="3"
             fill="#7f5f4a"
             id="circle22" />
          <circle
             cx="44"
             cy="45"
             r="3"
             fill="#7f5f4a"
             id="circle24" />
          <path
             fill="#f2a149"
             d="M 58.92,29.7 A 30.075,30.075 0 0 1 57.2,41.05 c -1.46,3.58 -4.33,6.27 -6.98,8.96 a 27.616,27.616 0 0 1 -9.2,6.18 44.625,44.625 0 0 1 -5.87,2.12 c 0.95,-0.35 1.89,-0.73 2.81,-1.12 a 27.616,27.616 0 0 0 9.2,-6.18 c 2.65,-2.69 5.52,-5.38 6.98,-8.96 A 30.075,30.075 0 0 0 55.86,30.7 30.527,30.527 0 0 0 55.77,25.28 2.625,2.625 0 0 1 53.94,26 5,5 0 0 1 49.5,23.29 4.946,4.946 0 0 1 46.94,24 a 5,5 0 0 1 -5,-5 c 0,-0.34 0.03,-1 0,-1 a 5,5 0 0 1 -5,-5 4.946,4.946 0 0 1 0.71,-2.56 A 5,5 0 0 1 34.94,6 5.978,5.978 0 0 1 35.75,2.97 27.462,27.462 0 0 0 27.15,2 37.786,37.786 0 0 0 18.83,2.65 C 18.92,2.61 19.02,2.57 19.11,2.53 22.51,1.1 26.3,1 30.21,1 A 27.462,27.462 0 0 1 38.81,1.97 5.978,5.978 0 0 0 38,5 5,5 0 0 0 40.71,9.44 4.946,4.946 0 0 0 40,12 a 5,5 0 0 0 5,5 c 0.03,0 0,0.66 0,1 a 5,5 0 0 0 5,5 4.946,4.946 0 0 0 2.56,-0.71 5,5 0 0 0 4.44,2.71 2.625,2.625 0 0 0 1.83,-0.72 30.527,30.527 0 0 1 0.09,5.42 z"
             id="path26" />
          <path
             fill="#704e3c"
             d="M 22,38 A 5,5 0 0 1 13.82,41.86 5.083,5.083 0 0 0 15,42 5,5 0 0 0 18.18,33.14 5.008,5.008 0 0 1 22,38 Z M 50,32 A 5,5 0 0 1 41.82,35.86 5.083,5.083 0 0 0 43,36 5,5 0 0 0 46.18,27.14 5.008,5.008 0 0 1 50,32 Z M 32,12 A 5,5 0 0 1 23.82,15.86 5.083,5.083 0 0 0 25,16 5,5 0 0 0 28.18,7.14 5.008,5.008 0 0 1 32,12 Z M 31,27 A 3,3 0 0 1 28,30 2.965,2.965 0 0 1 25.44,28.56 2.955,2.955 0 0 0 27,29 3,3 0 0 0 30,26 2.955,2.955 0 0 0 29.56,24.44 2.965,2.965 0 0 1 31,27 Z m 3,11 A 3,3 0 0 1 31,41 2.965,2.965 0 0 1 28.44,39.56 2.955,2.955 0 0 0 30,40 3,3 0 0 0 33,37 2.955,2.955 0 0 0 32.56,35.44 2.965,2.965 0 0 1 34,38 Z m 5,11 A 3,3 0 0 1 36,52 2.965,2.965 0 0 1 33.44,50.56 2.955,2.955 0 0 0 35,51 3,3 0 0 0 38,48 2.955,2.955 0 0 0 37.56,46.44 2.965,2.965 0 0 1 39,49 Z m 8,-4 A 3,3 0 0 1 44,48 2.965,2.965 0 0 1 41.44,46.56 2.955,2.955 0 0 0 43,47 3,3 0 0 0 46,44 2.955,2.955 0 0 0 45.56,42.44 2.965,2.965 0 0 1 47,45 Z M 17,26 A 3,3 0 0 1 14,29 2.965,2.965 0 0 1 11.44,27.56 2.955,2.955 0 0 0 13,28 3,3 0 0 0 16,25 2.955,2.955 0 0 0 15.56,23.44 2.965,2.965 0 0 1 17,26 Z M 39,21 A 2,2 0 0 1 35.18,21.82 1.891,1.891 0 0 0 36,22 2.006,2.006 0 0 0 38,20 1.891,1.891 0 0 0 37.82,19.18 2,2 0 0 1 39,21 Z M 26,49 A 2,2 0 0 1 22.18,49.82 1.891,1.891 0 0 0 23,50 2.006,2.006 0 0 0 25,48 1.891,1.891 0 0 0 24.82,47.18 2,2 0 0 1 26,49 Z M 17,15 A 2,2 0 0 1 13.18,15.82 1.891,1.891 0 0 0 14,16 2.006,2.006 0 0 0 16,14 1.891,1.891 0 0 0 15.82,13.18 2,2 0 0 1 17,15 Z"
             id="path28" />
          <path
             fill="#a38671"
             d="m 44,33 a 1,1 0 0 1 -1,-1 2,2 0 0 1 2,-2 1,1 0 0 1 0,2 1,1 0 0 1 -1,1 z m -28,6 a 1,1 0 0 1 -1,-1 2,2 0 0 1 2,-2 1,1 0 0 1 0,2 1,1 0 0 1 -1,1 z M 26,13 a 1,1 0 0 1 -1,-1 2,2 0 0 1 2,-2 1,1 0 0 1 0,2 1,1 0 0 1 -1,1 z"
             id="path30" />
        </g>
      </g>
    </g>
  </g>
</svg>
