<svg xmlns="http://www.w3.org/2000/svg" viewBox="0 0 150 75" version="1.0"><path class="ticket-template-path" d="M139.41 58.496c0-1.027.836-1.863 1.863-1.863v-3.266a1.863 1.863 0 110-3.726v-3.266a1.863 1.863 0 110-3.727v-3.265a1.865 1.865 0 010-3.73V32.39a1.865 1.865 0 010-3.73v-3.263a1.866 1.866 0 010-3.73v-3.262a1.866 1.866 0 010-3.73v-3.73a7.924 7.924 0 01-7.925-7.926H16.766a7.927 7.927 0 01-7.93 7.925v3.73c1.031 0 1.867.833 1.867 1.864a1.867 1.867 0 01-1.867 1.867v3.262a1.866 1.866 0 110 3.73v3.262a1.866 1.866 0 110 3.73v3.262a1.866 1.866 0 110 3.73v3.266a1.864 1.864 0 110 3.727v3.266a1.864 1.864 0 110 3.726v3.266a1.866 1.866 0 110 3.73v3.727a7.93 7.93 0 017.93 7.926h116.582a7.926 7.926 0 017.925-7.926v-3.727a1.866 1.866 0 01-1.863-1.867"/></svg>