<?xml version="1.0" encoding="UTF-8" standalone="no"?>
<svg
   viewBox="0 0 512 512"
   fill="#2381a1"
   version="1.1"
   id="svg6"
   sodipodi:docname="earthdiscord.svg"
   inkscape:version="1.1.1 (3bf5ae0d25, 2021-09-20)"
   inkscape:export-filename="C:\Users\Lapo\Nextcloud\Work\Freelance\Clients\ClimaWorld\dev-webapp\cw-reactjs\src\assets\img\logos\earthdiscord.png"
   inkscape:export-xdpi="96"
   inkscape:export-ydpi="96"
   width="512"
   height="512"
   xmlns:inkscape="http://www.inkscape.org/namespaces/inkscape"
   xmlns:sodipodi="http://sodipodi.sourceforge.net/DTD/sodipodi-0.dtd"
   xmlns="http://www.w3.org/2000/svg"
   xmlns:svg="http://www.w3.org/2000/svg">
  <defs
     id="defs10">
    <inkscape:path-effect
       effect="powermask"
       id="path-effect1794"
       is_visible="true"
       lpeversion="1"
       uri="#mask-powermask-path-effect1794"
       invert="false"
       hide_mask="false"
       background="true"
       background_color="#ffffffff" />
    <clipPath
       id="6f5644c39d">
      <path
         d="M 26.367188,17.382812 H 67 v 40.5 H 26.367188 Z m 0,0"
         clip-rule="nonzero"
         id="path4" />
    </clipPath>
    <clipPath
       id="90abc14f2a">
      <path
         d="M 38,17.382812 H 49 V 26 H 38 Z m 0,0"
         clip-rule="nonzero"
         id="path7" />
    </clipPath>
    <clipPath
       clipPathUnits="userSpaceOnUse"
       id="clipPath2074">
      <g
         clip-path="url(#prefix__clip0)"
         id="g2078"
         style="fill:#000000;fill-opacity:1"
         transform="matrix(0.66816688,0,0,0.66816688,-78.311802,35.754578)"
         mask="none">
        <path
           d="M 60.105,4.898 A 58.55,58.55 0 0 0 45.653,0.415 0.22,0.22 0 0 0 45.42,0.525 40.784,40.784 0 0 0 43.62,4.222 C 38.164,3.405 32.734,3.405 27.39,4.222 26.905,3.058 26.189,1.635 25.562,0.525 A 0.228,0.228 0 0 0 25.329,0.415 58.386,58.386 0 0 0 10.878,4.898 0.207,0.207 0 0 0 10.783,4.98 C 1.578,18.73 -0.944,32.144 0.293,45.39 a 0.244,0.244 0 0 0 0.093,0.167 c 6.073,4.46 11.955,7.167 17.729,8.962 a 0.23,0.23 0 0 0 0.249,-0.082 42.08,42.08 0 0 0 3.627,-5.9 0.225,0.225 0 0 0 -0.123,-0.312 38.772,38.772 0 0 1 -5.539,-2.64 0.228,0.228 0 0 1 -0.022,-0.378 c 0.372,-0.279 0.744,-0.569 1.1,-0.862 a 0.22,0.22 0 0 1 0.23,-0.03 c 11.619,5.304 24.198,5.304 35.68,0 a 0.219,0.219 0 0 1 0.233,0.027 c 0.356,0.293 0.728,0.586 1.103,0.865 a 0.228,0.228 0 0 1 -0.02,0.378 36.384,36.384 0 0 1 -5.54,2.637 0.227,0.227 0 0 0 -0.121,0.315 47.249,47.249 0 0 0 3.624,5.897 0.225,0.225 0 0 0 0.249,0.084 c 5.801,-1.794 11.684,-4.502 17.757,-8.961 a 0.228,0.228 0 0 0 0.092,-0.164 C 72.174,30.078 68.214,16.775 60.197,4.981 A 0.18,0.18 0 0 0 60.104,4.897 Z m -36.38,32.427 c -3.497,0 -6.38,-3.211 -6.38,-7.156 0,-3.944 2.827,-7.156 6.38,-7.156 3.583,0 6.438,3.24 6.382,7.156 0,3.945 -2.827,7.156 -6.381,7.156 z m 23.593,0 c -3.498,0 -6.38,-3.211 -6.38,-7.156 0,-3.944 2.826,-7.156 6.38,-7.156 3.582,0 6.437,3.24 6.38,7.156 0,3.945 -2.798,7.156 -6.38,7.156 z"
           id="path2076"
           style="fill:#000000;fill-opacity:1" />
      </g>
    </clipPath>
  </defs>
  <sodipodi:namedview
     id="namedview8"
     pagecolor="#ffffff"
     bordercolor="#666666"
     borderopacity="1.0"
     inkscape:pageshadow="2"
     inkscape:pageopacity="0.0"
     inkscape:pagecheckerboard="0"
     showgrid="false"
     inkscape:zoom="0.5174736"
     inkscape:cx="325.62048"
     inkscape:cy="17.392192"
     inkscape:window-width="1920"
     inkscape:window-height="1013"
     inkscape:window-x="-9"
     inkscape:window-y="-9"
     inkscape:window-maximized="1"
     inkscape:current-layer="svg6" />
  <g
     id="g1792"
     transform="matrix(10.539671,0,0,10.539671,831.38334,-314.29148)"
     mask="none"
     clip-path="url(#clipPath2074)">
    <g
       clip-path="url(#6f5644c39d)"
       id="g1764"
       transform="matrix(1.3333334,0,0,1.3333334,-116.8057,3.9371634)">
      <path
         fill="#5ccae0"
         d="m 46.660156,57.875 c -11.1875,0 -20.285156,-9.085938 -20.285156,-20.25 0,-11.164062 9.097656,-20.246094 20.285156,-20.246094 11.183594,0 20.285156,9.082032 20.285156,20.246094 0,11.164062 -9.101562,20.25 -20.285156,20.25"
         fill-opacity="1"
         fill-rule="nonzero"
         id="path1762" />
    </g>
    <path
       fill="#58ac34"
       d="m -46.633822,61.510084 c -0.270833,-0.614584 -0.515624,-1.197918 -0.567708,-1.875 -0.03645,-0.44271 0.114587,-0.88021 0.06249,-1.322918 -0.09375,-0.75 -1.119792,-0.734375 -1.651041,-0.734375 -1.25,0.0104 -2.541667,0.203124 -3.6875,-0.375 -0.395833,-0.197917 -0.765625,-0.385417 -1.197918,-0.494792 -0.677082,-0.177084 -1.427082,0.322916 -2.036458,-0.1875 -0.645832,-0.536458 -1.307291,-0.369792 -2.119791,-0.369792 -0.651041,0 -1.546876,-0.166666 -2.020833,0.401043 -0.177084,0.213541 -0.223959,0.531249 -0.286459,0.791667 -0.09896,0.427082 -0.942708,-0.04167 -1.223959,-0.03125 -0.338541,0.0052 -0.05729,0.770834 -0.895833,-0.01563 -0.130214,-0.125 -0.1875,-0.307292 -0.307291,-0.4375 -0.302084,-0.322916 -0.578125,-0.5 -1.010417,-0.59375 -0.546875,-0.114586 -1.104167,0.104174 -1.338542,-0.588541 -0.07812,-0.234376 -0.182292,-0.598959 -0.369792,-0.755209 -0.421874,-0.348959 -0.848958,-0.109374 -1.098958,0.322917 -1.010417,1.765625 -1.619793,-0.4375 -1.458334,-1.296876 0.125,-0.671875 0.557292,-1.442708 1.223959,-1.697916 0.333333,-0.130214 0.796875,0.104173 1.104167,-0.07292 0.348958,-0.208334 0.161458,-0.697918 0.843749,-0.56771 0.416667,0.08333 0.781251,0.385418 1.109376,0.635418 0.130213,0.09896 0.781249,0.567708 0.869792,0.140625 0.156249,-0.708333 -0.531251,-0.864584 -0.843751,-1.369792 -0.307292,-0.494792 -0.0052,-1.234376 0.02604,-1.781251 0.03125,-0.593749 0.07812,-1.406249 0.661459,-1.75 0.161459,-0.104173 0.244792,-0.145833 0.322917,-0.348957 0.119787,-0.322917 0.302083,-0.682292 0.390624,-1.010417 0.08333,-0.328126 0.05208,-0.645834 0.05729,-0.979167 0.0104,-0.984375 1.395833,-0.197918 1.802084,-0.3125 0.401041,-0.109374 0.640624,-0.520834 0.5,-0.911459 -0.06251,-0.171875 -0.239584,-0.223959 -0.390626,-0.281249 -0.08333,-0.03125 -0.1875,-0.02084 -0.270833,0 -0.489584,0.119786 -0.375,-0.166667 -0.625,-0.3125 -0.354167,-0.208334 -0.776043,0.02604 -1.098959,0.213541 -0.04688,-0.01563 -0.09896,-0.0052 -0.145833,0.03125 -0.03125,-0.125 -0.02604,-0.24479 0.02084,-0.364582 0.04167,-0.239583 0.223959,-0.411459 0.385417,-0.583334 0.375,-0.406249 0.614583,-0.557292 1.208334,-0.421874 0.229165,0.05208 0.640624,-0.25521 0.822916,0.0052 0.135417,0.197916 0.25,0.411458 0.515625,0.473958 0.34375,0.07812 1.151042,0.244792 1.484375,0.05208 0.375,-0.218749 0.213541,-0.8125 0.05729,-1.104166 -0.08333,-0.15625 -0.307292,-0.197916 -0.458333,-0.229167 -0.515625,-0.109373 -0.583333,-0.473957 -0.885417,-0.791667 -0.171875,-0.18229 -0.510416,-0.25 -0.734375,-0.3125 -0.5625,-0.151041 -0.953126,-0.291666 -1.359375,-0.713541 -0.197917,-0.203125 -0.671876,-0.734375 -1.026041,-0.541667 -0.260418,0.151041 -0.562502,0.697916 -0.901043,0.557292 -0.307291,-0.130213 -0.572916,-0.291666 -0.932291,-0.307292 -1.411458,-0.06771 -1.833333,1.463542 -1.114584,2.484375 0.390626,0.546875 -2.520833,0.822917 -2.765625,0.859376 -0.119787,0.01563 -0.239583,0.02604 -0.364583,0.03125 -0.614584,0.03125 -0.6875,-0.723958 -0.427084,-1.161458 0.208333,-0.354167 0.359375,-0.755208 0.614584,-1.078124 0.156249,-0.203126 0.473959,0.338541 0.5625,0.421874 0.104173,0.09896 0.281249,0.114587 0.411459,0.07812 0.406249,-0.109373 0.656249,-0.677084 0.760416,-1.036458 0.135416,-0.463542 -0.286459,-1.062501 -0.421875,-1.484377 -0.203125,-0.61979 0.677083,-0.161457 0.833334,-0.09375 0.177082,0.08855 0.723957,0.317708 0.75,0.546874 0.0104,0.08855 0.06771,0.161459 0.161458,0.166667 0.239583,0.0052 0.255208,0 0.494791,-0.04167 0.531251,-0.09375 0.755209,0.161459 1.166667,0.307293 0.234374,0.08333 0.401041,0.01563 0.526041,-0.171875 0.291667,-0.447918 0.718751,-1.140626 -0.01563,-1.38021 -0.385417,-0.125 0.494792,-0.171874 0.609375,-0.218749 0.187501,-0.08332 0.515627,-0.203112 0.442709,-0.484361 -0.04688,-0.156251 -0.270833,-0.3125 -0.43229,-0.302084 -0.588543,0.02604 -1.161459,0.166666 -1.75521,0.177084 -0.536457,0.0052 -0.906249,-0.416667 -1.416666,-0.473959 -0.447916,-0.04167 -1.145834,-0.114587 -1.588542,0.0104 -0.505208,0.135417 -0.703125,0.578125 -1.270833,0.380209 -0.322918,-0.114586 -0.656251,-0.302084 -1.005208,-0.276041 -0.338542,0.03125 -0.348959,0.546875 -0.04688,0.640624 0.135416,0.04167 0.265624,0.06249 0.406249,0.08333 0.255208,0.04167 0.260417,0.572918 0.317708,0.776043 0.125,0.416667 0.489584,0.687499 0.718751,1.046875 -0.260418,-0.151043 -0.510418,-0.375 -0.708334,-0.536459 -0.302084,-0.244792 -0.385417,-0.520833 -0.588542,-0.828125 -0.291667,-0.447916 -0.703124,0.03645 -0.796875,0.333333 -0.08333,0.265625 -0.08333,0.614584 -0.04167,0.885417 0.05208,0.328125 0.286459,0.973959 -0.5625,0.744791 -0.25,-0.06771 -0.458333,-0.119786 -0.713541,-0.114586 -0.625,0.01563 -0.427084,0.145833 -0.744792,-0.348959 -0.177077,-0.276022 -0.354161,-0.458314 -0.692703,-0.432271 -0.1875,0.0104 -0.25,0.25 -0.296874,0.390624 -0.25,0.739584 -0.755209,1.130208 -1.578126,1.239584 -0.630208,0.08333 -1.463541,0.140624 -1.796875,0.791667 -0.203125,0.401041 0.5,0.713541 0.791667,0.619792 0.401041,-0.135417 0.598957,-0.385417 1.072916,-0.359376 0.479167,0.03125 0.953125,-0.125 1.411459,-0.291667 -0.968751,0.760418 -1.864583,0.927084 -3.109375,0.932292 -0.609376,0.0052 -1.401043,0.05208 -1.776043,0.619792 -0.343749,0.520834 -0.36979,1.135416 -0.380208,1.744791 -0.0104,1.041667 -0.130213,1.989584 -0.416666,3.00521 -0.104174,0.36979 -0.536459,2.010416 0.171874,2.020833 0.395835,0.0104 0.541667,-0.546875 0.593751,-0.828125 0.145833,-0.05729 0.291667,-0.114587 0.4375,-0.171875 0.08333,0.156249 0.140625,0.322916 0.177083,0.494792 0.06251,0.239583 0.109373,0.489583 0.161458,0.734375 0.140626,0.651041 0.260418,1.3125 0.401043,1.963541 0.145832,0.666667 0.473957,1.359375 1.026041,1.786459 0.385416,0.296875 0.8125,0.520833 1.223959,0.770833 0.583333,0.359375 0.875,0.942708 1.177083,1.526042 0.322917,0.625 0.6875,1.098958 1.348959,1.348958 0.286457,0.104174 1.125,0.192708 1.0625,-0.364584 -0.06249,-0.583333 -0.645834,-0.645833 -1.020834,-0.989582 -0.125,-0.114587 -1.036458,-1.083334 -0.296876,-1.0625 0.744792,0.02084 1.260418,0.635416 1.697918,1.161458 0.578125,0.692708 1.1875,1.276042 2.03125,1.635416 0.848958,0.354167 1.71875,0.234375 2.598958,0.07812 0.776043,-0.140625 1.479167,-0.135417 2.203125,0.21875 0.536459,0.260417 1.151042,0.270833 1.588542,0.71875 0.21875,0.223959 0.479166,0.302083 0.78125,0.354167 0.161459,0.02604 0.317708,0.0052 0.479167,-0.0104 0.557292,-0.06249 0.869791,0.296876 1.104167,0.729167 0.380208,0.697917 0.119787,1.026043 -0.166667,1.651043 -0.156251,0.348957 -0.09896,0.552082 0.0104,0.916666 0.119787,0.401042 0.135418,0.84375 0.427084,1.171875 0.390626,0.447916 0.791667,0.927083 1.229167,1.328125 0.328125,0.296875 0.760416,0.427083 1.088541,0.729166 0.239584,0.223958 0.473959,0.5 0.828126,0.531251 0.828125,0.07812 1.203125,0.276041 1.614582,1 0.276042,0.484374 0.5,1.03125 0.703126,1.546874 0.473958,1.203126 0.546874,2.583334 0.302084,3.838542 -0.06251,0.322917 -0.04688,0.583333 0.09375,0.875 0.291667,0.604168 1.328126,1.156251 0.411459,1.885417 -0.05729,0.04167 -0.06771,0.145834 -0.02604,0.203126 0.88021,1.208333 1.854168,2.61979 3.489584,2.703124 0.239584,0.0104 1.098959,-0.04688 0.979167,-0.484375 -0.06249,-0.213541 -0.276041,-0.3125 -0.447916,-0.416667 -0.213543,-0.119786 -0.453125,-0.1875 -0.671876,-0.307292 -0.458333,-0.25 -0.682292,-0.906249 -0.8125,-1.36979 -0.145833,-0.494792 -0.151041,-1.026042 -0.135416,-1.541667 0.01563,-0.583333 0.588541,-0.588543 1.041667,-0.583333 0.317708,0 0.677082,-0.390626 0.343749,-0.656251 -0.354167,-0.28125 -0.114587,-0.526042 0.01563,-0.859375 0.07812,-0.213541 -0.151042,-0.510416 -0.260418,-0.661459 -0.171874,-0.234374 -0.281249,-0.333333 -0.380208,-0.619792 -0.06249,-0.171874 -0.260416,-1.088541 0.44271,-0.546874 0.239582,0.182292 0.473957,0.34375 0.786457,0.34375 0.479167,0 0.5,-0.557292 0.463543,-0.895833 -0.05208,-0.432292 -0.270835,-0.848959 -0.390626,-1.260417 -0.1875,-0.661458 0.46875,-1.484375 0.651042,-2.119791 0.140625,-0.494792 0.192708,-1.197918 0.661458,-1.489584 0.25,-0.156251 0.505208,-0.333334 0.666667,-0.59375 0.447916,-0.723958 0.703126,-1.598958 0.34375,-2.416666"
       fill-opacity="1"
       fill-rule="nonzero"
       id="path1766"
       style="stroke-width:1.33333" />
    <path
       fill="#58ac34"
       d="m -72.696323,37.155914 c -0.317708,0.0104 -0.546875,0.31771 -0.723959,0.536459 -0.286457,0.343751 -0.666667,0.630208 -1.052083,0.848959 -0.385416,0.213541 -1.291666,0.583333 -1.25,1.140625 0.0104,0.09375 0.07292,0.161459 0.166667,0.166667 0.473959,0.01563 0.932292,-0.08855 1.359375,-0.270833 0.03125,0.0052 0.06771,-0.0052 0.09896,-0.03125 l 0.03125,-0.02084 c 0.161457,-0.07812 0.312499,-0.161458 0.463541,-0.25 0.06771,-0.04688 0.08333,-0.114587 0.07292,-0.177083 0.411459,-0.348958 0.796877,-0.713541 1.234375,-1.0625 0.473959,-0.375 0.08855,-0.895833 -0.401041,-0.880209"
       fill-opacity="1"
       fill-rule="nonzero"
       id="path1768"
       style="stroke-width:1.33333" />
    <path
       fill="#58ac34"
       d="m -70.415072,36.562165 c -0.09896,-0.151041 -0.291667,-0.166667 -0.453126,-0.171875 -0.520833,-0.02604 -0.96875,0.161459 -1.052084,0.723958 -0.02604,0.177084 0.213543,0.270834 0.296876,0.151042 0.359375,-0.0052 0.734375,-0.05729 1.083334,0.04688 0.104173,0.03125 0.208333,-0.05208 0.208333,-0.15625 0,-0.192708 0.02604,-0.421875 -0.08333,-0.59375"
       fill-opacity="1"
       fill-rule="nonzero"
       id="path1770"
       style="stroke-width:1.33333" />
    <path
       fill="#58ac34"
       d="m -65.550489,31.457998 c -0.447916,-0.260417 -0.947916,0.296875 -1.203126,0.578125 -0.677083,0.734375 -1.489583,1.21875 -2.218749,1.885417 -0.328126,0.302084 -0.317708,0.635417 -0.348959,1.03125 -0.552083,-0.01563 -1.510416,-0.03125 -1.395833,0.6875 0.05729,0.364583 0.494792,0.401042 0.776042,0.421875 0.453124,0.03645 0.796875,0.02084 1.21875,0.255208 0.322917,0.177084 0.53125,-0.07812 0.854166,0.05208 l 0.02604,0.0104 0.0052,0.0052 c 0.02084,0.0104 0.04167,0.02083 0.06251,0.03125 0.07292,0.04167 0.135416,0.02604 0.182291,-0.01563 0.598958,-0.04688 1.182292,-0.739583 0.473958,-1.09375 -0.05208,-0.02084 -0.09896,-0.03645 -0.151041,-0.05208 -0.348959,-0.109373 0.151041,-0.4375 0.317708,-0.536457 0.197916,-0.130213 0.197916,-0.322917 0.208334,-0.526043 -0.02084,-0.145833 -0.04167,-0.291666 -0.06771,-0.442708 -0.05729,-0.494792 0.364583,-0.729166 0.6875,-0.947916 0.203124,-0.130213 0.510416,-0.296876 0.645833,-0.505209 0.161459,-0.255208 0.25,-0.645834 -0.07292,-0.838542"
       fill-opacity="1"
       fill-rule="nonzero"
       id="path1772"
       style="stroke-width:1.33333" />
    <g
       clip-path="url(#90abc14f2a)"
       id="g1776"
       transform="matrix(1.3333334,0,0,1.3333334,-116.8057,3.9371634)">
      <path
         fill="#58ac34"
         d="m 45.296875,19.722656 c -0.0039,-0.03906 -0.0039,-0.07813 -0.0039,-0.117187 0.09375,0.0039 0.1875,0 0.28125,-0.01172 -0.09375,0.04297 -0.183594,0.08984 -0.277344,0.128906 z m 2.292969,-1.378906 c -0.433594,0.265625 -0.460938,0.761719 -1.015625,0.949219 -0.222657,0.07422 -0.464844,0.08203 -0.691407,0.160156 -0.01562,0.0039 -0.02734,0.01172 -0.04297,0.01563 0.05859,-0.06641 0.08594,-0.167969 0.05469,-0.316406 -0.0625,-0.289063 -0.105469,-0.554688 -0.136719,-0.851563 -0.01562,-0.136719 -0.07422,-0.285156 -0.199218,-0.359375 -0.472656,-0.277344 -1.171875,0.320313 -1.59375,0.441406 -0.214844,0.0625 -0.539063,-0.05078 -0.730469,0.109376 -0.210937,0.171874 -0.246094,0.308593 -0.316406,0.519531 -0.457031,-0.25 -0.964844,-0.519531 -1.253907,0.132812 -0.07031,0.152344 -0.08984,0.316407 -0.164062,0.46875 -0.08594,0.179688 -0.617188,0.113281 -0.785156,0.109375 -0.257813,-0.0039 -0.5625,0.117188 -0.761719,0.28125 -0.414063,0.34375 -0.777344,0.746094 -1.152344,1.128906 -0.226562,0.226563 -0.261719,0.628907 -0.421875,0.898438 -0.332031,0.554688 0.550782,0.5625 0.910156,0.707031 0.242188,0.1875 0.53125,0.359375 0.8125,0.441407 0.246094,0.07031 0.4375,0.08594 0.695313,0.07812 0.554687,-0.01172 0.671875,0.304688 0.847656,0.710938 0.238281,0.546875 0.660157,1.105469 1.316407,1.160156 0.636718,0.04687 0.996093,-0.367187 1.089843,-0.964844 0.03516,-0.226562 0.04687,-0.453124 0.105469,-0.679687 0.09766,-0.375 0.476562,-0.660156 0.738281,-0.925781 0.425781,-0.425782 0.894531,-0.6875 1.402344,-0.984375 0.199219,-0.117188 0.414063,-0.339844 0.40625,-0.589844 -0.0039,-0.195313 -0.03906,-0.359375 -0.09375,-0.550781 -0.15625,-0.539063 0.242187,-0.40625 0.5,-0.449219 0.417969,-0.07031 0.347656,-0.507813 0.625,-0.71875 0.203125,-0.15625 0.480469,-0.238281 0.578125,-0.503906 0.171875,-0.472657 -0.382812,-0.625 -0.722656,-0.417969"
         fill-opacity="1"
         fill-rule="nonzero"
         id="path1774" />
    </g>
    <path
       fill="#58ac34"
       d="m -51.691113,33.103832 c -0.0104,-0.05208 -0.05729,-0.104174 -0.114586,-0.114587 -0.546875,-0.07812 -1.25,-0.208333 -1.739585,0.09375 -0.270832,0.166666 -0.520832,0.348958 -0.80729,0.505208 -0.182292,0.09896 -0.406251,0.244792 -0.510418,0.432292 -0.447916,0.78125 0.635418,1.442708 1.088543,0.885416 0.05729,0.0052 0.109373,-0.01563 0.140624,-0.08333 0.114587,-0.255208 0.557292,-0.359374 0.776043,-0.520832 0.255208,-0.187501 0.338541,-0.395834 0.677083,-0.494792 0.359374,-0.09896 0.593749,-0.328125 0.489584,-0.703125"
       fill-opacity="1"
       fill-rule="nonzero"
       id="path1778"
       style="stroke-width:1.33333" />
    <path
       fill="#58ac34"
       d="m -51.086947,32.260082 c -0.21875,-0.239584 -0.567708,-0.354168 -0.880208,-0.369792 -0.421875,-0.01563 -0.541667,0.359375 -0.541667,0.708333 0,0.08855 0.07812,0.166667 0.161459,0.166667 0.04167,0 0.07812,0 0.114586,0 l 0.03125,-0.0104 0.02084,0.0052 c 0.322917,0.0104 0.625,0.145832 0.947917,0.09375 0.302083,-0.04688 0.317708,-0.406251 0.145832,-0.59375"
       fill-opacity="1"
       fill-rule="nonzero"
       id="path1780"
       style="stroke-width:1.33333" />
    <path
       fill="#58ac34"
       d="m -49.946322,32.82779 c -0.229167,-0.08333 -0.531249,-0.04688 -0.781249,0.02084 -0.05208,-0.08855 -0.166667,-0.135417 -0.25,-0.03645 -0.156251,0.1875 -0.208334,0.416667 -0.151043,0.656251 0.02084,0.06771 0.08855,0.119786 0.161459,0.119786 0.213541,0 0.427084,0.02604 0.645833,0.02084 0.197917,-0.0052 0.510417,-0.01563 0.625,-0.213541 0.125,-0.203125 -0.04688,-0.489584 -0.25,-0.567708"
       fill-opacity="1"
       fill-rule="nonzero"
       id="path1782"
       style="stroke-width:1.33333" />
    <path
       fill="#58ac34"
       d="m -44.774446,35.260082 c -0.09896,-0.166666 -0.270834,-0.213542 -0.442709,-0.255209 -0.453125,-0.104173 -0.796875,-0.192708 -1.177083,-0.494791 -0.354166,-0.270834 -0.630208,-0.854168 -1.156251,-0.666666 -0.494792,0.177082 -0.593749,1.187498 -0.614582,1.609374 0,0.03125 0.0104,0.05729 0.02084,0.08333 -0.255208,0.432292 -0.822918,0.822916 -0.359376,1.24479 0.28125,0.25 0.848958,0.02604 1.083333,-0.18229 0.06251,-0.05208 0.130213,-0.171875 0.171876,-0.234376 0.04167,-0.06249 0.385416,-0.713542 0.447916,0.0104 0.02084,0.21875 0.104174,0.291666 0.270834,0.395833 0.442708,0.270833 1.041666,-0.02604 1.390625,-0.296875 0.348959,-0.276042 0.609375,-0.791666 0.364584,-1.213541"
       fill-opacity="1"
       fill-rule="nonzero"
       id="path1784"
       style="stroke-width:1.33333" />
    <path
       fill="#58ac34"
       d="m -62.795281,53.077791 c -0.515624,0.05208 -1.963542,0.317708 -1.729166,1.15625 0.244791,0.901042 1.630208,-0.145834 2.03125,-0.380208 0.401041,0.04167 0.765625,0.15625 1.041666,0.484374 0.05208,0.06249 0.208334,0.130214 0.296875,0.104174 0.307292,-0.08333 0.510417,-0.432291 0.5,-0.734375 -0.04688,-0.869792 -1.619791,-0.6875 -2.140625,-0.630208"
       fill-opacity="1"
       fill-rule="nonzero"
       id="path1786"
       style="stroke-width:1.33333" />
    <path
       fill="#58ac34"
       d="m -58.01403,53.364249 c -0.01563,-0.07292 -0.09375,-0.119787 -0.161459,-0.125 -0.489583,-0.01563 -1.057291,-0.223958 -1.520833,-0.03645 -0.04167,-0.02604 -0.09896,-0.03125 -0.15625,0.0104 -0.302084,0.208334 -0.645833,0.479167 -0.755208,0.843751 -0.114587,0.385416 0.359375,0.578125 0.661458,0.557291 0.458333,-0.04167 0.864584,-0.390624 1.291666,-0.541667 0.343751,-0.119787 0.708334,-0.291667 0.640626,-0.708333"
       fill-opacity="1"
       fill-rule="nonzero"
       id="path1788"
       style="stroke-width:1.33333" />
    <path
       fill="#58ac34"
       d="m -40.862988,32.353831 c 0.427084,0.177083 0.906251,0.234375 1.270833,0.546875 0.322918,0.276043 -0.588541,0.182292 -0.609375,0.177084 -0.244792,-0.03125 -0.484374,-0.06771 -0.723958,-0.08855 -0.614583,-0.06249 -1.03125,0.526042 -1.630208,0.541666 -0.442708,0.0104 0.401041,-0.859374 0.463541,-1.005208 0.09896,-0.213541 -0.05729,-0.380208 -0.223957,-0.494792 -0.364584,-0.260416 -0.625,-0.369791 -0.510418,-0.937499 0.06249,-0.296876 0.348959,-0.53125 0.583334,-0.723958 0.489582,0.265625 1.036458,0.583333 1.635417,0.963541 -0.151043,0.05729 -0.276043,0.161459 -0.322917,0.333333 -0.625,0.04167 -0.515626,0.442708 0.06771,0.6875 z m 4.604167,6.916668 c 0.260417,0.343749 0.104173,0.567708 -0.473958,0.677082 -0.119786,-0.06249 -0.208333,-0.156249 -0.333333,-0.208333 -0.291667,-0.119787 -0.5,-0.125 -0.812501,-0.114587 -0.307291,0.0104 -0.583334,0.119787 -0.854166,0.244792 -0.46875,0.208334 -0.260417,-0.07812 -0.359376,-0.463542 -0.276041,-1.130209 -2.234375,0.328125 -2.635416,0.630209 -0.322917,0.244791 -0.625,0.494791 -1.005208,0.651041 -0.682292,0.270834 -0.536459,-1.15625 -0.494792,-1.380208 0.135416,-0.744792 1.281249,-1.473959 1.916667,-1.723959 0.656249,-0.265625 1.171874,0.09896 1.645833,0.505208 0.140626,0.119787 0.359375,0.578126 0.552083,0.666667 0.322917,0.156251 0.677084,0.06249 0.9375,-0.197916 0.682292,-0.666667 -0.869792,-1.182292 -1.276041,-1.406251 -0.364583,-0.197916 -0.776042,-0.859374 -0.08855,-0.453125 0.234375,0.140625 0.432292,0.333333 0.661457,0.479168 0.640626,0.416667 1.369792,0.614583 1.989584,1.062499 0.208334,0.145834 0.744792,0.505209 1.026042,0.286458 0.145833,-0.109373 0.166666,-0.125 0.208333,-0.30729 0.03125,-0.114587 -0.104173,-0.781251 0.166667,-0.432292 0.135417,0.177082 0.453125,0.390625 0.651041,0.1875 0.187501,-0.1875 -0.04688,-0.56771 -0.171875,-0.859376 0.229167,0.114586 0.494792,0.328125 0.703126,0.385417 0.213541,0.06771 0.463541,0.05729 0.703125,0.04688 0.229167,0.281251 0.453126,0.572917 0.671875,0.875 -0.130213,-0.0052 -0.265625,0 -0.427083,0.03125 -0.484376,0.08333 -0.791667,0.104174 -1.276043,0.06249 -0.192708,-0.02084 -0.505208,-0.07292 -0.6875,0.03645 -0.317708,0.182291 -0.421874,0.416667 -0.838541,0.473957 -0.114573,0.01563 -0.145828,0.161467 -0.09896,0.2448 z m 3.802084,-0.567709 c -0.04688,-0.07292 -0.09375,-0.151041 -0.135417,-0.234374 l -0.03645,-0.0052 c -0.677088,-0.93751 -1.380213,-1.781259 -2.067713,-2.520843 -4.354167,-4.697916 -9.302083,-6.760416 -9.697917,-6.833334 l -0.01563,0.09896 c -0.05729,-0.03125 -0.114587,-0.05729 -0.166667,-0.09375 -0.203125,0.197917 -0.380208,0.411458 -0.567708,0.625 -0.182291,0.197912 -0.479165,0.09895 -0.661457,0.270829 -0.333334,0.322916 -0.333334,0.734375 -0.317708,1.177083 0.01563,0.380208 -0.02084,0.625 -0.286459,0.932292 -0.09896,0.114586 -0.218751,0.322916 -0.213541,0.479166 0.0052,0.21875 0.03645,0.562501 0.317708,0.619793 0.364584,0.07292 1.026041,-0.260418 1.026041,0.338541 0,0.359375 0.348959,0.432291 0.635417,0.468749 1.140624,0.156251 0.229167,1.651043 -0.08855,2.145834 -0.197918,0.307292 -0.395835,0.578125 -0.708334,0.786458 -0.161458,0.104174 -0.307292,0.15625 -0.416666,0.3125 -0.03125,0.04167 -0.03125,0.125 0,0.166667 0.125,0.171875 0.286457,0.25 0.49479,0.302083 l 0.04167,0.0052 c 0.406251,-0.04688 0.458333,0.239582 0.161459,0.86979 -0.145834,0.06251 -0.307292,0.104174 -0.453126,0.161459 -0.489582,0.182292 -0.848958,0.760418 -0.6875,1.286459 0.203126,0.661459 0.666667,1.208333 1.354167,1.359375 0.244792,0.05729 0.395833,-0.05208 0.531251,-0.223959 0.416666,-0.520832 0.453124,0.338543 0.447916,0.421876 0,0.25 -0.06249,0.484375 -0.145834,0.718749 -0.307292,0.927084 -0.734374,1.864584 -0.791666,2.859375 -0.05208,0.927084 0.333333,1.94271 0.713542,2.781251 0.359375,0.807292 0.765624,1.572917 1.421875,2.177083 0.645833,0.59375 1.515624,1.510417 2.390624,1.770834 0.640626,0.187499 0.859376,-0.203125 1.244792,-0.651042 0.609376,-0.71875 1.541667,0.369792 1.901043,-0.244792 0.166667,-0.28125 -0.130213,-0.848958 0.406249,-0.916667 0.505208,-0.05729 1.442708,-0.151041 1.786459,0.296876 0.265625,0.348959 0.192708,1.015625 0.302083,1.447916 0.135417,0.536459 0.479166,0.989584 0.807292,1.427084 0.3125,0.427083 0.656251,0.864583 0.838541,1.364583 0.135418,0.380208 -0.4375,0.953125 -0.546875,1.348959 -0.06771,0.239582 -0.01563,0.416666 0.104174,0.630208 0.395833,0.671876 0.739583,1.098958 0.770833,1.9375 0.0104,0.270833 -0.06771,0.661458 0.156251,0.885417 0.432291,0.427083 1.057291,0.07292 1.161457,1.041667 0.07812,0.734375 -0.02084,1.385416 0.3125,2.078124 0.302084,0.619792 1.307292,0.208333 1.661459,-0.140624 0.09375,-0.08855 0.197917,-0.192709 0.234375,-0.317709 0.130213,-0.416667 0.322917,-0.744791 0.578125,-1.104166 0.135417,-0.187501 0.208333,-0.46875 0.281249,-0.682292 0.05729,-0.161458 0.09896,-0.598958 0.187502,-0.885417 v -0.286459 l 0.109373,0.01563 c 1.421875,-9.276034 -1.203125,-15.97916 -4.375,-20.468743"
       fill-opacity="1"
       fill-rule="nonzero"
       id="path1790"
       style="stroke-width:1.33333" />
  </g>
</svg>
