<svg class="h-full w-auto" alt="logo" viewBox="0 0 167 56" xmlns="http://www.w3.org/2000/svg">
<g clip-path="url(#clip0)">
<path fill-rule="evenodd" clip-rule="evenodd" d="M51.5298 8.62236C48.8177 7.87129 45.8698 9.34339 43.6588 10.3048C42.6566 10.0945 41.9196 9.76399 40.8583 9.58374L40.6225 9.55369C40.1508 9.46357 39.8855 9.52365 39.119 9.34339C37.8809 9.01292 36.8786 8.98288 35.5815 8.86271C35.1983 8.80262 34.2255 8.56228 33.7833 8.74254C33.1937 8.74254 32.5746 8.86271 31.9556 8.86271C31.5724 8.86271 30.9828 8.77258 30.5995 8.83266C27.7695 8.92279 24.8806 9.40348 22.1979 9.82408C21.2841 9.9743 20.1934 10.1245 19.5153 10.4249C18.8963 10.6653 18.3951 11.4464 17.835 11.6867C17.6287 11.9571 17.2749 12.0773 17.5402 12.1073C18.3951 12.2275 20.2228 11.9571 21.402 11.897C22.5812 11.837 23.6719 11.7769 24.7332 11.897C27.5042 13.5494 31.1891 14.3305 35.6994 14.1803C36.8197 14.2704 37.9694 14.2404 38.8537 14.0301C39.8265 13.97 40.652 13.8198 41.5658 13.6996C42.5386 13.6395 47.1079 12.9485 48.0807 12.7082C49.0241 12.4979 50.3212 12.1073 51.0287 11.8069C51.5888 11.5966 53.8292 10.2747 54.4483 10.0644C53.9176 9.91421 52.0899 8.83266 51.5298 8.62236Z" fill="#D6DC90"></path>
<path fill-rule="evenodd" clip-rule="evenodd" d="M43.7475 22.472C43.2168 22.3818 42.244 21.9011 42.7747 20.9999C43.0105 20.5192 43.4822 20.3089 44.1012 20.2187C44.5434 19.2874 45.6931 19.3775 47.1671 19.4376C47.963 19.4677 49.0537 19.4376 49.8792 19.4977C52.5028 19.708 54.9496 19.4677 55.9224 20.3389C57.3669 20.5192 58.8703 20.5793 60.1674 20.9097C59.8726 21.3604 59.3125 21.781 58.7229 21.9011C57.4258 22.1415 54.5664 21.9612 52.886 21.9011C52.3259 21.8711 51.6774 21.6908 51.2942 21.8411C50.793 22.0213 50.7046 22.7423 50.3213 22.8926C48.4936 23.1029 46.2827 23.2531 44.3665 23.1029C43.9538 23.0728 44.1307 22.502 43.7475 22.472Z" fill="#D6DC90"></path>
<path fill-rule="evenodd" clip-rule="evenodd" d="M41.949 40.0171C51.8835 40.0171 60.8452 41.0085 68.4508 43.4119C67.1538 44.3733 64.3237 44.2231 62.3486 44.6137C60.7568 44.9441 58.988 45.3948 57.573 45.6652C57.7499 45.9956 27.5631 50.5622 24.2025 48.6394C22.8759 47.8283 21.7852 46.7467 20.5176 45.8755C21.6378 44.854 22.5811 44.4935 23.7013 44.0428C27.1799 42.6308 30.9238 41.0386 35.3456 40.648C38.2641 40.2574 39.06 40.1973 41.949 40.0171Z" fill="#E4AA55"></path>
<path fill-rule="evenodd" clip-rule="evenodd" d="M59.0766 46.7467C58.0449 48.2789 56.9247 49.6308 55.7455 51.133C55.3623 51.6137 55.038 52.2746 54.6253 52.545C53.9767 52.9957 52.7681 53.2961 51.9132 53.5965C49.2011 54.618 46.2237 55.4892 43.0989 55.9999C41.7134 55.9999 40.3278 55.9999 38.9423 55.9999C34.0488 55.6394 28.5656 55.0386 23.8784 54.1673C22.4634 53.8969 21.5495 53.7768 20.96 52.6952C21.9623 51.2832 23.0825 49.9914 24.1437 48.6695C24.1437 48.6695 24.1437 48.6695 24.2027 48.6094C27.8581 51.0429 32.0736 52.9356 38.0874 52.9957C44.4255 50.412 50.0265 47.1072 57.5142 45.7253C57.5437 45.6652 58.7229 46.3261 59.0766 46.7467Z" fill="#F2C888"></path>
<path fill-rule="evenodd" clip-rule="evenodd" d="M43.128 41.7898C48.6112 41.8799 52.414 42.7512 55.9515 44.734C56.2463 44.9143 56.9243 45.2748 57.5729 45.6653C50.0851 47.0774 44.4841 50.3821 38.146 52.9357C32.1323 52.8756 27.8578 51.0731 24.1729 48.6396C24.4971 48.249 24.8509 47.7383 25.2046 47.3778C28.3294 45.6954 31.6901 44.2233 35.1391 42.8413C35.1391 42.8413 36.6426 42.0902 43.128 41.7898Z" fill="#B27129"></path>
<path fill-rule="evenodd" clip-rule="evenodd" d="M73.2857 18.3863C70.1609 17.3949 66.8592 16.6138 63.2922 16.043C60.6096 14.3906 56.2467 14.4507 52.6207 13.7897C54.6253 13.4893 58.1628 13.7297 58.9882 13.7297C59.8431 13.6996 60.0495 13.7597 61.6119 13.7297C63.1743 13.6996 64.5893 13.5194 65.2968 12.588C61.9361 11.5365 58.1038 10.8756 54.4484 10.1245C54.4484 10.1245 52.0311 10.5451 51.4121 10.8155C50.8519 11.0859 50.3803 11.5065 49.8202 11.7468C49.1127 12.0473 48.0514 12.1073 47.1081 12.3176C46.1353 12.5279 44.9856 12.8584 44.2781 12.8885C43.5411 13.0387 41.4775 13.4893 41.507 13.4593C40.5932 13.5794 39.7088 13.7597 38.736 13.8198C37.94 13.7597 36.9377 13.8198 35.7586 14.0301C31.2482 14.1803 27.5633 13.4893 24.7923 11.837C23.7605 11.7168 22.5813 11.7769 21.4022 11.837C20.1935 11.897 19.0438 12.2275 18.1889 12.1073C17.9531 12.0773 17.6288 12.0473 17.4519 12.1374C16.8918 13.249 15.1231 13.3091 13.4428 13.6996C10.7602 14.3005 7.69431 15.0816 5.12962 15.8327C4.65795 16.6138 4.3042 17.5151 4.00941 18.5065C2.50596 19.1073 1.06148 19.7983 0.0591842 20.9099C0.0591842 21.4807 0.0591842 22.0515 0.0591842 22.5923C-0.206129 23.5837 1.00252 22.8627 1.38575 22.7425C4.09784 21.8112 7.93015 20.279 10.7602 20.0687C11.8509 19.9786 13.1775 20.0387 13.6786 20.6395C16.6855 20.3391 19.7218 20.0687 22.6993 19.7082C23.3183 20.1288 23.8784 20.5794 24.5859 20.9099C22.5519 21.4807 20.5767 22.0816 18.8964 23.043C18.749 23.2232 18.8375 24.0945 18.8375 24.1846C21.7854 23.5837 25.3819 23.043 28.9783 22.8327C33.6066 22.0515 37.0557 20.5494 39.1487 18.9872C40.7111 18.9571 42.5388 18.867 44.6318 18.7168C45.133 18.7168 45.6636 18.7168 46.1647 18.7168C47.2555 18.7168 48.5526 18.7168 49.7612 18.7168C54.2715 18.7168 58.5755 18.9872 62.7321 19.4378C63.7049 19.5279 64.9136 19.8584 65.5031 19.7082C65.9158 19.6181 66.2696 19.0773 66.6823 18.9271C68.9227 18.176 71.4874 19.0473 73.551 19.558C73.492 19.4078 73.4331 18.5966 73.2857 18.3863Z" fill="#92A344"></path>
<path fill-rule="evenodd" clip-rule="evenodd" d="M45.1329 4.38626C43.3641 3.72531 39.1781 3.51501 38.9717 3.45492C38.4706 3.45492 36.4365 3.30471 36.3481 3.45492C30.7175 3.87553 26.6789 5.73819 21.2252 6.33905C20.783 6.5193 20.4882 6.90986 20.164 7.21029C18.1889 7.21029 16.1548 7.75106 14.2681 8.05149C14.0323 7.66093 13.8259 7.42059 13.708 6.99999C16.4201 5.49784 19.7513 5.31759 22.3749 4.02574C23.2298 3.60514 23.9373 2.88411 24.7922 2.55364C26.7378 1.80256 29.0077 1.98282 31.3071 1.62231C31.3661 1.05149 31.5135 0.570804 31.7198 0.150203C32.3684 0.090117 33.0464 -1.18217e-05 33.7244 -1.18217e-05C35.4342 -1.18217e-05 37.144 -1.18217e-05 38.8538 -1.18217e-05C40.1804 -1.18217e-05 41.8312 -0.0901406 42.7451 0.570804C43.0104 0.751061 43.1873 1.44205 43.4526 1.62231C44.219 2.19312 46.6069 2.16308 47.7565 2.34334C49.9675 2.67381 52.149 2.58368 52.9449 4.02574C52.2374 4.17595 51.2646 4.05578 50.4392 4.08583C50.1739 4.14591 49.8496 4.14591 49.5253 4.14591C48.0219 4.17595 46.4889 4.17595 45.2803 4.50643C45.2508 4.50643 45.2213 4.4163 45.1329 4.38626Z" fill="#92A344"></path>
<path fill-rule="evenodd" clip-rule="evenodd" d="M60.8747 8.83258C58.3395 8.29181 55.7453 7.81112 53.0922 7.36048C52.2373 6.96992 52.1194 5.73816 51.1466 5.37765C50.557 5.1373 49.5252 5.22743 48.7293 5.16735C47.2848 5.04717 46.0466 5.1373 45.3391 4.53645C45.2802 4.47636 45.2212 4.41627 45.1328 4.38623C44.0126 4.62657 43.3051 5.25748 42.5976 5.91842C40.4456 5.91842 38.4705 6.00855 36.4069 6.09868C34.3139 6.18881 32.3977 6.42915 30.4226 6.57936C27.0915 6.81971 24.0551 6.30898 20.724 6.99996C20.4881 6.84975 20.4881 6.87979 20.1639 7.18022C18.513 9.31327 15.3587 9.88408 12.2634 10.6352C11.6149 10.7854 10.7894 10.8154 10.3178 11.0558C9.63975 11.4163 9.49236 12.5279 8.99121 13.0386C10.3178 13.1588 11.7328 12.8283 13.1478 12.618C14.5628 12.4077 15.9778 12.1373 17.4518 12.0472C17.6286 11.957 17.6876 11.927 17.9234 11.7768C18.4835 11.5064 18.8962 10.8154 19.5153 10.5751C20.2228 10.3047 21.2546 10.2146 22.139 10.0944C24.7921 9.67378 27.8579 9.25318 30.6585 9.16305C31.2481 9.16305 34.9035 9.16305 34.9035 9.16305C34.9035 9.16305 37.8809 9.13301 38.9127 9.52357C39.3843 9.6137 39.9739 9.67378 40.4456 9.73387C41.5068 9.88408 42.6271 10.0944 43.6588 10.3047C45.8698 9.31327 48.7293 8.92271 51.4413 9.67378C52.7679 9.58366 53.5639 9.824 54.4777 10.0944C55.1852 10.0343 55.9222 9.91413 56.7181 9.94417C57.2488 9.94417 57.7794 9.94417 58.31 9.94417C59.5187 9.94417 60.6094 10.0343 61.6412 10.2146C61.4348 9.73387 61.1105 9.34331 60.8747 8.83258Z" fill="#6D8E3C"></path>
<path fill-rule="evenodd" clip-rule="evenodd" d="M39.1782 3.12448C41.4481 3.2747 44.396 3.72534 45.3394 4.5365C44.2191 4.77684 43.4232 5.43779 42.7157 6.09873C40.5637 6.09873 38.4707 6.27899 36.4071 6.36912C34.3141 6.45925 32.339 6.8498 30.3639 7.00002C27.0327 7.24036 23.4952 6.51933 20.1641 7.21032C20.5473 6.75968 20.9305 6.36912 21.1369 6.27899C26.5905 5.67813 30.5408 3.51504 36.2008 3.09444C36.3777 3.0644 38.9424 3.0644 39.1782 3.12448Z" fill="#424D21"></path>
<path fill-rule="evenodd" clip-rule="evenodd" d="M44.5728 18.6567C44.0716 19.1073 43.4526 19.5279 42.7745 19.8584C42.1555 20.1588 41.2416 20.309 41.0353 21.0601C41.2416 21.1502 41.4774 21.1202 41.8312 21.1202C42.0965 21.0902 42.2144 21.0902 42.7745 21C44.1895 20.8198 45.1623 20.1889 46.5774 20.0086C47.1375 19.9185 47.4028 20.1288 47.6091 20.3691C47.6681 20.4593 47.7565 20.4893 47.7565 20.6095C46.6363 21.4807 45.1034 21.8713 43.7179 22.4721C42.863 23.1932 41.7722 23.6738 40.652 24.1545C39.8561 25.2962 38.7064 25.867 38.7064 27.9099C38.7064 29.5022 39.4139 32.0859 39.7382 33.7082C39.8856 34.3992 39.8856 35.1202 40.0919 35.6309C40.2098 35.9314 40.5046 36.1717 40.652 36.4721C41.1826 37.6138 41.448 39.0258 41.8902 40.0172C42.2734 40.588 43.0398 41.7897 43.0398 41.7897C44.3664 44.5236 45.9878 45.8155 48.2872 47.0172C46.6363 47.6181 44.5138 46.897 43.2167 46.2361C43.3641 46.7769 43.8947 47.2876 43.9242 47.7082C42.3913 47.7683 41.5659 47.1073 40.5341 46.6567C40.3278 45.9657 40.1214 45.2747 39.5023 45.0344C38.5 46.3563 37.4683 48.279 35.051 47.7082C35.4342 47.3176 36.3186 46.7468 36.2301 46.3563C34.7267 47.2876 32.6631 47.6181 30.5996 47.9786C30.3932 47.8284 30.2753 47.588 30.1279 47.4078C32.103 46.8069 33.2232 45.2747 34.7857 44.2232C34.8446 43.7125 34.992 43.2318 35.1394 42.8112C35.2278 42.0902 35.5226 41.3992 35.3458 40.6181C35.3163 38.9957 34.7562 37.5236 34.5793 36.0215C34.4909 35.1202 34.5498 34.1288 34.314 33.1975C34.0487 32.2361 33.577 31.1846 33.2822 30.1631C33.0169 29.2017 32.8105 27.6095 32.4568 26.8284C32.162 26.2275 31.2776 25.5665 30.7175 24.9957C30.01 24.2747 29.273 23.4635 28.9193 22.7425C28.5066 21.9914 28.5066 21.1202 27.9465 20.5494C27.2979 19.8884 26.0303 19.6181 25.1165 19.0773C24.1436 18.4764 23.3182 17.9056 22.5518 17.3047C22.6402 17.0644 22.6107 16.6738 22.7581 16.4635C24.2026 16.2833 25.1165 16.1631 26.0893 16.6138C26.7378 16.9142 27.0916 17.5751 27.6811 17.9657C28.4181 18.4464 29.6857 18.897 30.747 18.7468C31.425 18.6567 32.3094 17.9356 32.84 17.3949C33.8423 16.4035 34.992 14.7811 35.8174 14C37.1145 12.7983 37.9399 11.1459 38.8833 9.61376C39.237 8.95281 40.0624 8.74251 40.8879 8.98286C40.7699 9.2232 40.711 9.52363 40.6225 9.76397C40.1509 11.2361 39.6202 12.6481 38.8243 13.7897C38.1463 14.7211 37.3209 15.5022 36.6723 16.4635C37.144 16.9142 37.6746 16.4035 38.0578 16.1932C39.4139 15.4421 40.6815 14.4807 41.5954 13.4292C42.5092 12.1674 43.482 9.79402 45.6045 10.6653C45.1329 11.3562 44.7202 12.0773 44.3664 12.8584C43.0104 15.0816 41.33 16.9142 39.0896 18.2361C40.7699 18.7468 41.9491 17.9056 42.9809 17.3047C44.5138 16.4335 45.7225 15.412 47.1375 14.691C47.5207 14.8713 47.8744 15.0515 48.0513 15.4721C46.7837 16.4936 45.693 17.6052 44.5728 18.6567Z" fill="#594A42"></path>
<path d="M80.832 7.33032H87.0226V8.86251H82.4534V11.4462H86.1383V12.9784H82.4534V16.2531H87.17V17.7853H80.832V7.33032Z" class="fill-current"></path>
<path d="M88.0547 14.0299C88.0547 11.7467 89.2044 10.1544 91.2974 10.1544C92.2113 10.1544 92.9777 10.545 93.361 11.0557V10.6051V7.21021H94.9234V17.7853H93.361V17.3647V16.9141C93.0957 17.3647 92.3587 17.9055 91.2974 17.9055C89.2044 17.9055 88.0547 16.2832 88.0547 14.0299ZM93.5084 14.0299C93.5084 12.4677 92.7419 11.5063 91.5922 11.5063C90.472 11.5063 89.6761 12.4677 89.6761 14.0299C89.6761 15.5922 90.472 16.5536 91.5922 16.5536C92.7419 16.5235 93.5084 15.5922 93.5084 14.0299Z" class="fill-current"></path>
<path d="M103.443 14.4504H98.1952C98.3131 15.7723 99.0501 16.5534 100.141 16.5534C101.055 16.5534 101.615 16.1328 102.086 15.2616L103.354 15.7723C102.735 17.1843 101.733 17.9354 100.082 17.9354C97.7236 17.9354 96.6328 15.9526 96.6328 14.0599C96.6328 12.1371 97.7236 10.1843 100.082 10.1843C102.381 10.1843 103.472 12.047 103.472 13.8195V14.4504H103.443ZM101.88 13.1586C101.733 12.2573 101.173 11.5062 100.082 11.5062C99.227 11.5062 98.5195 12.047 98.2837 13.1586H101.88Z" class="fill-current"></path>
<path d="M105.152 10.2745H106.715V11.5964C107.245 10.7552 108.1 10.1543 109.073 10.1543C110.4 10.1543 111.343 10.9655 111.343 12.4976V17.8152H109.81V12.8882C109.81 11.9569 109.368 11.5062 108.601 11.5062C107.599 11.5062 106.715 12.6479 106.715 14.6908V17.7852H105.152V10.2745Z" class="fill-current"></path>
<path d="M80.832 22.6223H84.4285C86.4036 22.6223 87.4943 23.7339 87.4943 25.4764C87.4943 26.9185 86.7868 27.9099 85.4897 28.2103L88.4377 33.0472H86.6099L83.721 28.3305H82.4534V33.0472H80.832V22.6223ZM84.4285 26.8283C85.2834 26.8283 85.873 26.4378 85.873 25.4764C85.873 24.515 85.3129 24.1545 84.4285 24.1545H82.4534V26.8283H84.4285Z" class="fill-current"></path>
<path d="M95.8663 29.7124H90.619C90.737 31.0343 91.4739 31.8154 92.5647 31.8154C93.4785 31.8154 94.0386 31.3948 94.5103 30.5235L95.7779 31.0343C95.1588 32.4463 94.1565 33.1974 92.5057 33.1974C90.1474 33.1974 89.0566 31.2145 89.0566 29.3218C89.0566 27.3991 90.1474 25.4463 92.5057 25.4463C94.8051 25.4463 95.8958 27.309 95.8958 29.0815V29.7124H95.8663ZM94.2745 28.4506C94.1271 27.5493 93.567 26.7982 92.4762 26.7982C91.6213 26.7982 90.9138 27.339 90.678 28.4506H94.2745Z" class="fill-current"></path>
<path d="M97.6644 26.9183H96.6621V25.5363H97.6644V25.1157C97.6644 23.3131 98.6372 22.4719 100.141 22.4719C100.642 22.4719 101.084 22.5621 101.379 22.7423L101.055 24.0342C100.789 23.914 100.553 23.8539 100.229 23.8539C99.6395 23.8539 99.2563 24.1844 99.2563 24.9655V25.5363H100.878V26.9183H99.2563V33.0771H97.7234V26.9183H97.6644Z" class="fill-current"></path>
<path d="M101.615 29.2918C101.615 27.1587 102.971 25.4163 105.271 25.4163C107.57 25.4163 108.926 27.1888 108.926 29.2918C108.926 31.4248 107.57 33.1673 105.271 33.1673C102.942 33.1974 101.615 31.4248 101.615 29.2918ZM107.305 29.2918C107.305 27.9699 106.597 26.7682 105.271 26.7682C103.944 26.7682 103.207 27.9699 103.207 29.2918C103.207 30.6137 103.944 31.8154 105.271 31.8154C106.597 31.8154 107.305 30.6137 107.305 29.2918Z" class="fill-current"></path>
<path d="M110.635 25.5364H112.197V26.7982C112.699 25.8969 113.494 25.4163 114.379 25.4163C114.733 25.4163 115.027 25.4763 115.322 25.5965L115.027 27.0686C114.792 26.9184 114.526 26.8583 114.172 26.8583C113.111 26.8583 112.168 27.8497 112.168 30.3433V33.0772H110.605V25.5364H110.635Z" class="fill-current"></path>
<path d="M122.663 29.7124H117.416C117.534 31.0343 118.271 31.8154 119.362 31.8154C120.275 31.8154 120.836 31.3948 121.307 30.5235L122.575 31.0343C121.956 32.4463 120.953 33.1974 119.303 33.1974C116.944 33.1974 115.854 31.2145 115.854 29.3218C115.854 27.3991 116.944 25.4463 119.303 25.4463C121.602 25.4463 122.693 27.309 122.693 29.0815V29.7124H122.663ZM121.071 28.4506C120.924 27.5493 120.364 26.7982 119.273 26.7982C118.418 26.7982 117.711 27.339 117.475 28.4506H121.071Z" class="fill-current"></path>
<path d="M123.666 31.1544L124.904 30.4935C125.169 31.2746 125.671 31.8454 126.496 31.8454C127.027 31.8454 127.469 31.545 127.469 30.9441C127.469 30.3733 126.761 30.0429 125.906 29.7124C124.875 29.3218 124.108 28.721 124.108 27.5193C124.108 26.3175 125.052 25.4463 126.378 25.4463C127.351 25.4463 128.147 25.8669 128.618 26.648L127.675 27.5193C127.351 27.0085 126.909 26.7982 126.408 26.7982C125.965 26.7982 125.582 27.0386 125.582 27.5193C125.582 27.9399 125.906 28.2403 127.145 28.6909C128.176 29.0514 128.943 29.6823 128.943 30.824C128.943 32.2961 127.94 33.1974 126.496 33.1974C124.904 33.1974 123.961 32.1459 123.666 31.1544Z" class="fill-current"></path>
<path d="M130.741 30.5535V26.9183H129.562V25.5363H130.741V23.4934L132.303 22.502V25.5363H134.278V26.9183H132.303V30.5835C132.303 31.4848 132.657 31.8153 133.276 31.8153C133.541 31.8153 133.777 31.7852 134.042 31.635L134.396 32.9269C134.013 33.1071 133.6 33.1972 133.187 33.1972C131.714 33.1972 130.741 32.356 130.741 30.5535Z" class="fill-current"></path>
<path d="M135.28 30.9141C135.28 29.3519 136.518 28.4506 138.435 28.4506H139.732V28.1201C139.732 27.1587 139.083 26.7982 138.317 26.7982C137.609 26.7982 137.108 27.1587 136.902 27.8197L135.546 27.5192C135.781 26.2875 136.872 25.4463 138.317 25.4463C140.115 25.4463 141.265 26.4677 141.265 28.4506V33.1072H140.026L139.82 32.0858C139.348 32.7467 138.611 33.2274 137.521 33.2274C136.283 33.1974 135.28 32.4463 135.28 30.9141ZM139.732 29.9227V29.7424H138.494C137.462 29.7424 136.872 30.133 136.872 30.9141C136.872 31.4849 137.285 31.8454 137.874 31.8454C138.759 31.8154 139.732 31.2145 139.732 29.9227Z" class="fill-current"></path>
<path d="M143.505 30.5535V26.9183H142.326V25.5363H143.505V23.4934L145.068 22.502V25.5363H147.043V26.9183H145.068V30.5835C145.068 31.4848 145.422 31.8153 146.041 31.8153C146.306 31.8153 146.542 31.7852 146.807 31.635L147.161 32.9269C146.778 33.1071 146.365 33.1972 145.952 33.1972C144.478 33.1972 143.505 32.356 143.505 30.5535Z" class="fill-current"></path>
<path d="M148.28 23.3733C148.28 22.7724 148.722 22.3218 149.312 22.3218C149.902 22.3218 150.373 22.7724 150.373 23.3733C150.373 23.9741 149.931 24.4248 149.312 24.4248C148.693 24.4248 148.28 23.9741 148.28 23.3733ZM148.546 25.5364H150.108V33.0771H148.546V25.5364Z" class="fill-current"></path>
<path d="M151.788 29.2918C151.788 27.1587 153.144 25.4163 155.443 25.4163C157.743 25.4163 159.099 27.1888 159.099 29.2918C159.099 31.4248 157.743 33.1673 155.443 33.1673C153.144 33.1974 151.788 31.4248 151.788 29.2918ZM157.478 29.2918C157.478 27.9699 156.77 26.7682 155.443 26.7682C154.117 26.7682 153.38 27.9699 153.38 29.2918C153.38 30.6137 154.117 31.8154 155.443 31.8154C156.77 31.8154 157.478 30.6137 157.478 29.2918Z" class="fill-current"></path>
<path d="M160.81 25.5364H162.372V26.8583C162.903 26.0171 163.757 25.4163 164.73 25.4163C166.057 25.4163 167 26.2274 167 27.7596V33.0772H165.467V28.1802C165.467 27.2489 165.025 26.7982 164.259 26.7982C163.256 26.7982 162.372 27.9399 162.372 29.9828V33.0772H160.81V25.5364Z" class="fill-current"></path>
<path d="M80.832 37.884H84.5759C86.6394 37.884 87.7007 39.1458 87.7007 40.9785C87.7007 42.8111 86.6394 44.0729 84.5759 44.0729H82.4534V48.339H80.832V37.884ZM84.5464 42.5407C85.5487 42.5407 86.0793 41.9999 86.0793 40.9785C86.0793 39.987 85.5782 39.4162 84.5464 39.4162H82.4534V42.5106H84.5464V42.5407Z" class="fill-current"></path>
<path d="M89.0568 40.8282H90.6192V42.09C91.1204 41.1887 91.9163 40.708 92.8007 40.708C93.1544 40.708 93.4492 40.7681 93.744 40.8883L93.4492 42.3604C93.2134 42.2102 92.9481 42.1501 92.5943 42.1501C91.5331 42.1501 90.5897 43.1415 90.5897 45.635V48.369H89.0273V40.8282H89.0568Z" class="fill-current"></path>
<path d="M94.2451 44.5835C94.2451 42.4505 95.6012 40.708 97.9006 40.708C100.2 40.708 101.556 42.4805 101.556 44.5835C101.556 46.7166 100.2 48.4591 97.9006 48.4591C95.5717 48.4591 94.2451 46.6865 94.2451 44.5835ZM99.9346 44.5835C99.9346 43.2617 99.2271 42.0599 97.9006 42.0599C96.574 42.0599 95.837 43.2617 95.837 44.5835C95.837 45.9054 96.574 47.1071 97.9006 47.1071C99.2271 47.0771 99.9346 45.9054 99.9346 44.5835Z" class="fill-current"></path>
<path d="M101.732 50.1114C102.705 49.8711 103.265 49.4204 103.265 48.1286V40.7981H104.828V48.0084C104.828 50.0814 103.914 51.0728 102.116 51.4934L101.732 50.1114ZM103 38.635C103 38.0341 103.442 37.5835 104.032 37.5835C104.621 37.5835 105.093 38.0341 105.093 38.635C105.093 39.2359 104.651 39.6865 104.032 39.6865C103.413 39.6865 103 39.2359 103 38.635Z" class="fill-current"></path>
<path d="M113.348 45.0041H108.1C108.218 46.326 108.955 47.1071 110.046 47.1071C110.96 47.1071 111.52 46.6865 111.992 45.8153L113.259 46.326C112.64 47.738 111.638 48.4891 109.987 48.4891C107.629 48.4891 106.538 46.5063 106.538 44.6136C106.538 42.6908 107.629 40.738 109.987 40.738C112.287 40.738 113.377 42.6007 113.377 44.3732V45.0041H113.348ZM111.785 43.7123C111.638 42.811 111.078 42.0599 109.987 42.0599C109.132 42.0599 108.425 42.6007 108.189 43.7123H111.785Z" class="fill-current"></path>
<path d="M114.645 44.5835C114.645 42.5106 115.824 40.708 118.153 40.708C119.744 40.708 120.835 41.429 121.395 42.8411L120.01 43.4119C119.627 42.5707 119.066 42.09 118.153 42.09C116.885 42.09 116.266 43.1715 116.266 44.6136C116.266 46.0556 116.885 47.1372 118.153 47.1372C119.066 47.1372 119.627 46.6565 120.01 45.8153L121.395 46.3861C120.865 47.7981 119.744 48.5192 118.153 48.5192C115.824 48.4591 114.645 46.6565 114.645 44.5835Z" class="fill-current"></path>
<path d="M123.282 45.8455V42.2103H122.103V40.8283H123.282V38.7553L124.844 37.7639V40.7983H126.819V42.1802H124.844V45.8455C124.844 46.7468 125.198 47.0772 125.817 47.0772C126.082 47.0772 126.318 47.0472 126.583 46.897L126.937 48.1888C126.554 48.3691 126.141 48.4592 125.729 48.4592C124.255 48.4592 123.282 47.618 123.282 45.8455Z" class="fill-current"></path>
<path d="M127.704 46.4162L128.942 45.7552C129.208 46.5363 129.709 47.1071 130.534 47.1071C131.065 47.1071 131.507 46.8067 131.507 46.2059C131.507 45.635 130.799 45.3046 129.945 44.9741C128.913 44.5835 128.146 43.9827 128.146 42.781C128.146 41.5792 129.09 40.708 130.416 40.708C131.389 40.708 132.185 41.1286 132.657 41.9097L131.713 42.781C131.389 42.2702 130.947 42.0599 130.446 42.0599C130.003 42.0599 129.62 42.3003 129.62 42.781C129.62 43.2016 129.945 43.502 131.183 43.9526C132.214 44.3132 132.981 44.9441 132.981 46.0857C132.981 47.5578 131.979 48.4591 130.534 48.4591C128.913 48.4591 127.969 47.4376 127.704 46.4162Z" class="fill-current"></path>
</g>
<defs>
<clipPath id="clip0">
<rect width="167" height="56" fill="white"></rect>
</clipPath>
</defs>
</svg>