<?xml version="1.0" encoding="UTF-8" standalone="no"?>
<svg
   width="425.04721"
   zoomAndPan="magnify"
   viewBox="0 0 318.78541 41.621119"
   height="55.494827"
   preserveAspectRatio="xMidYMid meet"
   version="1.0"
   id="svg128"
   sodipodi:docname="KlimaWorld (1).svg"
   inkscape:version="1.1.1 (3bf5ae0d25, 2021-09-20)"
   xmlns:inkscape="http://www.inkscape.org/namespaces/inkscape"
   xmlns:sodipodi="http://sodipodi.sourceforge.net/DTD/sodipodi-0.dtd"
   xmlns="http://www.w3.org/2000/svg"
   xmlns:svg="http://www.w3.org/2000/svg">
  <sodipodi:namedview
     id="namedview130"
     pagecolor="#ffffff"
     bordercolor="#666666"
     borderopacity="1.0"
     inkscape:pageshadow="2"
     inkscape:pageopacity="0.0"
     inkscape:pagecheckerboard="true"
     showgrid="false"
     inkscape:zoom="1.072"
     inkscape:cx="36.380597"
     inkscape:cy="-17.257463"
     inkscape:window-width="1920"
     inkscape:window-height="1027"
     inkscape:window-x="-8"
     inkscape:window-y="-8"
     inkscape:window-maximized="1"
     inkscape:current-layer="svg128"
     fit-margin-top="0"
     fit-margin-left="0"
     fit-margin-right="0"
     fit-margin-bottom="0" />
  <defs
     id="defs10">
    <g
       id="g2" />
    <clipPath
       id="6f5644c39d">
      <path
         d="M 26.367188,17.382812 H 67 v 40.5 H 26.367188 Z m 0,0"
         clip-rule="nonzero"
         id="path4" />
    </clipPath>
    <clipPath
       id="90abc14f2a">
      <path
         d="M 38,17.382812 H 49 V 26 H 38 Z m 0,0"
         clip-rule="nonzero"
         id="path7" />
    </clipPath>
  </defs>
  <rect
     x="-63.875"
     width="450"
     fill="#ffffff"
     y="-23.75388"
     height="89.999992"
     fill-opacity="1"
     id="rect12"
     style="fill:none;stroke-width:0.99975;stroke-miterlimit:4;stroke-dasharray:none" />
  <rect
     x="-63.875"
     width="450"
     fill="#ffffff"
     y="-23.75388"
     height="89.999992"
     fill-opacity="1"
     id="rect14"
     style="fill:none;stroke:none" />
  <rect
     x="-63.875"
     width="450"
     fill="#ffffff"
     y="-23.75388"
     height="89.999992"
     fill-opacity="1"
     id="rect16"
     style="fill:none" />
  <g
     id="g1169"
     transform="translate(-26.375,-16.25388)"
     style="fill:#fdfdfd;fill-opacity:1">
    <g
       fill="#2381a1"
       fill-opacity="1"
       id="g24"
       style="fill:#fdfdfd;fill-opacity:1">
      <g
         transform="translate(77.701494,53.749974)"
         id="g22"
         style="fill:#fdfdfd;fill-opacity:1">
        <g
           id="g20"
           style="fill:#fdfdfd;fill-opacity:1">
          <path
             d="m 18.699219,0.398438 c 7.347656,0 13.898437,-4.046876 15.746093,-10.898438 0.203126,-0.699219 -0.199218,-1.097656 -0.898437,-1.097656 h -5.949219 c -0.550781,0 -0.898437,0.25 -1.148437,0.796875 -1.152344,2.851562 -4.203125,4.402343 -7.75,4.402343 -5.5,0 -9.949219,-3.902343 -9.949219,-10.699218 0,-6.75 4.449219,-10.648438 9.949219,-10.648438 3.5,0 6.546875,1.546875 7.75,4.347656 0.25,0.550782 0.597656,0.800782 1.148437,0.800782 h 5.898438 c 0.699218,0 1.101562,-0.398438 0.902344,-1.101563 -1.902344,-6.746093 -8.199219,-10.847656 -15.648438,-10.847656 -9.5,0 -17.5,6.699219 -17.5,17.449219 C 1.25,-6.5 9.050781,0.398438 18.699219,0.398438 Z m 0,0"
             id="path18"
             style="fill:#fdfdfd;fill-opacity:1" />
        </g>
      </g>
    </g>
    <g
       fill="#2381a1"
       fill-opacity="1"
       id="g32"
       style="fill:#fdfdfd;fill-opacity:1">
      <g
         transform="translate(113.94584,53.749974)"
         id="g30"
         style="fill:#fdfdfd;fill-opacity:1">
        <g
           id="g28"
           style="fill:#fdfdfd;fill-opacity:1">
          <path
             d="m 8.898438,0 c 0.652343,0 1,-0.351562 1,-1 v -26.996094 c 0,-5.152344 -2.648438,-8.5 -7.5,-9.5 V -1 c 0,0.648438 0.351562,1 1,1 z m 0,0"
             id="path26"
             style="fill:#fdfdfd;fill-opacity:1" />
        </g>
      </g>
    </g>
    <g
       fill="#2381a1"
       fill-opacity="1"
       id="g40"
       style="fill:#fdfdfd;fill-opacity:1">
      <g
         transform="translate(126.89388,53.749974)"
         id="g38"
         style="fill:#fdfdfd;fill-opacity:1">
        <g
           id="g36"
           style="fill:#fdfdfd;fill-opacity:1">
          <path
             d="m 5.800781,-26.398438 c 2.699219,0 5.5,-1.347656 5.5,-4.046874 0,-2.652344 -2.800781,-4.050782 -5.5,-4.050782 -2.75,0 -5.5,1.398438 -5.5,4.050782 0,2.699218 2.75,4.046874 5.5,4.046874 z M 8.898438,0 c 0.652343,0 1,-0.351562 1,-1 v -12.046875 c 0,-5.152344 -2.648438,-8.5 -7.5,-9.5 V -1 c 0,0.648438 0.351562,1 1,1 z m 0,0"
             id="path34"
             style="fill:#fdfdfd;fill-opacity:1" />
        </g>
      </g>
    </g>
    <g
       fill="#2381a1"
       fill-opacity="1"
       id="g48"
       style="fill:#fdfdfd;fill-opacity:1">
      <g
         transform="translate(139.49198,53.749974)"
         id="g46"
         style="fill:#fdfdfd;fill-opacity:1">
        <g
           id="g44"
           style="fill:#fdfdfd;fill-opacity:1">
          <path
             d="m 30.847656,-22.847656 c -3.324218,0 -5.75,0.925781 -7.851562,3.472656 -1.421875,-2.773438 -4.121094,-3.472656 -6.546875,-3.472656 -2.925781,0 -5.949219,1.476562 -8.125,4 -1.25,-1.898438 -3.25,-3.148438 -5.925781,-3.699219 V -1 c 0,0.648438 0.351562,1 1,1 h 5.5 c 0.652343,0 1,-0.351562 1,-1 v -11.699219 c 0.277343,-2.574219 1.574218,-4.148437 3.851562,-4.148437 2.5,0 3.347656,1.699218 3.347656,4.847656 v 11 c 0,0.648438 0.351563,1 1,1 h 5.5 c 0.648438,0 1,-0.351562 1,-1 v -11 c 0,-3.148438 1.148438,-4.847656 3.847656,-4.847656 2.703126,0 3.402344,1.699218 3.402344,4.847656 v 11 c 0,0.648438 0.347656,1 1,1 h 5.5 c 0.648438,0 1,-0.351562 1,-1 v -13.5 c 0,-4.699219 -2.75,-8.347656 -8.5,-8.347656 z m 0,0"
             id="path42"
             style="fill:#fdfdfd;fill-opacity:1" />
        </g>
      </g>
    </g>
    <g
       fill="#2381a1"
       fill-opacity="1"
       id="g56"
       style="fill:#fdfdfd;fill-opacity:1">
      <g
         transform="translate(181.5854,53.749974)"
         id="g54"
         style="fill:#fdfdfd;fill-opacity:1">
        <g
           id="g52"
           style="fill:#fdfdfd;fill-opacity:1">
          <path
             d="m 21.273438,-18.472656 c -1.949219,-2.726563 -5.050782,-4.375 -8.824219,-4.375 -6.5,0 -11,4.847656 -11,11.796875 0,7 4.5,11.851562 11,11.851562 3.773437,0 6.875,-1.652343 8.824219,-4.402343 1.222656,2.453124 3.324218,3.800781 6.222656,4.101562 v -23.046875 c -2.898438,0.300781 -5,1.648437 -6.222656,4.074219 z M 14.75,-5.199219 c -3.050781,0 -5.25,-2.398437 -5.25,-5.800781 0,-3.398438 2.199219,-5.796875 5.25,-5.796875 3.046875,0 5.246094,2.398437 5.246094,5.796875 0,3.402344 -2.199219,5.800781 -5.246094,5.800781 z m 0,0"
             id="path50"
             style="fill:#fdfdfd;fill-opacity:1" />
        </g>
      </g>
    </g>
    <g
       fill="#2381a1"
       fill-opacity="1"
       id="g64"
       style="fill:#fdfdfd;fill-opacity:1">
      <g
         transform="translate(212.13065,53.749974)"
         id="g62"
         style="fill:#fdfdfd;fill-opacity:1">
        <g
           id="g60"
           style="fill:#fdfdfd;fill-opacity:1">
          <path
             d="m 31.347656,-12.699219 -6.898437,-22.296875 c -3.402344,0.898438 -5.902344,2.550782 -8.101563,9.796875 l -3.75,12.449219 -4.25,-20.347656 C 8.25,-33.695312 7.847656,-33.996094 7.25,-33.996094 H 1.550781 c -0.699219,0 -1.050781,0.449219 -0.902343,1.097656 L 8.300781,-0.851562 C 8.449219,-0.300781 8.800781,0 9.398438,0 h 5.148437 C 15.097656,0 15.5,-0.300781 15.648438,-0.851562 l 6.375,-20.796876 6.273437,20.796876 C 28.445312,-0.300781 28.847656,0 29.398438,0 h 5.148437 c 0.601563,0 0.949219,-0.300781 1.097656,-0.851562 l 8.101563,-34.144532 c -4.699219,0 -8.351563,3 -9.898438,10.347656 z m 0,0"
             id="path58"
             style="fill:#fdfdfd;fill-opacity:1" />
        </g>
      </g>
    </g>
    <g
       fill="#2381a1"
       fill-opacity="1"
       id="g72"
       style="fill:#fdfdfd;fill-opacity:1">
      <g
         transform="translate(256.77366,53.749974)"
         id="g70"
         style="fill:#fdfdfd;fill-opacity:1">
        <g
           id="g68"
           style="fill:#fdfdfd;fill-opacity:1">
          <path
             d="m 14,0.800781 c 7.847656,0 12.546875,-4.851562 12.546875,-11.800781 0,-6.898438 -4.75,-11.847656 -12.546875,-11.847656 -7.851562,0 -12.601562,4.949218 -12.601562,11.847656 0,6.902344 4.699218,11.800781 12.601562,11.800781 z m 0,-5.851562 c -3.351562,0 -5.152344,-2.597657 -5.152344,-5.898438 C 8.847656,-14.296875 10.699219,-17 14,-17 c 3.296875,0 5.097656,2.652344 5.097656,6.050781 0,3.351563 -1.800781,5.898438 -5.097656,5.898438 z m 0,0"
             id="path66"
             style="fill:#fdfdfd;fill-opacity:1" />
        </g>
      </g>
    </g>
    <g
       fill="#2381a1"
       fill-opacity="1"
       id="g80"
       style="fill:#fdfdfd;fill-opacity:1">
      <g
         transform="translate(285.36922,53.749974)"
         id="g78"
         style="fill:#fdfdfd;fill-opacity:1">
        <g
           id="g76"
           style="fill:#fdfdfd;fill-opacity:1">
          <path
             d="m 17.097656,-22.347656 c -0.5,-0.101563 -1.097656,-0.199219 -1.648437,-0.199219 -2.652344,0 -5.125,1.199219 -6.699219,4.398437 -1.199219,-2.273437 -3.351562,-3.773437 -6.351562,-4.398437 V -1 c 0,0.648438 0.351562,1 1,1 h 5.5 c 0.652343,0 1,-0.351562 1,-1 V -11.097656 C 10.199219,-14.148438 11.75,-15.75 14.449219,-15.75 c 0.699219,0 1.449219,0.101562 2.300781,0.300781 0.699219,0.199219 1.148438,-0.09766 1.148438,-0.800781 v -4.949219 c 0,-0.546875 -0.25,-1 -0.800782,-1.148437 z m 0,0"
             id="path74"
             style="fill:#fdfdfd;fill-opacity:1" />
        </g>
      </g>
    </g>
    <g
       fill="#2381a1"
       fill-opacity="1"
       id="g88"
       style="fill:#fdfdfd;fill-opacity:1">
      <g
         transform="translate(304.71625,53.749974)"
         id="g86"
         style="fill:#fdfdfd;fill-opacity:1">
        <g
           id="g84"
           style="fill:#fdfdfd;fill-opacity:1">
          <path
             d="m 8.898438,0 c 0.652343,0 1,-0.351562 1,-1 v -26.996094 c 0,-5.152344 -2.648438,-8.5 -7.5,-9.5 V -1 c 0,0.648438 0.351562,1 1,1 z m 0,0"
             id="path82"
             style="fill:#fdfdfd;fill-opacity:1" />
        </g>
      </g>
    </g>
    <g
       fill="#2381a1"
       fill-opacity="1"
       id="g96"
       style="fill:#fdfdfd;fill-opacity:1">
      <g
         transform="translate(317.6643,53.749974)"
         id="g94"
         style="fill:#fdfdfd;fill-opacity:1">
        <g
           id="g92"
           style="fill:#fdfdfd;fill-opacity:1">
          <path
             d="m 19.996094,-19.949219 c -1.898438,-1.847656 -4.496094,-2.898437 -7.546875,-2.898437 -6.5,0 -11,4.847656 -11,11.796875 0,7 4.5,11.851562 11,11.851562 3.648437,0 6.675781,-1.527343 8.625,-4.125 1.199219,2.5 3.375,3.824219 6.421875,3.824219 v -28.496094 c 0,-5.152344 -2.648438,-8.5 -7.5,-9.5 z m -5.246094,14.75 c -3.050781,0 -5.25,-2.398437 -5.25,-5.800781 0,-3.398438 2.199219,-5.796875 5.25,-5.796875 3.046875,0 5.246094,2.398437 5.246094,5.796875 0,3.402344 -2.199219,5.800781 -5.246094,5.800781 z m 0,0"
             id="path90"
             style="fill:#fdfdfd;fill-opacity:1" />
        </g>
      </g>
    </g>
  </g>
  <g
     clip-path="url(#6f5644c39d)"
     id="g100"
     transform="translate(-26.375,-16.25388)">
    <path
       fill="#5ccae0"
       d="m 46.660156,57.875 c -11.1875,0 -20.285156,-9.085938 -20.285156,-20.25 0,-11.164062 9.097656,-20.246094 20.285156,-20.246094 11.183594,0 20.285156,9.082032 20.285156,20.246094 0,11.164062 -9.101562,20.25 -20.285156,20.25"
       fill-opacity="1"
       fill-rule="nonzero"
       id="path98" />
  </g>
  <path
     fill="#58ac34"
     d="m 26.253906,26.925808 c -0.203125,-0.460938 -0.386718,-0.898438 -0.425781,-1.40625 -0.02734,-0.332032 0.08594,-0.660157 0.04687,-0.992188 -0.07031,-0.5625 -0.839844,-0.550781 -1.238281,-0.550781 -0.9375,0.0078 -1.90625,0.152343 -2.765625,-0.28125 -0.296875,-0.148438 -0.574219,-0.289063 -0.898438,-0.371094 -0.507812,-0.132813 -1.070312,0.242187 -1.527344,-0.140625 -0.484374,-0.402344 -0.980468,-0.277344 -1.589843,-0.277344 -0.488281,0 -1.160157,-0.125 -1.515625,0.300782 -0.132813,0.160156 -0.167969,0.398437 -0.214844,0.59375 -0.07422,0.320312 -0.707031,-0.03125 -0.917969,-0.02344 -0.253906,0.0039 -0.04297,0.578125 -0.671875,-0.01172 -0.09766,-0.09375 -0.140625,-0.230469 -0.230468,-0.328125 -0.226563,-0.242187 -0.433594,-0.375 -0.757813,-0.445312 -0.410156,-0.08594 -0.828125,0.07813 -1.003906,-0.441406 -0.05859,-0.175782 -0.136719,-0.449219 -0.277344,-0.566407 -0.316406,-0.261719 -0.636719,-0.08203 -0.824219,0.242188 -0.757812,1.324219 -1.214844,-0.328125 -1.09375,-0.972657 0.09375,-0.503906 0.417969,-1.082031 0.917969,-1.273437 0.25,-0.09766 0.597656,0.07813 0.828125,-0.05469 0.261719,-0.15625 0.121094,-0.523438 0.632812,-0.425782 0.3125,0.0625 0.585938,0.289063 0.832032,0.476563 0.09766,0.07422 0.585937,0.425781 0.652344,0.105469 0.117187,-0.53125 -0.398438,-0.648438 -0.632813,-1.027344 -0.230469,-0.371094 -0.0039,-0.925782 0.01953,-1.335938 0.02344,-0.445312 0.05859,-1.054687 0.496094,-1.3125 0.121094,-0.07813 0.183594,-0.109375 0.242188,-0.261718 0.08984,-0.242188 0.226562,-0.511719 0.292968,-0.757813 0.0625,-0.246094 0.03906,-0.484375 0.04297,-0.734375 0.0078,-0.738281 1.046875,-0.148438 1.351563,-0.234375 0.300781,-0.08203 0.480468,-0.390625 0.375,-0.683594 -0.04688,-0.128906 -0.179688,-0.167969 -0.292969,-0.210937 -0.0625,-0.02344 -0.140625,-0.01563 -0.203125,0 -0.367188,0.08984 -0.28125,-0.125 -0.46875,-0.234375 -0.265625,-0.15625 -0.582032,0.01953 -0.824219,0.160156 -0.03516,-0.01172 -0.07422,-0.0039 -0.109375,0.02344 -0.02344,-0.09375 -0.01953,-0.183593 0.01563,-0.273437 0.03125,-0.179687 0.167969,-0.308594 0.289063,-0.4375 0.28125,-0.304687 0.460937,-0.417969 0.90625,-0.316406 0.171874,0.03906 0.480468,-0.191407 0.617187,0.0039 0.101563,0.148437 0.1875,0.308594 0.386719,0.355469 0.257812,0.05859 0.863281,0.183594 1.113281,0.03906 0.28125,-0.164062 0.160156,-0.609375 0.04297,-0.828125 -0.0625,-0.117187 -0.230469,-0.148437 -0.34375,-0.171875 -0.386719,-0.08203 -0.4375,-0.355468 -0.664063,-0.59375 -0.128906,-0.136718 -0.382812,-0.1875 -0.550781,-0.234375 -0.421875,-0.113281 -0.714844,-0.21875 -1.019531,-0.535156 -0.148438,-0.152344 -0.503907,-0.550781 -0.769531,-0.40625 -0.195313,0.113281 -0.421876,0.523437 -0.675782,0.417969 -0.230468,-0.09766 -0.429687,-0.21875 -0.699218,-0.230469 -1.058594,-0.05078 -1.375,1.097656 -0.835938,1.863281 0.292969,0.410156 -1.890625,0.617188 -2.074219,0.644532 -0.08984,0.01172 -0.179687,0.01953 -0.273437,0.02344 -0.460938,0.02344 -0.515625,-0.542969 -0.320313,-0.871094 0.15625,-0.265625 0.269531,-0.566406 0.460938,-0.808593 0.117187,-0.152344 0.355469,0.253906 0.421875,0.316406 0.07813,0.07422 0.210937,0.08594 0.308594,0.05859 0.304687,-0.08203 0.492187,-0.507813 0.570312,-0.777344 0.101562,-0.347656 -0.214844,-0.796875 -0.316406,-1.113282 -0.152344,-0.464843 0.507812,-0.121093 0.625,-0.07031 0.132812,0.06641 0.542968,0.238281 0.5625,0.410156 0.0078,0.06641 0.05078,0.121094 0.121094,0.125 0.179687,0.0039 0.191406,0 0.371093,-0.03125 0.398438,-0.07031 0.566407,0.121094 0.875,0.230469 0.175781,0.0625 0.300781,0.01172 0.394531,-0.128906 C 14.257813,9.796891 14.578126,9.27736 14.027343,9.097672 13.73828,9.003922 14.398437,8.968766 14.484374,8.93361 14.625,8.87112 14.871094,8.781276 14.816406,8.570339 14.781246,8.453151 14.613281,8.335964 14.492188,8.343776 c -0.441407,0.01953 -0.871094,0.125 -1.316407,0.132813 -0.402343,0.0039 -0.679687,-0.3125 -1.0625,-0.355469 C 11.777344,8.08987 11.253906,8.03518 10.921875,8.12892 10.542969,8.230483 10.394531,8.562514 9.96875,8.414077 9.726562,8.328137 9.476562,8.187514 9.214844,8.207046 8.960938,8.230486 8.953125,8.617202 9.179684,8.687514 c 0.101562,0.03125 0.199218,0.04687 0.304687,0.0625 0.191406,0.03125 0.195313,0.429688 0.238281,0.582032 0.09375,0.3125 0.367188,0.515624 0.539063,0.785156 C 10.066402,10.00392 9.878902,9.835952 9.730465,9.714858 9.503902,9.531264 9.441402,9.324233 9.289058,9.093764 c -0.21875,-0.335937 -0.527343,0.02734 -0.597656,0.25 -0.0625,0.199219 -0.0625,0.460938 -0.03125,0.664063 0.03906,0.246093 0.214844,0.730469 -0.421875,0.558593 C 8.050777,10.51564 7.894527,10.47658 7.703121,10.48048 7.234371,10.4922 7.382808,10.589855 7.144527,10.218761 7.011719,10.011745 6.878906,9.875026 6.625,9.894558 c -0.140625,0.0078 -0.1875,0.1875 -0.222656,0.292968 -0.1875,0.554688 -0.566406,0.847656 -1.183594,0.929688 -0.472656,0.0625 -1.097656,0.105468 -1.347656,0.59375 -0.152344,0.300781 0.375,0.535156 0.59375,0.464844 0.300781,-0.101563 0.449218,-0.289063 0.804687,-0.269532 0.359375,0.02344 0.714844,-0.09375 1.058594,-0.21875 -0.726563,0.570313 -1.398437,0.695313 -2.332031,0.699219 -0.457032,0.0039 -1.050782,0.03906 -1.332032,0.464844 -0.257812,0.390625 -0.277343,0.851562 -0.285156,1.308593 -0.0078,0.78125 -0.09766,1.492188 -0.3125,2.253907 -0.07813,0.277343 -0.402344,1.507812 0.128906,1.515625 0.296876,0.0078 0.40625,-0.410156 0.445313,-0.621094 0.109375,-0.04297 0.21875,-0.08594 0.328125,-0.128906 0.0625,0.117187 0.105469,0.242187 0.132812,0.371094 0.04688,0.179687 0.08203,0.367187 0.121094,0.550781 0.105469,0.488281 0.195313,0.984375 0.300782,1.472656 0.109374,0.5 0.355468,1.019531 0.769531,1.339844 0.289062,0.222656 0.609375,0.390625 0.917969,0.578125 0.4375,0.269531 0.65625,0.707031 0.882812,1.144531 0.242188,0.46875 0.515625,0.824219 1.011719,1.011719 0.214843,0.07813 0.84375,0.144531 0.796875,-0.273438 -0.04687,-0.4375 -0.484375,-0.484375 -0.765625,-0.742187 -0.09375,-0.08594 -0.777344,-0.8125 -0.222657,-0.796875 0.558594,0.01563 0.945313,0.476562 1.273438,0.871094 0.433594,0.519531 0.890625,0.957031 1.523438,1.226562 0.636718,0.265625 1.289062,0.175781 1.949218,0.05859 0.582032,-0.105469 1.109375,-0.101563 1.652344,0.164062 0.402344,0.195313 0.863281,0.203125 1.191406,0.539063 0.164063,0.167969 0.359375,0.226562 0.585938,0.265625 0.121094,0.01953 0.238281,0.0039 0.359375,-0.0078 0.417969,-0.04687 0.652343,0.222657 0.828125,0.546875 0.285156,0.523438 0.08984,0.769532 -0.125,1.238282 -0.117188,0.261718 -0.07422,0.414062 0.0078,0.6875 0.08984,0.300781 0.101563,0.632812 0.320313,0.878906 0.292969,0.335937 0.59375,0.695312 0.921875,0.996094 0.246094,0.222656 0.570312,0.320312 0.816406,0.546874 0.179688,0.167969 0.355469,0.375 0.621094,0.398438 0.621094,0.05859 0.902344,0.207031 1.210937,0.75 0.207031,0.363281 0.375,0.773438 0.527344,1.160156 0.355469,0.902344 0.410156,1.9375 0.226563,2.878906 -0.04688,0.242188 -0.03516,0.4375 0.07031,0.65625 0.21875,0.453126 0.996094,0.867188 0.308594,1.414063 -0.04297,0.03125 -0.05078,0.109375 -0.01953,0.152344 0.660157,0.90625 1.390626,1.964843 2.617188,2.027343 0.179688,0.0078 0.824219,-0.03516 0.734375,-0.363281 -0.04687,-0.160156 -0.207031,-0.234375 -0.335937,-0.3125 -0.160157,-0.08984 -0.339844,-0.140625 -0.503907,-0.230469 -0.34375,-0.1875 -0.511719,-0.679687 -0.609375,-1.027343 -0.109375,-0.371094 -0.113281,-0.769531 -0.101562,-1.15625 0.01172,-0.4375 0.441406,-0.441407 0.78125,-0.4375 0.238281,0 0.507812,-0.292969 0.257812,-0.492188 -0.265625,-0.210937 -0.08594,-0.394531 0.01172,-0.644531 0.05859,-0.160156 -0.113281,-0.382812 -0.195313,-0.496094 -0.128906,-0.175781 -0.210937,-0.25 -0.285156,-0.464844 -0.04687,-0.128906 -0.195312,-0.816406 0.332032,-0.410156 0.179687,0.136719 0.355468,0.257813 0.589843,0.257813 0.359375,0 0.375,-0.417969 0.347657,-0.671875 -0.03906,-0.324219 -0.203126,-0.636719 -0.292969,-0.945313 -0.140625,-0.496093 0.351562,-1.113281 0.488281,-1.589843 0.105469,-0.371094 0.144531,-0.898438 0.496094,-1.117188 0.1875,-0.117188 0.378906,-0.25 0.5,-0.445312 0.335937,-0.542969 0.527344,-1.199219 0.257812,-1.8125"
     fill-opacity="1"
     fill-rule="nonzero"
     id="path102" />
  <path
     fill="#58ac34"
     d="M 6.707031,8.660182 C 6.46875,8.667982 6.296875,8.898464 6.164062,9.062526 5.949219,9.320339 5.664062,9.535182 5.375,9.699245 c -0.289062,0.160156 -0.96875,0.4375 -0.9375,0.855469 0.0078,0.07031 0.05469,0.121094 0.125,0.125 0.355469,0.01172 0.699219,-0.06641 1.019531,-0.203125 0.02344,0.0039 0.05078,-0.0039 0.07422,-0.02344 l 0.02344,-0.01563 c 0.121093,-0.05859 0.234374,-0.121094 0.347656,-0.1875 0.05078,-0.03516 0.0625,-0.08594 0.05469,-0.132812 C 6.390631,9.855488 6.679694,9.582051 7.007818,9.320332 7.363287,9.039082 7.074228,8.648457 6.707037,8.660175"
     fill-opacity="1"
     fill-rule="nonzero"
     id="path104" />
  <path
     fill="#58ac34"
     d="M 8.417969,8.21487 C 8.343749,8.101589 8.199219,8.08987 8.078125,8.085964 7.6875,8.066434 7.351562,8.207058 7.289062,8.628932 c -0.01953,0.132813 0.160157,0.203126 0.222657,0.113282 0.269531,-0.0039 0.550781,-0.04297 0.8125,0.03516 0.07813,0.02344 0.15625,-0.03906 0.15625,-0.117188 0,-0.144531 0.01953,-0.316406 -0.0625,-0.445312"
     fill-opacity="1"
     fill-rule="nonzero"
     id="path106" />
  <path
     fill="#58ac34"
     d="M 12.066406,4.386745 C 11.730469,4.191432 11.355469,4.609401 11.164062,4.820339 10.65625,5.37112 10.046875,5.734401 9.5,6.234401 9.253906,6.460964 9.261719,6.710964 9.238281,7.007839 8.824219,6.996119 8.105469,6.984399 8.191406,7.523464 8.234376,7.796901 8.5625,7.824245 8.773438,7.83987 9.113281,7.86721 9.371094,7.8555 9.6875,8.031276 c 0.242188,0.132813 0.398438,-0.05859 0.640625,0.03906 l 0.01953,0.0078 0.0039,0.0039 c 0.01563,0.0078 0.03125,0.01562 0.04688,0.02344 0.05469,0.03125 0.101562,0.01953 0.136718,-0.01172 0.449219,-0.03516 0.886719,-0.554687 0.355469,-0.820312 -0.03906,-0.01563 -0.07422,-0.02734 -0.113281,-0.03906 -0.261719,-0.08203 0.113281,-0.328125 0.238281,-0.402343 0.148437,-0.09766 0.148437,-0.242188 0.15625,-0.394532 -0.01563,-0.109375 -0.03125,-0.21875 -0.05078,-0.332031 -0.04297,-0.371094 0.273437,-0.546875 0.515625,-0.710937 0.152343,-0.09766 0.382812,-0.222657 0.484375,-0.378907 0.121094,-0.191406 0.1875,-0.484375 -0.05469,-0.628906"
     fill-opacity="1"
     fill-rule="nonzero"
     id="path108" />
  <g
     clip-path="url(#90abc14f2a)"
     id="g112"
     transform="translate(-26.375,-16.25388)">
    <path
       fill="#58ac34"
       d="m 45.296875,19.722656 c -0.0039,-0.03906 -0.0039,-0.07813 -0.0039,-0.117187 0.09375,0.0039 0.1875,0 0.28125,-0.01172 -0.09375,0.04297 -0.183594,0.08984 -0.277344,0.128906 z m 2.292969,-1.378906 c -0.433594,0.265625 -0.460938,0.761719 -1.015625,0.949219 -0.222657,0.07422 -0.464844,0.08203 -0.691407,0.160156 -0.01562,0.0039 -0.02734,0.01172 -0.04297,0.01563 0.05859,-0.06641 0.08594,-0.167969 0.05469,-0.316406 -0.0625,-0.289063 -0.105469,-0.554688 -0.136719,-0.851563 -0.01562,-0.136719 -0.07422,-0.285156 -0.199218,-0.359375 -0.472656,-0.277344 -1.171875,0.320313 -1.59375,0.441406 -0.214844,0.0625 -0.539063,-0.05078 -0.730469,0.109376 -0.210937,0.171874 -0.246094,0.308593 -0.316406,0.519531 -0.457031,-0.25 -0.964844,-0.519531 -1.253907,0.132812 -0.07031,0.152344 -0.08984,0.316407 -0.164062,0.46875 -0.08594,0.179688 -0.617188,0.113281 -0.785156,0.109375 -0.257813,-0.0039 -0.5625,0.117188 -0.761719,0.28125 -0.414063,0.34375 -0.777344,0.746094 -1.152344,1.128906 -0.226562,0.226563 -0.261719,0.628907 -0.421875,0.898438 -0.332031,0.554688 0.550782,0.5625 0.910156,0.707031 0.242188,0.1875 0.53125,0.359375 0.8125,0.441407 0.246094,0.07031 0.4375,0.08594 0.695313,0.07812 0.554687,-0.01172 0.671875,0.304688 0.847656,0.710938 0.238281,0.546875 0.660157,1.105469 1.316407,1.160156 0.636718,0.04687 0.996093,-0.367187 1.089843,-0.964844 0.03516,-0.226562 0.04687,-0.453124 0.105469,-0.679687 0.09766,-0.375 0.476562,-0.660156 0.738281,-0.925781 0.425781,-0.425782 0.894531,-0.6875 1.402344,-0.984375 0.199219,-0.117188 0.414063,-0.339844 0.40625,-0.589844 -0.0039,-0.195313 -0.03906,-0.359375 -0.09375,-0.550781 -0.15625,-0.539063 0.242187,-0.40625 0.5,-0.449219 0.417969,-0.07031 0.347656,-0.507813 0.625,-0.71875 0.203125,-0.15625 0.480469,-0.238281 0.578125,-0.503906 0.171875,-0.472657 -0.382812,-0.625 -0.722656,-0.417969"
       fill-opacity="1"
       fill-rule="nonzero"
       id="path110" />
  </g>
  <path
     fill="#58ac34"
     d="m 22.460938,5.62112 c -0.0078,-0.03906 -0.04297,-0.07813 -0.08594,-0.08594 -0.410156,-0.05859 -0.9375,-0.15625 -1.304688,0.07031 -0.203124,0.125 -0.390624,0.261719 -0.605468,0.378906 -0.136719,0.07422 -0.304688,0.183594 -0.382813,0.324219 -0.335937,0.585938 0.476563,1.082031 0.816407,0.664062 0.04297,0.0039 0.08203,-0.01172 0.105468,-0.0625 0.08594,-0.191406 0.417969,-0.269531 0.582032,-0.390624 0.191406,-0.140626 0.253906,-0.296876 0.507812,-0.371094 0.269531,-0.07422 0.445312,-0.246094 0.367188,-0.527344"
     fill-opacity="1"
     fill-rule="nonzero"
     id="path114" />
  <path
     fill="#58ac34"
     d="M 22.914062,4.988308 C 22.75,4.80862 22.488281,4.722682 22.253906,4.710964 c -0.316406,-0.01172 -0.40625,0.269531 -0.40625,0.53125 0,0.06641 0.05859,0.125 0.121094,0.125 0.03125,0 0.05859,0 0.08594,0 l 0.02344,-0.0078 0.01563,0.0039 c 0.242188,0.0078 0.46875,0.109374 0.710938,0.07031 0.226562,-0.03516 0.238281,-0.304688 0.109374,-0.445312"
     fill-opacity="1"
     fill-rule="nonzero"
     id="path116" />
  <path
     fill="#58ac34"
     d="m 23.769531,5.414089 c -0.171875,-0.0625 -0.398437,-0.03516 -0.585937,0.01563 -0.03906,-0.06641 -0.125,-0.101563 -0.1875,-0.02734 -0.117188,0.140625 -0.15625,0.3125 -0.113282,0.492188 0.01563,0.05078 0.06641,0.08984 0.121094,0.08984 0.160156,0 0.320313,0.01953 0.484375,0.01563 0.148438,-0.0039 0.382813,-0.01172 0.46875,-0.160156 0.09375,-0.152344 -0.03516,-0.367188 -0.1875,-0.425781"
     fill-opacity="1"
     fill-rule="nonzero"
     id="path118" />
  <path
     fill="#58ac34"
     d="M 27.648438,7.238308 C 27.574218,7.113308 27.445312,7.078151 27.316406,7.046901 26.976562,6.968771 26.71875,6.90237 26.433594,6.675808 c -0.265625,-0.203126 -0.472656,-0.640626 -0.867188,-0.5 -0.371094,0.132812 -0.445312,0.890624 -0.460937,1.207031 0,0.02344 0.0078,0.04297 0.01563,0.0625 -0.191406,0.324219 -0.617188,0.617187 -0.269532,0.933593 0.210938,0.1875 0.636719,0.01953 0.8125,-0.136718 0.04688,-0.03906 0.09766,-0.128906 0.128907,-0.175782 0.03125,-0.04687 0.289062,-0.535156 0.335937,0.0078 0.01563,0.164063 0.07813,0.21875 0.203125,0.296875 0.332031,0.203125 0.78125,-0.01953 1.042969,-0.222656 0.261719,-0.207032 0.457031,-0.59375 0.273438,-0.910156"
     fill-opacity="1"
     fill-rule="nonzero"
     id="path120" />
  <path
     fill="#58ac34"
     d="m 14.132812,20.601589 c -0.386718,0.03906 -1.472656,0.238281 -1.296874,0.867187 0.183593,0.675782 1.222656,-0.109375 1.523437,-0.285156 0.300781,0.03125 0.574219,0.117188 0.78125,0.363281 0.03906,0.04687 0.15625,0.09766 0.222656,0.07813 0.230469,-0.0625 0.382813,-0.324218 0.375,-0.550781 -0.03516,-0.652344 -1.214843,-0.515625 -1.605469,-0.472656"
     fill-opacity="1"
     fill-rule="nonzero"
     id="path122" />
  <path
     fill="#58ac34"
     d="m 17.71875,20.816432 c -0.01172,-0.05469 -0.07031,-0.08984 -0.121094,-0.09375 -0.367187,-0.01172 -0.792968,-0.167968 -1.140625,-0.02734 -0.03125,-0.01953 -0.07422,-0.02344 -0.117187,0.0078 -0.226563,0.15625 -0.484375,0.359375 -0.566406,0.632813 -0.08594,0.289062 0.269531,0.433594 0.496093,0.417968 0.34375,-0.03125 0.648438,-0.292968 0.96875,-0.40625 0.257813,-0.08984 0.53125,-0.21875 0.480469,-0.53125"
     fill-opacity="1"
     fill-rule="nonzero"
     id="path124" />
  <path
     fill="#58ac34"
     d="m 30.582031,5.05862 c 0.320313,0.132812 0.679688,0.175781 0.953125,0.410156 0.242188,0.207032 -0.441406,0.136719 -0.457031,0.132813 -0.183594,-0.02344 -0.363281,-0.05078 -0.542969,-0.06641 -0.460937,-0.04687 -0.773437,0.394532 -1.222656,0.40625 -0.332031,0.0078 0.300781,-0.644531 0.347656,-0.753906 0.07422,-0.160156 -0.04297,-0.285156 -0.167968,-0.371094 -0.273438,-0.195312 -0.46875,-0.277343 -0.382813,-0.703124 0.04687,-0.222657 0.261719,-0.398438 0.4375,-0.542969 0.367187,0.199219 0.777344,0.4375 1.226563,0.722656 -0.113282,0.04297 -0.207032,0.121094 -0.242188,0.25 -0.46875,0.03125 -0.386719,0.332031 0.05078,0.515625 z m 3.453125,5.1875 c 0.195313,0.257812 0.07813,0.425781 -0.355468,0.507812 -0.08984,-0.04687 -0.15625,-0.117187 -0.25,-0.15625 -0.21875,-0.08984 -0.375,-0.09375 -0.609376,-0.08594 -0.230468,0.0078 -0.4375,0.08984 -0.640624,0.183594 -0.351563,0.15625 -0.195313,-0.05859 -0.269532,-0.347657 -0.207031,-0.847656 -1.675781,0.246094 -1.976562,0.472657 -0.242188,0.183593 -0.46875,0.371093 -0.753906,0.488281 -0.511719,0.203125 -0.402344,-0.867188 -0.371094,-1.035156 0.101562,-0.558594 0.960937,-1.105469 1.4375,-1.292969 0.492187,-0.199219 0.878906,0.07422 1.234375,0.378906 0.105469,0.08984 0.269531,0.433594 0.414062,0.5 0.242188,0.117188 0.507813,0.04687 0.703125,-0.148437 0.511719,-0.5 -0.652344,-0.886719 -0.957031,-1.054688 -0.273437,-0.148437 -0.582031,-0.644531 -0.06641,-0.339844 0.175781,0.105469 0.324219,0.25 0.496093,0.359376 0.480469,0.3125 1.027344,0.460937 1.492188,0.796874 0.15625,0.109376 0.558594,0.378907 0.769531,0.214844 0.109375,-0.08203 0.125,-0.09375 0.15625,-0.230468 0.02344,-0.08594 -0.07813,-0.585938 0.125,-0.324219 0.101563,0.132812 0.339844,0.292969 0.488281,0.140625 0.140626,-0.140625 -0.03516,-0.425782 -0.128906,-0.644532 0.171875,0.08594 0.371094,0.246094 0.527344,0.289063 0.160156,0.05078 0.347656,0.04297 0.527344,0.03516 0.171875,0.210938 0.339844,0.429688 0.503906,0.65625 -0.09766,-0.0039 -0.199219,0 -0.320312,0.02344 -0.363282,0.0625 -0.59375,0.07813 -0.957032,0.04687 -0.144531,-0.01563 -0.378906,-0.05469 -0.515625,0.02734 -0.238281,0.136718 -0.316406,0.3125 -0.628906,0.355468 -0.08593,0.01173 -0.109371,0.1211 -0.07422,0.1836 z m 2.851563,-0.425781 c -0.03516,-0.05469 -0.07031,-0.113281 -0.101563,-0.175781 l -0.02734,-0.0039 C 36.25,8.937526 35.722656,8.304714 35.207031,7.750026 31.941406,4.226589 28.230469,2.679714 27.933594,2.625026 l -0.01172,0.07422 c -0.04297,-0.02344 -0.08594,-0.04297 -0.125,-0.07031 C 27.64453,2.777374 27.511718,2.93753 27.371093,3.097686 27.234375,3.24612 27.011719,3.171901 26.875,3.300808 c -0.25,0.242187 -0.25,0.550781 -0.238281,0.882812 0.01172,0.285156 -0.01563,0.46875 -0.214844,0.699219 -0.07422,0.08594 -0.164063,0.242187 -0.160156,0.359375 0.0039,0.164062 0.02734,0.421875 0.238281,0.464844 0.273438,0.05469 0.769531,-0.195313 0.769531,0.253906 0,0.269531 0.261719,0.324218 0.476563,0.351562 0.855468,0.117188 0.171875,1.238282 -0.06641,1.609375 -0.148438,0.230469 -0.296876,0.433594 -0.53125,0.589844 -0.121094,0.07813 -0.230469,0.117187 -0.3125,0.234375 -0.02344,0.03125 -0.02344,0.09375 0,0.125 0.09375,0.128906 0.214843,0.1875 0.371093,0.226562 l 0.03125,0.0039 c 0.304688,-0.03516 0.34375,0.179687 0.121094,0.652343 -0.109375,0.04688 -0.230469,0.07813 -0.339844,0.121094 -0.367187,0.136719 -0.636719,0.570313 -0.515625,0.964844 0.152344,0.496094 0.5,0.90625 1.015625,1.019531 0.183594,0.04297 0.296875,-0.03906 0.398438,-0.167969 0.3125,-0.390624 0.339843,0.253907 0.335937,0.316407 0,0.1875 -0.04687,0.363281 -0.109375,0.539062 -0.230469,0.695313 -0.550781,1.398438 -0.59375,2.144531 -0.03906,0.695313 0.25,1.457032 0.535157,2.085938 0.269531,0.605469 0.574218,1.179688 1.066406,1.632812 0.484375,0.445313 1.136718,1.132813 1.792968,1.328126 0.480469,0.140624 0.644532,-0.152344 0.933594,-0.488282 0.457032,-0.539062 1.15625,0.277344 1.425782,-0.183594 0.125,-0.210937 -0.09766,-0.636718 0.304687,-0.6875 0.378906,-0.04297 1.082031,-0.113281 1.339844,0.222657 0.199219,0.261719 0.144531,0.761719 0.226562,1.085937 0.101563,0.402344 0.359375,0.742188 0.605469,1.070313 0.234375,0.320312 0.492188,0.648437 0.628906,1.023437 0.101563,0.285156 -0.328125,0.714844 -0.410156,1.011719 -0.05078,0.179687 -0.01172,0.3125 0.07813,0.472656 0.296875,0.503907 0.554687,0.824219 0.578125,1.453125 0.0078,0.203125 -0.05078,0.496094 0.117188,0.664063 0.324218,0.320312 0.792968,0.05469 0.871093,0.78125 0.05859,0.550781 -0.01563,1.039062 0.234375,1.558593 0.226563,0.464844 0.980469,0.15625 1.246094,-0.105468 0.07031,-0.06641 0.148438,-0.144532 0.175781,-0.238282 0.09766,-0.3125 0.242188,-0.558593 0.433594,-0.828124 0.101563,-0.140626 0.15625,-0.351563 0.210937,-0.511719 0.04297,-0.121094 0.07422,-0.449219 0.140626,-0.664063 v -0.214844 l 0.08203,0.01172 C 41.234375,18.21487 39.265625,13.187526 36.886719,9.820339"
     fill-opacity="1"
     fill-rule="nonzero"
     id="path126" />
</svg>
