<svg width="128" height="32" viewBox="0 0 128 32" fill="none" xmlns="http://www.w3.org/2000/svg">
<path fill-rule="evenodd" clip-rule="evenodd" d="M14.8544 29.7651C16.5726 29.5785 18.1037 28.7618 19.1688 27.5106C17.1894 27.1792 15.3603 26.105 14.137 24.4909C12.9119 26.1128 11.1415 27.1828 9.16152 27.4882C10.5247 29.1531 12.6514 30.0044 14.8544 29.7651ZM14.921 23.2313C16.0298 24.9895 17.9631 26.0983 20.0116 26.2407C20.9956 24.2752 20.8762 21.9486 19.6911 20.0159C18.6896 18.3836 17.1016 17.2955 15.3112 16.9677C16.054 18.9865 15.9231 21.2373 14.918 23.2331L14.921 23.2313ZM20.1164 11.9595C21.0507 10.1261 21.0331 7.91583 20.1286 6.08546C20.1105 6.08612 20.0927 6.08646 20.0749 6.0868C20.0436 6.0874 20.0124 6.08799 19.9807 6.09031C17.782 6.22542 15.8274 7.50141 14.752 9.50202C13.8468 11.1864 13.7056 13.1034 14.3212 14.8138C15.7232 13.0997 17.808 12.0576 20.1164 11.9595ZM13.7456 2.58287C12.0001 2.74646 10.4375 3.56258 9.35237 4.82887C11.2718 5.17604 13.0416 6.22421 14.243 7.78132C15.4815 6.15211 17.2737 5.08091 19.2785 4.79251C17.9353 3.20693 15.8856 2.38172 13.7456 2.58287ZM13.459 9.0355C12.363 7.34145 10.4963 6.26299 8.50838 6.09273C7.52867 8.03155 7.62258 10.3303 8.76709 12.26C9.73832 13.8977 11.2972 15.0052 13.0694 15.3663C12.3079 13.3318 12.4363 11.0537 13.459 9.0355ZM2.56015 16.1349C2.56454 16.1423 2.56893 16.1497 2.57378 16.157C3.7813 18.0001 5.85826 19.0665 8.12849 19.0077C10.0467 18.9592 11.7862 18.1261 12.9677 16.7362C10.8447 16.3545 8.96521 15.0961 7.75406 13.2112C5.65832 13.2748 3.70617 14.3957 2.54652 16.1128C2.55136 16.1201 2.55576 16.1275 2.56015 16.1349ZM20.2588 13.3191C18.3455 13.3766 16.6132 14.214 15.439 15.6038C17.5723 15.9595 19.4724 17.1991 20.7084 19.0774C22.7793 18.9828 24.6969 17.8577 25.8347 16.154C25.8323 16.1504 25.8299 16.1461 25.8275 16.1419C24.6109 14.3054 22.5285 13.2476 20.2588 13.3191ZM8.40962 20.3594C7.46445 22.1801 7.46808 24.377 8.346 26.2049C10.5351 26.0825 12.4908 24.8296 13.5814 22.8484C14.5024 21.1749 14.6641 19.2628 14.0692 17.5475C12.6883 19.2155 10.6586 20.2358 8.40962 20.3594ZM6.95732 6.14726C4.82402 6.48716 3.01304 7.90432 2.11331 9.93886C1.42442 11.496 1.35475 13.2021 1.87823 14.7338C3.16997 13.1761 5.0379 12.1309 7.06517 11.8946C6.29994 10.034 6.27086 7.98793 6.99307 6.14242C6.98701 6.14332 6.98111 6.14408 6.9752 6.14484C6.96929 6.1456 6.96338 6.14635 6.95732 6.14726ZM21.5869 12.0298C23.5409 12.3012 25.2949 13.2779 26.5248 14.7932C27.2561 12.7877 26.9174 10.5423 25.6106 8.77194C24.6218 7.43294 23.2161 6.53866 21.6687 6.21512C22.3637 8.07881 22.3503 10.1788 21.5869 12.0298ZM21.5318 26.1656C23.6469 25.8044 25.4343 24.3849 26.3182 22.3588C27.0053 20.7847 27.0604 19.0628 26.5151 17.5245C25.247 19.0719 23.4112 20.1225 21.41 20.3848C22.1995 22.2461 22.2467 24.3037 21.5318 26.1656ZM6.92703 20.3103C4.91006 20.0552 3.10029 19.0483 1.84915 17.4772C1.11664 19.4651 1.43594 21.696 2.71616 23.4682C3.73162 24.8726 5.20451 25.8008 6.82403 26.1044C6.1412 24.2455 6.15999 22.1546 6.92703 20.3103ZM0 23.2185V8.95128C0 8.30177 0.346564 7.70195 0.908821 7.3772L13.2639 0.243564C13.8268 -0.081188 14.5199 -0.081188 15.0822 0.243564L27.4373 7.3772C27.9996 7.70195 28.3461 8.30177 28.3461 8.95128V23.2185C28.3461 23.8674 27.9996 24.4679 27.4373 24.792L15.6244 31.6124C15.1767 31.8705 14.675 32.0002 14.1728 32.0002C13.6711 32.0002 13.1694 31.8705 12.7217 31.6124L0.908821 24.792C0.346564 24.4679 0 23.8674 0 23.2185ZM49.2822 13.0316C49.2822 14.5539 48.2923 15.3921 46.4951 15.3921H44.6167V10.6711H46.4951C48.2923 10.6711 49.2822 11.5094 49.2822 13.0316ZM42.7148 8.89899V22.2841H44.6167V17.1637H46.5506C49.3879 17.1637 51.2215 15.5416 51.2215 13.0316C51.2215 10.5211 49.3879 8.89899 46.5506 8.89899H42.7148ZM54.1062 17.5392C54.1062 15.7287 55.4 14.3629 57.116 14.3629C58.8321 14.3629 60.1258 15.7287 60.1258 17.5392C60.1258 19.3509 58.8321 20.7161 57.116 20.7161C55.4 20.7161 54.1062 19.3509 54.1062 17.5392ZM52.2412 17.5392C52.2412 20.329 54.3369 22.4322 57.116 22.4322C58.2837 22.4322 59.3874 22.0414 60.2507 21.327V22.2843H62.0068V12.7947H60.2507V13.7521C59.3874 13.0377 58.2837 12.6463 57.116 12.6463C54.3369 12.6463 52.2412 14.7505 52.2412 17.5392ZM68.9593 22.4323C66.1802 22.4323 64.0845 20.3291 64.0845 17.5393C64.0845 14.75 66.1802 12.6464 68.9593 12.6464C70.7405 12.6464 71.9109 13.4606 72.5788 14.1446L72.6498 14.2161L71.4853 15.4858L71.4068 15.4073C70.93 14.9305 70.1184 14.3629 68.9593 14.3629C67.2432 14.3629 65.9495 15.7282 65.9495 17.5393C65.9495 19.3509 67.2432 20.7162 68.9593 20.7162C70.1184 20.7162 70.93 20.1481 71.4068 19.6713L71.4853 19.5928L72.6498 20.8625L72.5788 20.9346C71.9109 21.618 70.7405 22.4323 68.9593 22.4323ZM81.07 16.6117V22.2842H82.8795V16.5188C82.8795 14.2026 81.3973 12.6462 79.1922 12.6462C78.3603 12.6462 77.2332 12.8315 76.4238 13.6746V8.89907H74.6143V22.2842H76.4238L76.4195 16.2139C76.75 15.0201 77.6096 14.3628 78.8398 14.3628C80.1736 14.3628 81.07 15.2662 81.07 16.6117ZM109.143 22.2842V16.6117C109.143 15.2454 108.355 14.3628 107.135 14.3628C106.062 14.3628 105.308 14.9907 104.956 16.1782C104.978 16.2679 104.979 16.403 104.979 16.5188V22.2842H103.17V16.6117C103.17 15.2454 102.374 14.3628 101.144 14.3628C100.13 14.3628 99.3418 14.972 98.9814 16.034L98.9872 22.2842H97.1777V12.7952H98.9872V13.6393C99.8148 12.7813 100.898 12.6462 101.496 12.6462C102.682 12.6462 103.697 13.1695 104.305 14.0862C105.284 12.8374 106.652 12.6462 107.395 12.6462C109.556 12.6462 110.953 14.1669 110.953 16.5188V22.2842H109.143ZM86.6726 17.5392C86.6726 15.7287 87.9663 14.3629 89.6824 14.3629C91.3984 14.3629 92.6921 15.7287 92.6921 17.5392C92.6921 19.3509 91.3984 20.7161 89.6824 20.7161C87.9663 20.7161 86.6726 19.3509 86.6726 17.5392ZM84.8081 17.5392C84.8081 20.329 86.9038 22.4322 89.6824 22.4322C90.8501 22.4322 91.9537 22.0414 92.8171 21.327V22.2843H94.5732V12.7947H92.8171V13.7521C91.9537 13.0377 90.8501 12.6463 89.6824 12.6463C86.9038 12.6463 84.8081 14.7505 84.8081 17.5392ZM117.826 14.3629C116.11 14.3629 114.817 15.7287 114.817 17.5392C114.817 19.3509 116.11 20.7161 117.826 20.7161C119.543 20.7161 120.836 19.3509 120.836 17.5392C120.836 15.7287 119.543 14.3629 117.826 14.3629ZM117.826 22.4322C115.047 22.4322 112.952 20.329 112.952 17.5392C112.952 14.7505 115.047 12.6463 117.826 12.6463C118.994 12.6463 120.098 13.0377 120.961 13.7521V12.7947H122.717V22.2843H120.961V21.327C120.098 22.0414 118.994 22.4322 117.826 22.4322Z" fill="#222222"/>
</svg>
