<svg xmlns="http://www.w3.org/2000/svg" viewBox="180 200 445 445" version="1.0"><defs><clipPath id="atom_clippath"><path d="M243 262.441h324v285H243zm0 0"/></clipPath></defs><g clip-path="url(#atom_clippath)"><path d="M566.266 404.906c0-21.91-34.286-38.117-79.934-46.844 3.727-10.71 6.79-21.078 8.914-30.757 7.074-32.32 3.656-54.344-9.613-62-3.285-1.899-7.074-2.864-11.258-2.864-18.125 0-43.41 18.262-69.371 48.36-25.953-30.098-51.238-48.36-69.379-48.36-4.176 0-7.969.965-11.262 2.864-19 10.96-15.86 48.812-.562 92.742-45.715 8.707-80.067 24.926-80.067 46.86 0 21.917 34.297 38.113 79.957 46.847-3.746 10.71-6.808 21.07-8.925 30.75-7.079 32.328-3.664 54.348 9.597 62.004 3.293 1.898 7.086 2.855 11.262 2.855 18.14 0 43.426-18.27 69.379-48.355 25.953 30.086 51.238 48.36 69.371 48.36 4.184 0 7.973-.962 11.258-2.86 13.27-7.656 16.687-29.676 9.61-62.004-2.122-9.68-5.184-20.04-8.919-30.75 45.656-8.73 79.942-24.93 79.942-46.848zM474.375 270.77c2.703 0 5.094.605 7.094 1.75 9.726 5.613 11.777 24.933 5.633 53.003-2.13 9.743-5.25 20.196-9.075 31.047-13.437-2.242-27.687-3.847-42.238-4.804-8.297-12.532-16.793-24.063-25.266-34.399 24.45-28.566 48.164-46.597 63.852-46.597zm-29.664 157.043a479.726 479.726 0 01-13.684 22.242c-8.375.425-17.05.664-26.023.664-8.973 0-17.656-.239-26.02-.664a457.23 457.23 0 01-13.68-22.243 504.394 504.394 0 01-12.413-22.832c3.882-7.636 7.988-15.32 12.418-22.984 4.418-7.664 9-15.09 13.675-22.25 8.364-.422 17.047-.66 26.02-.66 8.973 0 17.652.238 26.023.66a482.252 482.252 0 0113.672 22.25c4.418 7.64 8.516 15.305 12.395 22.91-3.88 7.614-7.973 15.278-12.383 22.906zm16.96-13.622c5.118 10.649 9.677 21.141 13.548 31.336-10.485 1.68-21.797 2.985-33.828 3.88a536.943 536.943 0 0010.53-17.423c3.427-5.925 6.642-11.867 9.75-17.793zm-36.37 44.426c-6.672 9.73-13.488 18.871-20.297 27.223-6.805-8.356-13.613-17.492-20.3-27.223 6.757.281 13.534.445 20.3.445 6.77-.003 13.55-.164 20.297-.445zm-56.68-9.21c-12.039-.895-23.355-2.204-33.832-3.88 3.875-10.18 8.422-20.68 13.535-31.336a491.604 491.604 0 009.762 17.793 530.09 530.09 0 0010.535 17.422zm-20.332-53.692c-5.277-10.93-9.824-21.45-13.629-31.406 10.512-1.676 21.871-3 33.961-3.907a508.276 508.276 0 00-10.539 17.43c-3.441 5.957-6.66 11.934-9.793 17.883zm36.426-44.508c6.676-9.734 13.484-18.879 20.289-27.242 6.808 8.363 13.625 17.508 20.297 27.242a468.43 468.43 0 00-20.297-.453c-6.766.004-13.543.16-20.29.453zm67.207 26.625a499.51 499.51 0 00-10.531-17.43c12.03.907 23.343 2.215 33.828 3.883-3.871 10.18-8.43 20.695-13.547 31.344-3.11-5.926-6.324-11.875-9.75-17.797zM328.539 272.52c2-1.157 4.387-1.75 7.086-1.75 15.688 0 39.402 18.03 63.86 46.597-8.47 10.336-16.973 21.867-25.266 34.399-14.598.957-28.906 2.586-42.395 4.836-15.758-44.47-16.242-76.606-3.285-84.082zM252.07 404.906c0-14.953 28.086-30.605 74.493-39.203 4.796 12.813 10.542 26.016 17.019 39.14-6.644 13.348-12.394 26.532-17.168 39.227-46.328-8.59-74.344-24.23-74.344-39.164zm83.555 134.133c-2.738 0-5.047-.574-7.086-1.734-9.723-5.617-11.777-24.934-5.629-53.008 2.133-9.746 5.242-20.215 9.074-31.059 13.438 2.242 27.696 3.852 42.227 4.809 8.3 12.523 16.793 24.055 25.266 34.402-24.446 28.563-48.164 46.59-63.852 46.59zm151.465-54.746c6.152 28.074 4.101 47.39-5.621 53.008-2.008 1.144-4.39 1.738-7.094 1.738-15.688 0-39.402-18.027-63.852-46.594 8.473-10.347 16.97-21.879 25.274-34.402 14.543-.953 28.793-2.563 42.23-4.809 3.825 10.848 6.946 21.313 9.063 31.059zm-3.504-40.219c-4.758-12.68-10.492-25.84-17.125-39.168 6.633-13.328 12.367-26.488 17.133-39.164 46.32 8.594 74.34 24.242 74.34 39.164 0 14.934-28.02 30.574-74.348 39.168zm0 0"/></g><path d="M422.715 404.906c0 .578-.027 1.156-.082 1.735a18.237 18.237 0 01-.68 3.402 17.99 17.99 0 01-1.328 3.207 17.523 17.523 0 01-1.93 2.887 17.38 17.38 0 01-2.453 2.453c-.449.37-.914.715-1.398 1.035-.48.324-.98.621-1.492.895a17.99 17.99 0 01-3.207 1.328 18.048 18.048 0 01-3.406.68 18.407 18.407 0 01-3.473 0 18.053 18.053 0 01-3.406-.68 17.76 17.76 0 01-3.208-1.328 16.868 16.868 0 01-1.488-.895c-.484-.32-.95-.664-1.398-1.035a17.327 17.327 0 01-2.457-2.453c-.368-.45-.711-.914-1.036-1.395a18.56 18.56 0 01-1.636-3.062 19.873 19.873 0 01-.586-1.637 17.975 17.975 0 01-.422-1.684c-.113-.57-.195-1.14-.254-1.718a17.186 17.186 0 01-.086-1.735c0-.582.027-1.16.086-1.738.059-.574.14-1.148.254-1.719.113-.566.254-1.129.422-1.683.172-.555.367-1.102.586-1.637a18.56 18.56 0 011.637-3.063c.324-.48.667-.945 1.038-1.394.368-.45.754-.879 1.165-1.29.41-.41.84-.796 1.289-1.163.449-.367.914-.715 1.398-1.035.48-.325.977-.622 1.488-.895a17.99 17.99 0 013.207-1.328 18.054 18.054 0 011.688-.422 17.2 17.2 0 011.719-.254 17.207 17.207 0 011.738-.086c.578 0 1.156.028 1.734.086a17.753 17.753 0 016.613 2.004c.512.274 1.012.57 1.493.895.484.32.949.668 1.398 1.035a17.38 17.38 0 012.453 2.453 17.88 17.88 0 011.93 2.887 17.99 17.99 0 011.328 3.207 17.975 17.975 0 01.68 3.402c.055.578.082 1.156.082 1.738zm0 0"/></svg>