<svg xmlns="http://www.w3.org/2000/svg" viewBox="0 0 24 24"><path d="M12.607 7.501H10V14.5h.983v-2.836h1.624c.669 0 1.232-.198 1.687-.596l.004-.003c.428-.341.702-.867.702-1.458v-.023a1.877 1.877 0 00-.706-1.478l.003.003a2.471 2.471 0 00-1.628-.609l-.062.001zm.995 1.233c.252.225.395.533.395.855 0 .323-.143.631-.395.856-.255.24-.608.372-.973.362h-1.648V8.363h1.645l.048-.001c.36 0 .687.142.928.372zM6.811 8.543l.003.003zM.435 13.296l.011.022A4.087 4.087 0 004.064 15.5h.017c1.101 0 2.029-.354 2.705-.966C7.556 13.838 8 12.808 8 11.592c0-.273-.023-.544-.07-.813H4.081v1.54h2.204a1.855 1.855 0 01-.814 1.217c-.367.243-.839.381-1.39.381H4.08a2.442 2.442 0 01-2.288-1.645 2.367 2.367 0 01-.002-1.537l.005-.017a2.438 2.438 0 012.286-1.633h.04c.59 0 1.127.228 1.526.6l1.164-1.142a3.952 3.952 0 00-2.68-1.042h-.067A4.095 4.095 0 00.436 9.704 3.907 3.907 0 000 11.501c0 .655.161 1.273.435 1.795zM22.978 9.501L21.53 12.99h-.02l-1.49-3.489H19l2.061 4.549-1.163 2.45h.968L24 9.501zM19 14.347v-2.893c0-.606-.181-1.084-.543-1.432-.363-.348-.858-.522-1.484-.522-.805 0-1.413.307-1.823.92l.747.488c.275-.415.65-.623 1.124-.623h.009c.313 0 .598.123.808.322l.001.001c.214.187.349.462.349.768V11.588c-.325-.191-.74-.287-1.243-.287-.59.001-1.062.144-1.415.431-.353.288-.53.673-.53 1.158v.033c0 .444.193.842.502 1.117.336.307.752.46 1.25.46.582 0 1.049-.268 1.4-.805h.037v.652H19zm-1.231-1.044a1.332 1.332 0 01-.953.412 1.013 1.013 0 01-.659-.23l-.002-.001a.714.714 0 01-.28-.567v-.007c0-.256.116-.469.348-.643.23-.173.517-.26.862-.26.473 0 .841.109 1.106.329v.004c0 .38-.162.723-.422.963z"/></svg>