<svg xmlns="http://www.w3.org/2000/svg" viewBox="200 200 405 405" version="1.0"><defs><clipPath id="prefix__a"><path d="M451 298.926h3V301h-3zm0 0"/></clipPath><clipPath id="prefix__b"><path d="M243 299h324v212.176H243zm0 0"/></clipPath></defs><g clip-path="url(#prefix__a)"><path d="M451.824 299.477c.52-.102.992-.329 1.465-.555.07.535-.16 1.008-.457 1.43-.344-.028-.68-.063-1.016-.102.004-.191.008-.578.008-.773zm0 0"/></g><g clip-path="url(#prefix__b)"><path d="M429.969 299.973c.402-.22.793-.47 1.226-.621.176.37.563.699.52 1.14-.317.43-.875.79-.586 1.395.316-.278.574-.61.848-.93.738-.64 1.773-.473 2.675-.5a13.3 13.3 0 01-.71 1.086l-.348.094c.234.539-.219.933-.41 1.394.34.028.683.043 1.03.051-.077-.352-.265-.66-.444-.96.144-.626.851-.763 1.27-1.153.147.062.437.195.581.261.016.426-.027.852-.05 1.282.284-.164.581-.328.87-.496.008-.356.024-.711.043-1.067.309-.008.614-.004.926.004.137.3.277.602.418.906.516-.156 1.024-.332 1.547-.488.191.133.383.266.578.399.461-.352.95-.153 1.395.125-.016-.211-.043-.625-.059-.836.188.074.375.148.566.23.317.137.637.274.961.402.09-.285.188-.574.282-.863.34-.09.675-.195 1.02-.305.093.215.19.434.292.653.309-.18.61-.2.895-.063l.078.024c.125.52.258 1.039.265 1.578.407-.317.914-.461 1.36-.117.078.02.238.054.316.07-.18-.34-.344-.695-.496-1.05.2-.032.598-.102.797-.134-.164-.195-.328-.39-.492-.578l-.063-.344c.434-.054.79-.277 1.032-.644.086-.016.253-.043.34-.055.359.336.617.828 1.136.946.035-.188.106-.575.137-.766.254.11.52.227.781.332.082-.133.25-.402.336-.535.211.02.426.039.64.066.18.281.376.559.579.832.453-.207.902-.449 1.414-.5.027.317.066.637.11.953.327.149.5-.191.706-.375l.262-.078c0 .348.004.696.016 1.047l.664.078c.02.157.043.313.07.469-.227.106-.453.207-.676.316-.058.47-.09.942-.058 1.414-.344.094-.715.133-.997.368.04.203.114.605.153.808-.36.446-.813.805-1.266 1.145-.008.094-.02.289-.023.383l.355-.047c.274-.285.64-.403 1.028-.446l.203-.402c.414-.098.836-.183 1.261-.246.004-.172.008-.52.008-.691.461.023.922.058 1.383.105-.117.805.61 1.29 1.328 1.316.028-.171.09-.511.121-.68.145.005.434.009.578.012.204.223.418.438.637.649-.008.105-.02.312-.027.414-.309.016-.613.023-.918.031.008.153.02.305.035.461.605-.008 1.152.246 1.437.797.243-.277.399-.726.844-.71l.508.69c.094-.296.195-.593.297-.886.25.008.5.02.754.035.004.363-.004.727-.004 1.098l.156-.012c.106.203.223.402.348.601.242-.093.504-.183.758-.27.011.114.027.34.035.45a4.93 4.93 0 00-.703 1.11c-.68.19-1.348.421-2.047.503l.047.204-.27-.075a1.577 1.577 0 01-.043.125c.43.024.863.047 1.297.09.023.387.012.774.059 1.156.312.407.875.508 1.18.918.257.45-.098.883-.22 1.305.82-.086 1.63-.246 2.422-.48.008-.164.024-.325.043-.489-.336-.496-.695-1.02-.734-1.636.25-.172.508-.352.758-.54.172 0 .351-.003.535-.003.129.289.262.578.395.87.378.005.617-.292.89-.511.41.41.621.941.512 1.523a6.24 6.24 0 01-.29.082c.595.31 1.055.793 1.192 1.47.067 0 .203-.005.274-.009.14-.48.336-.949.574-1.39.219.101.437.207.656.316.309-.101.613-.21.942-.277.335.43.003 1.14.574 1.426.234-.461.511-.899.86-1.286.257-.394.66-.437 1.093-.312.55.652.676 1.508.8 2.328l-.769.067c.094.582.543.988.832 1.476a45.2 45.2 0 001.012-.058c-.207-.247-.406-.481-.625-.711-.024-.082-.07-.243-.094-.32.328.093.656.198 1.008.238.07-.407.062-.817.086-1.227.504-.176.973-.438 1.437-.703.204.11.227.34.29.543a26.56 26.56 0 01-.715.629c.007.215.023.43.043.644-.125.188-.364.563-.485.75.645.028 1.297.047 1.945.004.008.102.016.3.024.402-.078.079-.242.227-.32.305l.109.559.246-.031-.078.359c-.57.41.05.82.3 1.219.65-.075 1.31-.032 1.966-.063.402-.41 1.02-.71 1.52-.265.105 0 .32-.008.429-.012-.102-.047-.305-.149-.406-.2.171-.296.363-.593.574-.874.207.14.41.293.605.457.016.367-.086.726-.129 1.09.434-.047.883-.063.774.515.12-.035.355-.101.476-.137-.093-.054-.28-.175-.375-.234.262-.598.774-1.02 1.258-1.43.27-.062.426.239.64.36.188.12.376.246.571.367-.453.441-.844.941-.648 1.617l-.453.168c.335.094.695.191.925-.172.133.047.274.102.418.149l-.363.3-.355-.023c.125.41.277.812.406 1.223-.215.402-.602.64-.985.851a15.4 15.4 0 00-.066.742c.313-.027.719.188.953-.109.23-.305.578-.371.938-.375.023.176.074.527.097.703.793-.066 1.578-.21 2.375-.246.399.152.746.406 1.125.61.133-.34.274-.676.407-1.016.43.125 1.101.48 1.285-.164.273.367.484.96 1.058.793.633.07.957-.508 1.043-1.051l1.153-.024c.136.454.152 1.016.648 1.258.113-.5.11-1.058.461-1.469.36.184.723.372 1.082.567-.156.39-.344.77-.496 1.164l.984-.238c-.004.507-.097 1.004-.136 1.504.273-.172.5-.399.707-.649.37.016.722.113.964.414.446.297.926.555 1.477.598-.098.644-.55 1.144-1.094 1.465-.02.093-.058.289-.082.383.422-.18.836-.372 1.266-.547.035.363.062.726.098 1.097.199.09.414.184.62.274a4.176 4.176 0 00-.257-1.278c.648-.742 1.3-1.48 1.832-2.316.11-.02.328-.059.437-.082.282.422.504.894.918 1.21.008.157.024.313.043.474-.527.398-.793 1.308-1.59 1.16-.113-.301-.183-.617-.253-.918-.602.351-.125 1.054-.114 1.578l.492.023-.015-.23c.258 0 .515 0 .785-.004.004.187.012.371.031.559-.71.039-1.664-.29-2.062.496-.39-.024-.782-.067-1.16-.098-.008.176-.02.531-.028.71l.254-.003c-.004.098-.008.3-.012.398l-.257-.003c.015.12.05.355.066.472a2.18 2.18 0 00-.152.04c.058-.65-.586-.528-1.02-.567-.031.433.16.71.57.824-.074.297-.148.59-.226.883-.227.07-.453.14-.672.219l.016.55c.437-.062.75-.359 1.039-.671l.093.804c.075.012.22.04.29.051.007-.285.019-.57.039-.855.367.02.851-.16 1.085.234.036.355-.035.707-.039 1.066a6.181 6.181 0 001.797-.11c-.008.224-.031.673-.043.9l.25.003-.05.246.171-.007c.188.347.375.691.563 1.046l-.36.188c.231.012.47.02.708.031.324-.367.902-.68 1.285-.203-.063.152-.184.453-.246.606-.16.117-.317.238-.47.359.024.152.075.46.099.617.203-.18.382-.363.59-.543.167.016.507.047.675.067-.012.453.059.91.457 1.19.078-.468-.187-.855-.379-1.253.102-.402.157-.816.25-1.219.274.051.551.106.832.16.32-.18.63-.39.95-.574.343.66.027 1.309-.325 1.875.157-.015.47-.05.625-.07-.117.273-.23.547-.324.828.45.148.934.242 1.348.484.082.942 1.332 1.32 1.035 2.332-.516.22-1.43.11-1.344.895.375.016.75.023 1.137.031.027.164.09.5.121.668.32-.039.648-.074.98-.101-.027.18-.07.53-.093.707.191.015.578.039.77.054-.016.266-.032.528-.044.797-.457.13-.926.172-1.375.309-.398.418-.238 1.09-.36 1.62-.194-.007-.382-.015-.57-.019a19.057 19.057 0 01-.507-.363c-.453.23-.965.246-1.453.274.171.656-.391 1.07-.477 1.664.367-.188.723-.407 1.125-.524-.016-.27-.105-.543-.113-.808.293.043.586.093.887.152l.046.473c-.25.082-.496.171-.742.27.29.26.586.55.863.839.305-.125.61-.293.954-.324.101.597.238 1.191.578 1.71-.137.31-.324.59-.477.887l.781.004c.04.34.082.68.13 1.02.577.039 1.062.36 1.382.836.356-.07.715-.168 1.082-.192.082.286.14.582.211.875-.039-.336-.078-.672-.113-1.007.219.007.652.015.87.02.102.394.138.804.044 1.206.242.121.484.246.726.375-.37.473-.84.856-1.242 1.3.117.102.25.212.38.317.218-.246.448-.484.687-.718.488.347.152.906.07 1.355.484.008 1.047-.125 1.383.336-.66.445-1.465.61-2.047 1.184-.23-.153-.504-.278-.79-.2a5.68 5.68 0 01-.007-.257l-.258.085-.008.36a.897.897 0 01.86.242c.363.344.875.441 1.316.648.016.23.031.461.051.692-.785.16-1.445-.512-2.25-.246l.098-.297-.254.047c-.028-.086-.09-.254-.117-.34-.036.16-.106.484-.137.644-.535.446-1.367.72-1.301 1.563.223-.004.664-.016.883-.02-.164.383-.328.762-.496 1.141.87.047 1.699.324 2.554.477-.078.39-.199.777-.332 1.156a27.81 27.81 0 00-.859.086c.023.441.055.879.137 1.312.183.246.367.489.558.735.239.093.489.199.73.308.083.242.173.485.274.727-.328.832-.476 1.715-.332 2.601-.094.13-.183.266-.273.403.094.101.273.308.367.41.117-.23.23-.465.352-.7.16-.034.476-.105.636-.136.192.746.88.547 1.465.496 0 .277.004.555.008.836-.29.031-.57.062-.856.098.032.48.008.96-.093 1.437.539-.11 1.043.027 1.422.442.546.011 1.101.03 1.656.003l-.07.301c.542-.086 1.074-.246 1.62-.328-.113.5-.312.973-.445 1.469h.293c.29.62.563 1.312 1.207 1.652-.035.242-.07.488-.097.735.062.015.183.043.246.054-.028-.265-.047-.531-.067-.793.586-.222 1.328-.593 1.848-.02-.102.516-.426.989-.32 1.536.468.082.843.383 1.187.695.356-.144.715-.277 1.074-.41.164.094.332.191.508.285.207-.125.43-.246.645-.36.25.49.308 1.032.273 1.575-.289.094-.57.188-.851.277-.012.164-.04.5-.055.664l-.285-.453c-.48-.168-.985-.308-1.485-.332.29.317.618.618.899.95-.262.289-.528.582-.735.914.22.175.442.355.66.546a15.57 15.57 0 001.329-.199c.113-.226.226-.449.343-.672.23 0 .465 0 .7.008l-.211.883c.578-.074 1.015.285 1.226.809-.93.293-1.914.078-2.843.328-.247-.102-.489-.207-.723-.309-.074.594.43.973.762 1.383a3.75 3.75 0 00-.067 1.164c-.05.078-.156.234-.21.313.34.167.679.34 1.023.5.105-.372.215-.739.332-1.102.234.172.414.48.699.59.289-.196.547-.434.816-.66.313 0 .625.007.946.015 0 .403.011.805.027 1.211a13.8 13.8 0 01.773-.254c.086.172.262.512.352.68l-.863.105-.032.313c.297.035.708-.156.938.125.422.363.906-.215 1.387-.137-.094.785.226 1.68-.285 2.36.023.125.074.378.101.507.172-.074.348-.144.531-.214.61.023 1.223.039 1.84.015.04.281.094.574.145.86.316-.137.625-.332.984-.352.305.102.594.262.89.402.036.063.11.184.145.246-.133.059-.39.176-.523.23-.688.302-1.43.411-2.172.306.266.277.61.539.625.968-.922.145-1.766.727-2.738.489.054-.27.11-.547.234-.793l-.246-.496c-.152.011-.3.027-.441.043-.164.41-.375.503-.641.28l-.234-.53c-.192.007-.375.015-.555.027.094.2.187.398.289.598.215.132.441.253.672.37-.82.395-1.125 1.255-1.723 1.891-.39-.324-.719-.71-1.074-1.066-.113-.121-.215-.242-.32-.36.035.2.066.403.101.606.399.59.95 1.113 1.102 1.84-.344-.121-.7-.262-1.035-.38.078.177.234.524.308.7.344.18.672.387 1.008.598.082.254.184.511.273.773.172-.238.356-.469.543-.699-.078-.398 0-.79.125-1.168a8.4 8.4 0 01.914.797c.243-.05.489-.102.743-.149.039.364-.07.797.215 1.094a5.65 5.65 0 01.66-.515c-.008.171-.032.515-.043.691.175-.012.527-.04.707-.05.097.206.199.413.3.624.66-.015 1.407-.199 1.88.399.331-.192.656-.395 1.035-.496.011.449-.043.894-.082 1.34l.89-.02c.004.254.016.508.031.765.133-.132.27-.265.41-.39-.273-.332-.671-.652-.363-1.11.324-.023.754-.156.942.223.285.582.32 1.25.3 1.887.274.078.551.152.836.23.004-.14.02-.414.028-.554.047 0 .148-.008.195-.012l-.062.266c.367.16.761.293 1.113.503a13.2 13.2 0 01-.082.965c.199.11.41.215.617.325.355-.446.621-.934.512-1.52a31.7 31.7 0 011.5-.05c.093.292.191.585.297.882a9.013 9.013 0 00-.66.152l.663.032c.32.398.668.773 1.04 1.132-.262-.437-.614-.804-.973-1.156.32-.246.469-.613.605-.976.536-.188 1.25-.403 1.723.043.262.273.613.382.996.41a1.97 1.97 0 00.367 1.718c-.156.372-.293.75-.425 1.13.351.035.699.077 1.058.117a30.473 30.473 0 01-.379-.961c.176-.41.317-.836.473-1.254.285.183.566.375.86.562.027.852-.247 1.7-.044 2.543.328-.187.68-.379.688-.812-.106-.11-.317-.325-.426-.434l.02-.164c.046-.098.14-.289.187-.387l-.324.04c-.016-.344 0-.68.047-1.016.246-.34.683-.309 1.054-.352.153.508.203 1.04.254 1.567-.18.003-.539.007-.718.007-.004.168-.012.493-.012.66.308 0 .62.004.937.012a11.65 11.65 0 01-.093 1.606c-.29-.008-.579-.008-.86-.012l.012.477c.164.093.488.277.648.37-.261.028-.527.051-.785.075l.016-.383c-.774-.008-1.383-.52-2.063-.77-.52.149-.687.887-.804 1.38.316-.086.613-.184.945-.262-.02.254-.031.511-.047.77a1.939 1.939 0 00-.43.671c.325.297.707.54.957.918.2.09.403.184.614.277-.04.075-.114.223-.149.297-.254.426-.078.91-.062 1.371-.114 0-.336-.011-.45-.015-.382-.29-.785-.563-1.222-.75.152.387.379.746.539 1.137-.047.27-.176.515-.262.777-.668.008-.98-.625-1.383-1.047-.043-.23-.074-.46-.101-.688l-.473-.53c-.101.093-.3.28-.402.37-.309.098-.59.243-.89.336-.325-.144-.626-.336-.934-.492-.192.59.129 1.024.66 1.242-.031.293-.074.586-.102.88.73.07.489.812.422 1.288.25.008.754.02 1.008.028-.164.168-.492.496-.656.66.332.36.722.203 1.117.043.265.164.465.406.703.62.367-.433.723-.964 1.379-.902.344-.23.734-.222 1.133-.156.336.04.601-.37.953-.262.066.141.203.422.27.567.187-.168.37-.336.57-.496.648.203 1.332.094 2.004.137.433.175.753.543 1.136.812.098-.25.203-.5.309-.75.215-.027.441-.05.668-.074.531-.504 1.137-.055 1.41.48.27.098.543.2.824.301.028.246.059.496.102.746.367 0 .738 0 1.117.016-.277.504-.523 1.05-1 1.398.027.227.059.453.098.684.34-.203.5-.563.683-.895l.684-.347c.066.132.195.402.262.535-.391.445-.493 1-.383 1.574-.223.23-.438.465-.645.703-.137.512-.344 1-.5 1.508.512.062.727-.27.828-.703.504-.008 1.149.152.961.808-.144.274-.742.516-.41.868.832-.036.95-1.407 1.871-.957-.07.324-.168.648-.27.968.04.36.048.723.055 1.09l-.539.188c-.133-.192-.265-.383-.39-.575-.133-.02-.399-.062-.532-.086-.015-.164-.046-.5-.066-.664-.172.11-.512.325-.684.43.387.418.875.758 1.176 1.254.094.344.008.703-.008 1.055-.597.05-1.097-.285-1.597-.551-.278.348-.574.672-.832 1.027-.082.367.379.7.191 1.047-.289.176-.605.3-.894.457.386.469 1.21.711.925 1.457-.222-.05-.441-.105-.652-.156-.2-.184-.395-.363-.59-.535.024.41.074.82.113 1.23-.468 0-.93-.02-1.394-.004 0 .207 0 .418.008.63.703-.016 1.215.433 1.48 1.066.074-.446.137-.89.223-1.332.55.054.879.476.992 1l.809-.063c-.227-.32-.465-.625-.664-.957.062-.43.16-.848.23-1.27.367.106.648.356.93.61.105-.238.215-.473.324-.711.094 0 .281-.004.375-.004.18.293.43.578.39.953-.085.434.325.64.583.91.261 0 .53.008.8.02-.011.379-.035.754-.043 1.137.36-.016.727-.032 1.098-.036 0 .266.004.532.016.801.07.278.12.563.168.848-.243.023-.48.047-.715.074-.184-.094-.36-.187-.543-.258a6.518 6.518 0 00-.371.59c-.086.04-.258.113-.348.153-.305-.211-.644-.36-1.016-.293l-.015.707c.222 0 .66.011.879.011.105.602-.453 1-.524 1.575.578-.395 1.227-1.207 1.961-.61a7.753 7.753 0 011.086-.43c.137.563.102 1.141-.015 1.704-.676.382-1.153-.133-1.645-.516-.016.234-.031.465-.031.703.527.184 1.043.422 1.586.598-.04.812-.907.574-1.434.62l.031-.253-.316.016a15.64 15.64 0 00-.27.5c.086.03.258.097.348.128.008-.078.031-.23.043-.304.29.035.586.074.887.11 0 .374.011.753.039 1.136a11.6 11.6 0 01.168-.3c.457-.255.91-.524 1.265-.915.211.086.43.18.645.285-.008.496-.195.961-.29 1.445h.509c0 .102 0 .305-.004.407.355.11.71.222 1.078.32.008.191.02.383.039.582-.254.008-.508.02-.754.035-.32-.293-.738-.347-1.148-.332-.758-.363-1.543-.683-2.356-.879-.183-.27-.36-.547-.539-.808-.46.433-1.086.593-1.566 1 .379.437.816.824 1.207 1.258l-.563 1.18c-.304.019-.601.027-.898.023-.324-.227-.649-.489-1.07-.41.253.109.492.187.765.273.211.3.395.613.574.937-.808-.109-1.71.305-2.449-.136-.098.281-.148.582-.238.87-.242.005-.477.009-.707.02-.465.23-.965.176-1.442.067l.11-.453.234-.704c-.703.18-1.476.235-2.008-.347-.02.156-.066.469-.09.629-.187-.031-.566-.09-.753-.117-.368.3-.7.668-.727 1.171.453-.113.856-.355 1.277-.546.055.125.16.375.215.5-.258.363-.277.793.004 1.152.004.191.012.387.024.586-.543-.207-1.047-.492-1.606-.64-.117-.231-.23-.466-.332-.692-.101-.012-.3-.031-.402-.04l-.016.54c.39.308.73.691.711 1.23-.45-.12-.953-.511-1.316-.011.132.296.3.59.39.91-.347.46-.746.875-1.101 1.328.453.18 1 .469.777 1.066-.168.383.344.446.54.649l.046.425c.219.086.437.184.656.297.028.27.04.543.04.817-.38.062-.75.09-1.087-.09a7.234 7.234 0 00-.425.203c-.024.184-.04.371-.047.559.11.015.328.035.441.046l.313-.585c.472.207.879.53 1.293.832.351.543.964.925 1.09 1.601-.528.235-1.09.246-1.606-.004a19.885 19.885 0 01-.328-1.21c-.09.3-.176.6-.254.906.105.48.121.996.344 1.449.312-.106.613-.285.953-.317.37.317.676.7 1.004 1.063-.285.45-.758.672-1.246.824.144.14.293.285.445.43.023.535-.29 1.004-.844 1.062-.57-.386-.379-1.129-.285-1.691l-.406.078c.035.64-.383 1.129-.926 1.402.027.305.059.614.039.926-.18.02-.535.063-.71.082a9.776 9.776 0 01.01-1.172 14.8 14.8 0 01-.32.102c-.003.414-.019.828-.05 1.242l-.961.063c.023-.399.086-.79.133-1.18-.008-.453.043-.906.097-1.352-.527.102-.668.672-.976 1.032-.02.316-.032.64-.047.96-.348.204-.715.375-1.082.536l-.02.312c.352.172.742.305 1.035.586.106.254.059.54.082.813-.593-.172-1.285-.473-1.421-1.145a16.45 16.45 0 00-.645.059c.27.175.535.343.824.504a3.426 3.426 0 01-.508 1.105c.399.281.844.516 1.196.863.203.352.324.75.578 1.082-.031.352-.063.707-.098 1.067a32.754 32.754 0 01-1.594-.617c0-.067 0-.196-.003-.258-.16.004-.489.023-.653.027-.96-.3-1.52-1.238-2.496-1.457l.29.215c.194.422.437.832.741 1.191.836-.078 1.395.68 1.262 1.469-.64.016-1.016-.527-1.473-.879-.5-.137-1.003-.223-1.5-.348-.27-.46-.445-1.02-.898-1.335-.098-.141-.195-.282-.281-.418.148.511.281 1.043.5 1.539-.016.14-.04.414-.051.55a11.84 11.84 0 01-1.004-.867l-.094.832c-.246-.015-.48-.027-.718-.039-.2-.426-.344-.883-.688-1.21-.012-.395-.031-.786-.039-1.177-.176.079-.344.157-.504.239l.25-.024c.05.125.156.375.207.504-.101.285-.226.559-.297.86a1.904 1.904 0 01-.554-.91 14.018 14.018 0 01-.325-.442c.008-.36.02-.71.028-1.062-.133.011-.403.039-.532.05.125.535.301 1.07.227 1.633-.195.012-.582.04-.773.055-.164-.39-.32-.781-.473-1.168.004.098.012.285.02.379-.247.379-.419.8-.563 1.226-.242-.007-.48-.011-.715-.011-.2.203-.394.41-.582.625-.172.007-.34.023-.5.043l-.035-.52c-.39-.473-.34-1.043.105-1.445-.113.011-.34.039-.453.054-.117.063-.355.18-.476.243-.098.277-.196.558-.285.843-.204-.027-.407-.05-.606-.07.09-.875.05-1.727-.32-2.531a2.9 2.9 0 01-1.442-.293c.067-.242.164-.473.25-.703-.629-.262-.953-.856-1.093-1.489l-.387.067c.035.328.062.652.086.984-.485.008-.887-.222-1.246-.52-.317.173-.64.329-.961.481l-.047-.375c-.348-.047-.692-.105-1.031-.16.062.394.343.86-.07 1.16-.727.168-.79-.937-1.536-.738.067.523.336.984.559 1.457.433.101.707.469 1.011.773.079.172.165.34.254.516-.683.184-.636.898-.62 1.465-.137.062-.41.191-.548.25.102.195.204.383.32.578.302-.102.606-.223.923-.281.547.27.39 1.03-.02 1.355-.316.543-.898.086-1.266-.133a3.45 3.45 0 01-.57.844c-.004.3-.004.61 0 .914-.46-.031-.527.512-.746.793-.43-.035-.77-.281-1.11-.516-.187.715-.456 1.41-.495 2.157-.18-.024-.54-.067-.72-.09.118.305.227.605.36.914-.367.328-.976.379-1.32-.016-.41-.265-.219-.78-.207-1.175-.29-.141-.438-.395-.516-.68-.355-.04-.707-.067-1.039-.156-.133-.47.301-.739.508-1.09-.012-.348-.043-.688-.063-1.031a8.726 8.726 0 00-.937.41c-.398-.016-.727.129-.883.515-.594.215-1.043-.261-1.527-.508a35.254 35.254 0 010-1.113c-.399-.222-.785-.457-1.188-.66-.074.258-.14.52-.203.785-.203.028-.406.047-.605.063-.278-.356-.563-.7-.93-.953.234-.614.945-.973 1.027-1.633-.32-.246-.726-.313-1.109-.352.2.227.414.45.633.668-.156.09-.469.274-.625.363.012.278.023.559.043.84-.371-.093-.742-.144-1.078-.312-.188-.266-.254-.586-.344-.887l-.281.121c-.008.328-.02.652-.024.985-.289-.06-.574-.118-.855-.18-.012-.188-.031-.563-.043-.746-.266.086-.528.18-.785.281.07.668-.48.703-.989.668.145-.387.399-.703.72-.961.07-.547.058-1.156.413-1.613.352-.156.742-.184 1.125-.262-.105-.187-.21-.375-.308-.562.445-.43 1.05-.688 1.402-1.22.113-.468-.356-.613-.652-.82-.141.586-.309 1.165-.512 1.73-.637.013-.738-.472-.664-.995-.297-.254-.555-.73-1.012-.602-.047.532.234 1.035.238 1.57.23.114.711.028.672.422-.148.461-.515.883-1.047.805-.351.098-.359-.223-.394-.469.258-.25.469-.539.683-.824-.402 0-.785.012-1.18.008-.16-.465-.316-.922-.523-1.36-.347.157-.691.32-1.039.47-.304-.141-.511-.407-.738-.63-.113-.023-.344-.07-.457-.09-.164.22-.32.446-.473.676.551.016 1.2-.105 1.657.297.175.801-.536 1.418-.91 2.055.32.027.64.059.968.09-.012.574-.148 1.152-.45 1.644-.812-.175-1.534.344-2.327.227-.164-.637.164-1.145.594-1.574-.368-.16-.543-.442-.465-.832.386.039.77.113 1.144.242.047-.27.106-.531.164-.797a35.93 35.93 0 01-.851-.297c.015-.32.039-.637.066-.95-.25-.269-.496-.534-.746-.796.004.324.02.648.043.977-.934.32-.313 1.343-.602 2.043-.402-.332-.785-.813-1.32-.415-.012.301-.02.602-.027.903-.582.148-1.047-.211-1.39-.637-.095-.008-.282-.027-.38-.031.235.406.489.808.64 1.258-.304.09-.608.172-.91.257-.265.582-.667 1.086-.98 1.645.547.184 1.114.36 1.606.688.05.32-.16.59-.29.863-.5.015-.988-.051-1.452-.215l-.028.121c.992.066 1.438 1.04 1.797 1.828-.11-.094-.328-.281-.437-.37l-.043-.09-.125-.024a2.105 2.105 0 00-.653-.438c-.37.426-.73.926-1.367.735l.031-.32c-.074.023-.218.062-.289.081.176.34.434.625.746.856.395-.34.848-.586 1.387-.45.094.266.465.844-.07.88-.45.035-.942-.106-1.317.207-.152-.024-.453-.067-.601-.09-.149.273-.293.547-.418.832.195.031.586.097.781.129-.098.289-.156.82-.566.789a12.982 12.982 0 01-.696-.196c.184.356.403.688.637 1.02.254.09.512.187.777.289.016.227.036.457.059.688-.563.152-1.016-.227-1.488-.442l-.094.84c-.285.012-.566.023-.844.031-.176-.668.164-1.23.516-1.77-.309.016-.613.028-.91.04a7.7 7.7 0 01-.22-.86c.29-.199.595-.382.9-.558a44.678 44.678 0 01-.305-.48c.09-.391.21-.778.324-1.16-.36.07-.719.144-1.074.226-.043.093-.13.277-.172.37-.36.075-.688.231-1.02.364-.25.238-.437.813-.867.621-.414-.11-.504-.578-.672-.902-.515.129-.937-.094-1.207-.535.031-.184.086-.559.113-.746-.12.007-.363.027-.484.035l.195.707c-.02.496.348.879.524 1.32.473-.02 1.297.184 1.101.82-.21.711-1.14.121-1.246-.398l-.488.016c-.137-.047-.402-.141-.535-.192l-.098-.234c-.133.344-.265.691-.387 1.047-.542-.207-1.125-.598-1.632-.098-.16.383-.121.922-.512 1.16-.41.086-.832.098-1.242.145.004-.203.015-.403.027-.594.383-.215.758-.438 1.137-.656l-.715-.383c-.012-.11-.04-.328-.05-.442.16-.226.312-.46.472-.695-.508.07-1.027.363-1.531.137-.09.164-.18.332-.262.5-.504-.578-1.156-.988-1.91-1.125-.016.676.894.851.812 1.558a2.561 2.561 0 01-1.152-.347c-.086.305-.172.617-.254.926-.637.234-.809-.567-1.398-.477-.047.379-.09.758-.125 1.145a2.863 2.863 0 01-.938-.243c.004.754-.887.727-1.148.157.011.441.07.976-.52 1.011-.082-.117-.246-.351-.332-.468-.184-.016-.55-.043-.738-.059a4.51 4.51 0 01.304-.813c-.02-.18-.039-.359-.05-.53.191.019.574.062.765.081-.164-.418-.324-.828-.488-1.238.066-.102.203-.305.27-.402-.02-.325-.094-.668.171-.914-.152-.133-.3-.258-.449-.383.07.441.156.875.203 1.32-.734-.043-1.117-.629-1.254-1.266-.015.391-.023.782-.023 1.18-.516.004-.777-.441-1.11-.75a3.938 3.938 0 01-.753.754c-.13-.484-.114-1.016-.418-1.43-.223-.3-.047-.687-.102-1.023-.16-.305-.375-.578-.515-.887-.122-.566.023-1.14.14-1.691.5 0 .856.312.875.832-.09.117-.172.238-.25.367.457.527.352 1.219.184 1.84.11.07.32.207.43.273.011-.297.035-.613-.196-.843.008-.555-.004-1.118.13-1.66.026-.38.038-.758.108-1.133.563-.227.73.296.922.699.442.234.676.66.918 1.078.606-.133.137-1.04.34-1.465.438.164.79.477 1.106.82-.184.305-.368.614-.547.926.218.121.437.246.691.309.192-.36-.11-.649-.32-.903.449-.53 1.035-.984 1.215-1.695-.504-.156-1.063-.273-1.274-.816a15.113 15.113 0 00-.59-.16c-.097-.829-1.48-.364-1.242-1.239.29-.449.781-.738 1.008-1.234-.363.027-.695.098-1.04.168-.366-.18-.76-.293-1.147-.395-.012-.265-.02-.523-.024-.78l-.457-.47c-.012-.136-.031-.41-.039-.547-.29-.113-.578-.222-.856-.332.032-.511.079-1.015.028-1.523-.274.129-.55.254-.813.39-.011-.41.004-.812.02-1.214-.313-.024-.621-.043-.926-.067.004-.879.914-.96 1.582-1.05-.008-.211-.012-.418-.012-.625-.5-.008-.992.101-1.484.03-.469-.3-.187-.91-.234-1.347-.133-.004-.395-.012-.528-.012-.207.184-.43.352-.656.516.035-.266.07-.527.117-.785.125-.04.375-.113.504-.152.277-.145.192-.528.305-.774.137-.07.41-.203.543-.273-.094-.219-.18-.438-.29-.64-.39-.028-.788.015-1.171.03 0-.5.027-.996.058-1.492l-.375.047c.004.363.004.723.016 1.09-.18-.004-.539-.008-.719-.008-.316-.441-.039-.844.22-1.207-.142-.273-.302-.559-.282-.875.183-.21.383-.414.59-.61.191.067.566-.093.625.192.21.813.933 1.371 1.082 2.203.687.106 1.054.727 1.508 1.18.222-.203.457-.399.68-.61.288-.203.577-.41.866-.617 0-.12-.007-.363-.007-.484.554-.356 1.062-.902 1.789-.695.117.539.035 1.09-.325 1.523-.02.25-.09.488-.207.711-.398.219-.671-.234-.988-.395-.02.317-.023.633-.02.954.43.093.786-.188 1.2-.207.32.086.226.566.36.824l.554.02.246.25c-.246.378-.211.816-.16 1.245.133.016.394.043.523.059-.43.105-.86.227-1.281.344.031.344.074.695.117 1.043.082.02.246.054.324.07.118-.293.243-.574.375-.855.235.273.47.562.68.867.219 0 .445 0 .676.004.012.152.043.46.055.613.273-.172.566-.336.851-.508-.004.309-.008.617-.008.93.621.36.774-.293.934-.66.2-.594.742-1.028 1.34-1.157-.028.48.289.266.476.036.246.113.5.222.739.375.007.261.007.53 0 .8-.258-.03-.504-.058-.747-.093-.156-.27-.308-.54-.449-.809-.242.547-.363 1.484-1.191 1.34-.149.101-.293.203-.438.305.008.742-1.16.898-.886 1.636.082.117.25.348.332.461.222-.262.449-.523.664-.797.11.118.222.235.344.36.003.406.003.816 0 1.23.722.399.09 1.035-.09 1.57l.464.114c.192-.403.211-1.106.786-1.125.402-.188.539.394.808.586l-.066.605c.683.375.644 1.32.695 2.012-.558-.113-1.117-.207-1.68-.219l.141-.332a4.121 4.121 0 01-.226-.117c.007.113.023.34.027.453.168.125.344.246.52.375l-.72.512c.294-.094.544-.262.81-.414.28.066.57.144.863.226.03.356.066.719.093 1.082.23.008.473.016.715.032.117.218.235.44.352.671.265-.05.53-.097.797-.168-.032-.472-.11-.945-.098-1.418-.344-.003-.676-.003-1.012-.007 0-.192.008-.38.016-.567.363-.195.722-.402 1.035-.683l-.465-.043c.024-.118.067-.352.09-.47l-1.07-.01c.441-.122 1.02-.317 1.375.081.297-.265.66-.426 1.043-.527.336-.203.699-.344 1.078-.465-.18-.418-.528-.77-.594-1.223.043-.394.227-.75.36-1.113-.278.211-.548.426-.82.637.077.37.093.824.546.941a4.754 4.754 0 01-.262.942c-.37-.254-.804-.282-1.23-.32a27.056 27.056 0 01-.348-.665c-.39.528-.871 1.098-1.601.985a22.463 22.463 0 01-.055-.868c-.207-.144-.406-.285-.61-.418.204-.32.493-.539.864-.652.047-.332-.14-.59-.328-.832-.215.43-.34 1.074-.985.832-.011-.219-.039-.648-.05-.863.218-.098.437-.195.664-.293.218-.2.44-.39.668-.582.335-.094.664-.215 1.007-.285.434.16.809.402 1.246.578-.132-.242-.273-.48-.418-.707-.02-.137-.058-.41-.074-.547.598-.441 1.29-.945 1.305-1.77-.113-.273-.293-.41-.54-.41a5.675 5.675 0 00-.359.39c.008-.21.016-.425.028-.632.086-.031.254-.101.336-.137.39-.25-.239-.761-.336-1.097.074-.196.148-.387.226-.575-.359-.632-.656-1.312-1.234-1.78a9.479 9.479 0 00-.922-1.45c.004-.395.012-.79-.012-1.18-.144-.007-.425-.011-.566-.015-.328-.278-.707-.496-1.145-.485.364-.187.52-.5.47-.941-.485-.059-.927-.246-1.352-.45-.012.188-.032.563-.043.75.765-.097.75.817.703 1.337-.274-.004-.54-.012-.805-.024a24.879 24.879 0 01-.074-.918c-.317.035-.629.074-.938.113-.035-.187-.093-.554-.128-.738-.165.133-.489.406-.657.54a7.145 7.145 0 01-.988-.891c-.188-.04-.371-.07-.55-.098.402.18.737.46 1.046.781l-.953.41.258-.273c-.156-.012-.465-.031-.621-.043.023-.277-.235-.91-.512-.457.11.379.598.535.883.805.297.507.793.914.875 1.535l-.395.031c-.113-.059-.336-.18-.449-.242-.031-.14-.098-.426-.129-.567-.476-.117-.957-.023-1.426.043-.207-.308-.523-.472-.847-.601.043-.402.113-.797.203-1.184-.172-.004-.34-.004-.5-.004-.094.125-.278.375-.371.5-.266-.039-.5-.171-.743-.265-.195.277-.39.554-.582.836-.562-.18-1.148-.313-1.625-.68l-.082-.484c-.171-.121-.34-.246-.503-.364-.387-.425-.758-.859-1.137-1.28-.07.722.562 1.194.945 1.73-.086.289-.18.574-.285.855-.715-.02-1.07.637-1.54 1.055.165.304.349.597.52.906-.265.617-.718 1.36-1.507 1.094-.106-.325-.215-.645-.305-.965.355-.453.914-.856.883-1.492.039-.57.078-1.356.851-1.352-.328-.117-.68.195-.968-.066-.188.504-.579.86-1.122.918-.039-.274-.066-.543-.085-.809.335-.195.664-.426.535-.863-.73-.613-1.688-.375-2.528-.676-.117.043-.351.133-.464.18-.204.265-.407.531-.598.804-.352.028-.703.043-1.047.07-1.238.329-2.39.891-3.59 1.325.395.238.77.531.758 1.047a14.215 14.215 0 01-.934-.102c.008.422-.234.77-.468 1.102-.172 0-.34.008-.508.012-.14-.594-.637-.899-1.113-1.2-.473.274-.954.535-1.383.868.07.277.164.55.273.82-.504.289-1.18.004-1.59.504-.418.222-.36.718-.425 1.117-1.102-.09-2.239.133-3.012.976-.172.415-.383.81-.59 1.207l-.945.036c-.801.547-1.598 1.101-2.438 1.593.375.114.758.239 1.137.36-.02.21-.04.43-.055.648-.515.317-1.058.586-1.617.813l-.145.445a39.325 39.325 0 01-1.378-.32c-.239-.383-.305-.832-.352-1.27-.395.024-.785.067-1.176.086a25.998 25.998 0 01-.383-.93l-.605.114c-.008.476.703.765.445 1.246-.375.312-.781.64-1.297.617-.12-.293-.238-.586-.355-.875l.504-.367c-.094-.313-.164-.63-.293-.922-1.192-.887-2.586-1.43-3.957-1.965-.363.152-.696.363-1.047.535l-.313-.406c.168-.25.34-.496.516-.742-.387-.223-.836-.133-1.258-.172a7.335 7.335 0 00-.68-.574c-.015.191-.05.582-.07.773-.347-.035-.683-.05-1.027-.05.008.12.015.37.023.495.465-.078.887-.3 1.32-.484.176.484.544.918.56 1.453-.352.32-.778.54-1.192.762-.117.293-.242.578-.367.867-.418-.027-.82-.238-.996-.625-.133-.644-.372-1.293-.262-1.957-.238-.16-.473-.324-.692-.488.04.066.122.203.16.27-.218.007-.437.023-.652.038l.774.114c-.016.402-.07.804-.13 1.203.036.55.157 1.105-.07 1.633-.77.257-1.574-.258-1.878-.965-.196.406-.442.797-.563 1.238.203.496.52.953.52 1.516-.09.101-.274.297-.368.398-.386.09-.812.23-.91.668-.554 1.734-1.87 3.258-1.738 5.164-1.32 1.469-2.629 2.961-4.156 4.227-.645.562-1.137 1.273-1.77 1.855-1.324 1.254-2.828 2.313-4.098 3.633-1.035.887-1.914 1.941-2.964 2.809-.434.367-.727.859-1.067 1.304-.328.985-.781 1.965-.71 3.028.066 1.43-.212 2.84-.048 4.265.067 3.156.332 6.309.793 9.434.758 2.336.602 4.828 1.106 7.21.101 1.833.633 3.598.863 5.41.152.872.531 1.786 1.188 2.395.91.329 1.761.793 2.605 1.274.988.605 2.195.05 3.258.355 1.031.348 2.129.07 3.187.235 1.926.258 3.868.164 5.778-.14 1.574.269 3.199.405 4.703 1 .324.218.785-.302 1.043.089l.258-.04c.183-.05.55-.163.734-.214l-.035.25c2.363.027 4.734-.004 7.105.05l-.05.161c.941.016 1.886.059 2.832.05l-.075.184c.875-.004 1.75.028 2.63.02l-.051.176c.8-.004 1.601.039 2.406.039l-.059.215c.38-.012.77-.008 1.156-.016l-.12.23c.46-.007.929-.003 1.394-.011l-.125.304.308-.156c-.007.317-.007.63 0 .95-.171-.02-.515-.063-.69-.087l.1.27c-.519.004-1.035.023-1.55.031l.035.23c-.18-.023-.54-.066-.719-.09l.09.243c-1.062-.086-2.105.063-3.148.203-8.551 0-17.098-.047-25.649-.039-.781.008-1.562.047-2.32-.168-8.317 0-16.637-.047-24.957-.02l.062-.183c-8.004.035-16.004-.047-24.004-.031l.055-.172c-3.3-.004-6.605-.078-9.906-.027l.09-.211c-1.184.035-2.371.011-3.555.007l-.012-.109c.278-.039.563-.074.848-.113-1.129.097-2.254.015-3.379.02l.086-.298c-.117.036-.352.11-.465.149 0-.25.004-.496.004-.738.172.015.516.05.688.066l-.098-.215c.84-.18 1.676-.383 2.523-.531.383-.14.793-.164 1.2-.184l-.063-.191c.297 0 .598.004.902.012l-.046-.196c1.437-.02 2.878-.07 4.32-.043l-.04-.172c2.15.024 4.298-.039 6.446-.039l-.023-.168c2.476.008 4.957 0 7.433-.035 2.172-.398 4.407-.101 6.606-.273.902-.547 1.996-.422 2.96-.797 1.208-.313 2.067-1.3 3.231-1.7.738-.331 1.426-.765 2.11-1.19a9.375 9.375 0 002.09-1.54c.843-.804 1.242-1.933 1.769-2.949.117-.273.3-.539.308-.844-.074-2.652-.484-5.285-.347-7.941.273-2.836.394-5.68.383-8.527-.07-2.274.105-4.59-.567-6.801-.18-1.723.114-3.496-.324-5.196-.152-.957-.66-1.82-.672-2.804-.902-2.078-2.566-3.672-4.129-5.262-.683-.691-1.273-1.539-2.199-1.918-1.562-.777-3.07-1.738-4.8-2.086-1.278-.523-2.458-1.265-3.704-1.86-1.058-.35-2.098-.773-3.183-1.023-.782-.652-1.344-1.523-1.766-2.441-.172-.36-.207-.809-.547-1.059-.234-.054-.477-.058-.71-.07l-.095.531a5.248 5.248 0 00-.75 1.051c-.441-.02-.875-.062-1.308-.082-.098.273-.086.629-.336.832-.278.043-.563.05-.836.074l.062-.422c-.32.008-.636.024-.953.024-.082-.512-.449-.828-.816-1.14l.047-.9c-.223-.07-.461-.105-.688-.144.04.317.18.594.465.77.246.46.434 1.047.121 1.527-.387.574.05 1.242-.09 1.863-.035.465-.601.516-.922.723-.199-.008-.398-.012-.597-.016a18.26 18.26 0 01-.063-.921c-.148-.301-.281-.61-.41-.915-.351-.128-.7-.261-1.05-.378-.012.128-.032.382-.04.511.399.258.813.563.778 1.098-.645.012-1.075-.711-1.746-.402.324.253.742.312 1.125.445.039.476.246.914.425 1.351-.039.122-.12.356-.16.473-.234.09-.465.18-.691.277-.114-.078-.336-.222-.446-.3-.12-.196-.234-.39-.347-.582-.317.074-.63.156-.942.238-.074-.574-.515-.918-.918-1.266-.332-.297-.05-.695.102-.992.039-.082.117-.246.156-.332-.09.016-.262.047-.347.059-.286.425-.922.687-1.2.101.032-.715.54-1.332.48-2.07-.202.023-.402.05-.597.082-.12.27-.242.543-.37.812-.298-.02-.595-.035-.892-.043.02.383.051.766.079 1.153-.274-.008-.543-.02-.809-.024-.121-.257-.238-.515-.356-.765-.187.258-.375.515-.55.785.328.55.488 1.172.625 1.797l-.18-.293c-.43-.047-.594-.48-.852-.754-.09-.238-.18-.477-.27-.711-.476-.457-.312-1.094-.21-1.66-.613.094-1.21.27-1.832.265-.262.45-.559.88-.82 1.332a29.054 29.054 0 00-1.828-.273c-.012.129-.043.39-.055.52l.7-.11c.022.395.03.79.022 1.188-.398-.11-.789-.258-1.18-.38-.222.212-.437.43-.632.661-.23.27-.469.531-.672.82.215-.18.414-.383.629-.566.719-.094 1.578.75 1.086 1.45-.063.276-.125.554-.18.835-.449-.258-.879-.559-1.375-.727-.031.48-.027.965-.039 1.45.188.062.375.129.567.199-.368.004-.735-.004-1.098-.016-.156.45-.621.91-1.047.438.219-.297.442-.598.766-.79a241.13 241.13 0 00-.356-.593c-.039-.16-.113-.48-.148-.637a9.74 9.74 0 00-.48.5l-.505.203c-.043.41-.086.825-.07 1.239.277.156.594.238.899.34l.265.601a21.96 21.96 0 00-.707.27l-.258.308c-.297.035-.593.09-.882.156.285.188.601.313.93.418-.173.782.984.875.835 1.63-.41.097-.828.027-1.238.007-.031-.066-.098-.2-.129-.265-.05.386-.11.773-.18 1.16-.246-.196-.48-.391-.71-.594a2.646 2.646 0 01-1.712-.024c-.093-.398-.218-.789-.336-1.175-.316.093-.632.199-.953.289-.289-.27-.234-.672-.265-1.024.078-.144.16-.285.242-.425-.145-.004-.438-.008-.582-.012.226-.903 1.41-.801 2.14-.992.06-.164.118-.332.168-.496-.332-.02-.66-.036-.988-.055-.199-.418-.414-.828-.594-1.258.278-.215.567-.406.86-.59.043-.281.074-.566.101-.847a10.13 10.13 0 01-1.035-.133c-.219.09-.433.18-.652.273-.074-.07-.23-.21-.305-.281.012-.234.028-.465.043-.695a6.897 6.897 0 01-.676-.356c-.043-.336-.011-.676.008-1.008-.215-.21-.437-.41-.664-.601.05.383.117.77.203 1.156-.226.11-.445.223-.668.34a6.6 6.6 0 01.469 1.918c-.375 0-.75-.02-1.125-.04.02.102.055.298.074.4-.347 0-.691.003-1.031.007-.117-.246-.234-.484-.352-.723-.257-.12-.52-.234-.738-.422-.078-.386.02-.765.106-1.136a11.408 11.408 0 01-.22-.52c-.097.403-.347.594-.76.574l-.032-.347c-.152.012-.461.043-.613.058.363.278.78.407 1.246.383-.512.574-.922 1.23-.883 2.031a2.945 2.945 0 01-.824-.261c.175-.356.273-.73.297-1.125-.086.023-.258.074-.344.097-.25.168-.48.461-.817.348-.261-.344-.378-.762-.5-1.168-.406.164-.812.352-1.109.684-.18.015-.36.03-.535.05-.156-.468-.129-.964-.211-1.445-.254-.328-.691-.305-1.055-.375 0 .324 0 .652-.004.977-.289-.164-.574-.332-.863-.496.191.46.473.89.563 1.394a4.425 4.425 0 01-1.391-.277c-.004-.348 0-.684.004-1.024-.14-.023-.426-.07-.57-.097-.196-.258-.399-.508-.598-.762-.219.012-.434.027-.645.047l.047.133.203-.063c.153.242.317.485.485.719-.008.113-.02.34-.024.45-.27-.005-.535-.009-.8-.02.003-.317.015-.633.023-.942-.652-.246.043-1.105-.504-1.398-1.738-.434-3.488-.766-5.21-1.25-.388-.156-.782.011-1.153.113-.875-.453-1.606-1.137-2.48-1.586-1.454-.574-2.958-.996-4.462-1.402-.832-.09-1.675-.524-2.504-.23-1.136-.731-2.16-1.766-3.515-2.06-.285.184-.563.38-.863.54a6.479 6.479 0 00-.29-.828c-.402-.266-.921-.188-1.375-.227.11.336.25.664.34 1.008-.425.375-1.066.535-1.5.086-.187.129-.375.258-.558.39-.305.008-.61.012-.914.024-.075.148-.223.445-.297.598.347.386.738.757.887 1.28-.426.5-.942.915-1.54 1.196.024.27.047.543.067.82l-.715-.015c0 .39-.02.793-.227 1.144-.289-.168-.62-.273-.824-.547.004-.394.207-.742.317-1.109.12-.258.254-.508.386-.754-.183.172-.363.352-.547.527-.285.297-.554.61-.82.926-.187 0-.37 0-.555.008l-.312-.555c.348-.52 1.262-.722.91-1.496l-.48.012c0 .34.007.68.007 1.027l-.636-.03c-.028-.29-.043-.575-.051-.86-.063.011-.191.039-.254.05-.144.157-.289.313-.43.473-.035.27-.074.54-.113.809-1.078-.07-1.605-1.192-2.328-1.856-.004.293 0 .586.008.88-.227.32-.453.636-.676.96a32.458 32.458 0 00-.574-.066c-.34-.645-.344-1.36.015-1.996-.515.23-1.046.476-1.625.347.004-.3-.066-.71.325-.785.734-.152 1.398-.476 2.05-.836.125-.504.16-1.02-.109-1.488-.324-.621-.215-1.324-.266-1.992-.668-.059-.37.668-.5 1.043-.816.293-1.195-.575-1.742-.973-.691-.055-1.074.61-1.5 1.035-.512.504-.758 1.238-1.355 1.653-.602.406-1.004 1.054-1.676 1.367-.52.226-.707.816-1.168 1.11-.574.222-1.2.015-1.793.062-.934.046-1.875.168-2.766.457.067.312.16.62.274.922-.133.257-.258.515-.38.773-.91.187-1.855.25-2.726.602-.21.316-.457.625-.828.753-.363.239-.699-.168-1-.312-.426.312-.941.246-1.426.172-.05-.305-.097-.613-.14-.914-.027.168-.05.34-.074.511-.293.329-.66.563-1.118.532-.144-.758.758-1.63-.078-2.203-.078-.602.782-.778.594-1.368-.555-.359-1.21-.086-1.816-.105-.164-.758.582-1.129.949-1.664-.363-.035-.727-.027-1.086-.094a3.519 3.519 0 01-.313-.777c.282-.16.559-.324.84-.485.453.356.88.743 1.309 1.13.144-.5.297-1 .406-1.509.176-.12.352-.238.531-.351-.023-.32-.039-.637-.046-.953.109 0 .332.004.445.004.02.629-.098 1.48.746 1.586-.004.28-.36.617-.176.87.488.2 1.02.063 1.516-.034.234-.504-.332-.668-.617-.934-.329-.238-.375-.672-.489-1.027.235-.168.75-.176.59-.586-.418-.461-1.035-.352-1.586-.313.055-.785.774-1.265 1.367-1.656-.14-.102-.277-.203-.414-.3-.504.284-.879.726-1.02 1.296a1.35 1.35 0 01-.905-.707c-.2.121-.399.242-.594.367.097.238.199.473.308.711-.77.414-1.238 1.457-2.218 1.371-.348-.601-.809-1.156-1.465-1.43.082-.355.172-.71.25-1.062-.617.652-1.45.992-2.344 1.027-.191-.164-.39-.32-.59-.468l-.05.402c-.61-.098-1.231-.066-1.84.016-.086.343-.196.675-.29 1.02.079.339.305.663.223 1.03-.578.387-1.316.34-1.926.66.036.075.106.227.141.305.262.266.77.465.703.918-.254.324-.55.613-.8.942-.473-.036-.934-.149-1.395-.243-.004-.32.008-.632.031-.945-.11-.101-.223-.2-.332-.293l-.074.266-.871-.13c-.063-.362.043-.702.226-1.01.453-.009.91-.013 1.367.015-.085.207-.257.625-.34.832.329-.078 1.087.183 1.079-.317-.11-.484-.57-.757-.864-1.128a12.27 12.27 0 01-1.074.57c.043-.36.114-.719.125-1.078-.55-.293-1.144-1.157-1.742-.457.133.097.402.297.535.398l.067.27c-.11.011-.329.039-.438.054.016-.12.04-.367.05-.488-.39.027-.776.059-1.163.066.094-.347.219-.687.316-1.027a8.366 8.366 0 00-.703-.402c-.015-.719.215-1.399.406-2.078.012-.446.004-.891.008-1.332.313-.047.625-.098.938-.149-.27-.45-.621-.863-.72-1.39l-.39-.118c-.21-.64.024-1.226.348-1.773-.336-.113-.668-.227-1-.336a5.837 5.837 0 01-.195-1.215l-.528-.062c.032-.254.07-.5.121-.746a46.413 46.413 0 01-.78-.31c.202-.476.593-.784 1.081-.944-.476-.618-1.176-.954-1.844-1.313-.011.195-.039.586-.05.785-.391-.02-.79-.031-1.18-.039-.27-.765.25-1.422.437-2.133-.148.02-.449.055-.597.07-.13.497-.367.946-.781 1.266-.27-.007-.54-.015-.809-.03v-.735c.36-.258.691-.551.926-.93-.278-.027-.551-.047-.828-.055-.211.344-.422.692-.649 1.024.047.254.09.512.13.765-.438.293-.829.684-1.349.829a8.19 8.19 0 00-.75-.356c-.011.117-.03.344-.043.457.122.027.36.082.477.113.137.16.254.582.555.403l.172-.051c.066.266.109.527.156.8-.133-.027-.395-.085-.527-.113l-.067-.117c-.09-.086-.266-.261-.355-.347l.07.351c-.656.145-1.574.285-1.414 1.207.144-.008.437-.02.586-.027-.031-.547.394-.461.765-.406.028.195.059.39.086.59-.203.007-.613.027-.82.035l.375.546c-.031.125-.086.383-.11.508-.273-.082-.542-.164-.816-.242-.09-.383-.175-.766-.27-1.144a4.188 4.188 0 00-.741.324c.199-.215.398-.43.585-.649l-.671.047c.02-.117.054-.355.07-.472-.098-.004-.293-.008-.39-.012-.34.515-.84.933-1.497.86a45.38 45.38 0 01-.117-.716c.352-.203.574-.504.484-.93-.277.2-.43.5-.504.829-.078-.008-.234-.024-.312-.028l-.297.356a1.984 1.984 0 00-1.508 1.133c-.187.082-.375.168-.558.258-.055-.149-.164-.442-.215-.586.058-.168.117-.332.18-.493-.094.012-.278.04-.372.051-.125.356-.25.711-.37 1.07-.641-.273-.813-.94-.997-1.542.082-.059.242-.176.32-.235-.203-.015-.605-.039-.808-.055.137-.316.277-.62.45-.917-.087-.23-.165-.457-.24-.684.298-.086.59-.172.888-.254-.387-1.21 1.105-1.422 1.511-2.258-.43-.012-.836.098-1.175.36-.133-.016-.407-.04-.543-.055-.215-.285-.473-.578-.325-.957.27-.133.555-.23.836-.34-.187-.281-.582-.527-.472-.914.367-.465.754-.922.914-1.508-.399-.008-.77.09-1.063.371.063-.133.192-.402.254-.535-.195-.004-.59-.016-.785-.023l.14.687-.59-.015c.165-.297.333-.606.505-.891-.485.031-.973.129-1.457.05.3-.32.699-.515 1.074-.726-.793-.476-1.715-.476-2.606-.558l-.004.628a22.8 22.8 0 00-.722.09c.047-.183.133-.55.176-.73h-.266l-.031-.406.23.062c.082-.266.164-.535.238-.797-.394-.058-.785-.144-1.14-.34l-.047-.597c.438-.063.875-.133 1.309-.215.273.148.53.328.816.46.484-.038.973-.062 1.457-.034.125-.567.137-1.145.117-1.72.047.005.137.017.18.02.059-.625.574-.949 1.164-.988a3.923 3.923 0 00-.324-.883c.168-.27.332-.539.504-.8l-.301.07c.012-.348.031-.695.058-1.035.282-.02.567-.032.856-.047a9.548 9.548 0 01-.016-.473c-.355-.363-.437-1.043.227-1.105.043-.399.039-.825.254-1.176.297-.367.691-.64 1.05-.938.047-.5.047-1.011-.542-1.14-.196-.024-.582-.07-.778-.09.254-.645.875-1.004 1.285-1.531.008-.137.024-.414.028-.551.312-.461.66-.89.941-1.371.586-.067.91.375 1.055.887.375.265.773.515 1.238.597a22.76 22.76 0 00-.023-.515c-.207-.13-.418-.25-.625-.375a12.576 12.576 0 01-.067-.848c.547-.121.996.652 1.446.105.207-.035.41-.07.617-.097.148-.184.3-.356.457-.528.558.348.863.985 1.187 1.543.278-.129.559-.25.84-.37.004-.278.004-.552.008-.821.23.066.465.133.695.207.078-.094.239-.273.317-.367l.699-.078c-.313-.356-.586-.75-.48-1.246.351 0 .706.011 1.058.023.344.332.508.758.527 1.234.153.012.309.024.465.04.395-.88 1.586-.422 2.328-.294.211.043.641.125.856.168l-.137-.625c.606-.222.754-1.21 1.54-.96.382.335.163.878.179 1.324l.445.031c.082-.297.172-.586.258-.879.2.004.59.004.789.008.012.262.027.527.043.797.234.004.465.02.7.047.054.27.105.546.152.828.25 0 .5 0 .753.004-.039-.328-.082-.653-.117-.98.508-.157.942.237 1.395.402.125-.223.254-.438.387-.657.484-.011.945-.133 1.398-.293.406.055.809.39 1.21.137.25-.3.438-.648.65-.977-.208.012-.626.032-.837.04.235-.5.329-.985.02-1.47.18-.515.535-.96.594-1.519-.32-.066-.739.028-.918-.324-.07-.36.11-.695.207-1.02-.348-.093-.7-.18-1.051-.261l-.016-.707c.188-.117.375-.239.57-.352.079-.234.16-.469.247-.699-.54-.695-.52-1.531-.41-2.356-.118-.12-.352-.367-.47-.488-.026-.597.52-.953.845-1.383.011-.312.03-.617.054-.925.325.129.653.257.98.39-.034-.566-.265-1.039-.632-1.453.086-.57.344-1.11.375-1.7-.316-.198-.629-.413-.938-.632-.308.152-.617.313-.925.48-.102.012-.317.047-.422.063.156-.586-.024-1.152-.2-1.71a29.5 29.5 0 011.176-.013c.227-.32.426-.664.375-1.074.133.078.403.235.54.313.019-.317.042-.633.066-.946a13.5 13.5 0 01.972-.043c.223.286.454.567.692.844l.281-.789c.445-.387.781.063 1.16.23.336-.16.625-.421 1.016-.476-.555.023-1.106.027-1.656-.008l.14-.273c-.425-.227-.84-.485-1.3-.633-.602-.254-1.262-.05-1.891-.14a32.013 32.013 0 01-.059-.833c.32-.023.64-.043.965-.058-.035-.07-.101-.215-.137-.29-.308-.296-.925-.57-.546-1.066.386-.09.785-.125 1.18-.176.09.258.179.516.273.778.312-.024.62-.051.937-.067.172.25.348.5.531.746l.032.579c.125-.012.375-.032.5-.04-.078-.304-.196-.593-.489-.742.168-.507.16-1.035.16-1.562.325-.09.645-.176.97-.25.226.308.378.707.718.922.336.152.402-.364.574-.532.489-.039.848.27 1.188.575.27.058.531.136.793.234l.37.012c-.152-.153-.304-.301-.452-.446-.32-.359-.664-.699-.97-1.066l.704-.297c-.234-.285-.508-.531-.726-.824-.032-.352.394-.508.574-.758a9.31 9.31 0 01.875.031c.043.403.203.743.488 1.024.047-.473.14-.922.352-1.348.402.301.75.668 1.105 1.024.277-.207.55-.426.805-.664.425-.223.828-.532 1.324-.575.164.254.332.516.504.77.015.152.043.457.055.61.19-.009.574-.032.765-.044l.34-.75c.129-.039.387-.125.516-.164-.243-.531-.704-.988-.614-1.617.977-.023 1.188 1.113 1.973 1.465a30.172 30.172 0 00-.102-1.04c.473-.124.95-.01 1.368.231-.2.582-.41 1.176-.387 1.805.043-.07.137-.211.18-.277.48-.036.957-.059 1.437-.063.172.2.336.406.492.621-.082.25-.242.485-.261.758.253-.016.347-.285.535-.41.285-.332.945.156 1.133-.293l.058-.578c.402.09.8.176 1.2.285.312-.137.628-.262.949-.375l.03.492c.196-.043.391-.09.583-.14-.02-.188-.063-.375-.102-.56l-.703.095c-.023-.375-.242-.684-.496-.946.098-.336.246-.656.3-1.004-.35.008-.878-.23-1.062.196-.02.433-.011.87-.054 1.308l-.641-.28c.094-.274.191-.54.281-.81l-.605-.093c-.418-.176-.848-.309-1.27-.465.305-.426.805-.414 1.274-.422-.176-.559-.317-1.27.504-1.387.074.22.164.438.246.66.183-.027.55-.09.738-.12-.332-.294-1.238-.473-.832-1.063.078-.063.234-.192.312-.258-.02-.101-.066-.312-.09-.414-.03.086-.09.25-.117.336l-.14.016c-.555.539-1.11 1.117-1.899 1.296-.113.211-.234.418-.363.625-.465.02-.805-.363-1.176-.593-.007-.203-.03-.602-.043-.805-.363.375-.75.723-1.195.996-.172-.176-.344-.351-.512-.527.078-.18.23-.54.305-.719-.2-.012-.602-.035-.8-.05.007-.204.019-.407.034-.61.149-.11.442-.324.586-.434-.617-.457-1.46-.117-1.691.582-.121-.023-.356-.066-.477-.09.059-.039.172-.109.23-.144.079-.563 1.02-.367.794-1.067l-.156-.117c-.86-.293-1.739.235-2.61.04l.555-.176.027-.348c-.316-.078-.637-.16-.949-.246l.152-.621c.328-.067.657-.133.989-.196.082-.25.168-.503.253-.753.422.128.848.277 1.2.55.312.36.23.871.41 1.29.465.3.156-.497.273-.731.114-.371.407-.656.621-.969a41.86 41.86 0 01-.043-.676l.57-.046c.25-.301.512-.59.805-.852.164.078.489.234.657.312.004.125.011.254.02.387.175-.445.593-.695.933-.996l.707.074c.015-.12.05-.363.07-.48-.543.082-1.105.176-1.617-.074.008-.36.242-.66.242-1.016a23.37 23.37 0 00-.808-1.875c-.239.105-.457.227-.696.324a21.494 21.494 0 00-.765-.566 35.412 35.412 0 00-.356-.66c-.172.074-.527.23-.703.304.16-.168.32-.343.484-.507l-.527-.61-.016-.379c.094-.086.274-.262.368-.351.03-.356.066-.707.101-1.063.438-.05.766-.332 1.117-.566.434.246.84.539 1.282.77-.141.452-.301.902-.493 1.335.063.082.188.246.247.328.074-.02.222-.058.3-.074.032-.234.067-.465.102-.691.437-.508.133-1.164-.086-1.696-.242-.132-.531-.207-.707-.437.094-.332.238-.649.363-.969.203-.129.414-.25.63-.367l.015-.309c-.082.032-.246.086-.328.118-.395.437-.973.691-1.532.402l-.468.156c-.09.098-.274.29-.364.387a1.01 1.01 0 01.352-.719c-.016-.59-.555-.68-1.008-.816.203-.446.473-.852.777-1.227.22.125.442.254.66.383.083.016.243.047.325.059.082-.305.183-.61.281-.91-.047.078-.144.234-.191.316-.88-.067-1.621-.54-2.414-.867-.247-.043-.176-.336-.25-.504.328-.168.628-.38.918-.606.554.176.894.672 1.152 1.164.2-.484.508-.898.832-1.3-.59-.329-1.227-.543-1.844-.786l-.172-.406-.144.035c0-.101-.004-.3-.004-.398l.238.047a38.522 38.522 0 01-.035-.95c.613.024 1.234.04 1.805.286.203-.157.406-.305.609-.457.094.457.332.757.856.605-.297-.445-.606-.883-.786-1.39-.324-.172-.726-.27-.87-.641-.266-.512-.7-.871-1.27-.988-.047-.422 0-1.036.554-1.024.61.266 1.317.418 1.747.965-.2.148-.403.297-.606.441.473-.109 1-.105 1.414-.398-.16-.543-1.004-.524-1.004-1.121.153-.434.418-.817.606-1.238.394.023.668.296.941.55.39-.375.738-.828 1.29-.96.089.085.276.257.374.343.258-.023.524-.172.781-.078.282.184.532.453.899.434.039-.383-.121-.7-.395-.95.168-.152.317-.328.469-.492.008-.164.02-.496.027-.66.54.203 1.004.547 1.5.836.012-.172.043-.512.059-.684.137-.168.281-.332.426-.496-.012-.406-.031-.804-.043-1.207.11-.015.332-.039.441-.05.02.136.051.406.07.542l.434-.058c.207-.5.602-.883.945-1.293.258.207.508.43.754.66.07-.008.215-.02.285-.023.079-.332.172-.657.274-.98.289-.09.57-.18.86-.274.288.246.527.539.741.851.497.02.985.028 1.485.04-.367-.337-.723-.684-1.086-1.028.133-.23.27-.457.41-.688-.172-.398-.351-.792-.496-1.199.418-.199.824-.41 1.238-.617.203-.285.406-.566.61-.851.433.164.84.398 1.195.695.082.02.238.05.316.07.145-.375.266-.789.653-.98.18-.258.36-.52.554-.766-.379-.71-1.004-1.266-1.808-1.426.015-.246.035-.492.058-.734.34.07.688.14 1.036.207.074-.469.41-1.012.03-1.434-.085-.574.173-1.57.934-1.394.47-.082.438.484.582.781-.336.098-.472.348-.43.676.044-.078.137-.223.18-.297.422-.04.829-.156 1.211-.336.477-.262 1.02-.066 1.532-.047.101-.254.203-.504.308-.758.203.02.406.047.61.086.242.235.101.61.152.91-.05.532.316.985.316 1.504-.187.473-.402.938-.55 1.426l-.383-.008c.265.676 1.004.93 1.515 1.38.246-.598-.34-.864-.636-1.259.09-.351.238-.687.398-1.011.18-.008.543-.016.723-.024a9.89 9.89 0 00-.133-.297c-.29-.254-.469-.582-.445-.972.43-.043.859-.059 1.289-.063.05.246.105.496.16.746h.605c-.472-.62-.5-1.683.301-2.047.223-.234.45-.464.688-.691a7.342 7.342 0 01-.438-1.094c.379-.008.758-.008 1.14-.015.048-.598-.011-1.25.36-1.766.238-.352.305-.766.332-1.184.469-.156.93-.34 1.379-.546-.184-.176-.363-.344-.54-.516.61-.277 1.114-.848 1.837-.77.004.286.008.57.015.856.11.074.329.223.434.297.094.242.188.48.281.726.391-.816 1.328-1.683 2.282-1.382.16.457-.297 1.214.398 1.347.023-.39.098-.773.277-1.12l.965-.08c-.293-.304-.68-.448-1.043-.628.082-.516.114-1.047-.144-1.52a4.889 4.889 0 011.172-.644l.296.344-.02.215c.169-.02.505-.055.677-.075.004.602.039 1.203.07 1.805.07.383.184.79.082 1.176-.246.46-.574.875-.75 1.37.461.028.797-.292 1.172-.491.223.242.418.504.617.761-.156.082-.476.247-.637.329.032.086.086.257.114.343.172.04.347.082.52.125.155-.351.495-.625.57-1.004-.293-.41-.637-.78-.961-1.164.304-.082.609-.164.918-.25l.199-.707c.144-.011.433-.03.578-.039a6.457 6.457 0 011.066-.172c-.297.774-.773 1.457-1.25 2.13.301.183.61.366.918.542-.07-.074-.21-.23-.281-.308.094-.301.2-.602.3-.899.216.016.645.043.86.063-.02-.27-.031-.535-.05-.801.382-.121.765-.25 1.14-.39.578.261 1.004-.247 1.418-.56 0-.406.004-.808.023-1.21.606-.196 1.395-.45 1.817.219.074.003.223.007.293.011-.371-.605-.488-1.308-.14-1.957a12.711 12.711 0 01-.872-.054c-.207-.45.371-.524.633-.665-.02-.289-.04-.574-.055-.855.246-.066.399-.262.524-.457l-.684-.207c.008-.184.024-.547.035-.73.512-.02 1.055.007 1.508-.29-.234-.207-.469-.41-.703-.617-.004-.125-.004-.375-.004-.496.285-.324.559-.648.844-.969.582.012 1.164.024 1.742-.043.023-.71-.379-1.296-.754-1.859.426-.336.95-.262 1.445-.184.336.008.664.075.993.157l.003.21c.122-.015.368-.054.489-.07-.063-.023-.192-.074-.258-.097-.059-.391-.152-.778-.234-1.16.27 0 .543 0 .82.003.008-.156.035-.468.047-.625.738.04 1.453.262 2.195.278-.176-.739-.871-1.574-.355-2.301l.058-.5.781.05c-.027-.523-.39-.812-.82-1.023-.09-.566.383-.898.754-1.238.215.246.441.492.668.734l.309-.293.035-.78c.133-.005.398-.009.527-.013.156-.222.277-.523.59-.55.207.18.387.394.57.601-.008.32-.02.645-.027.969-.41.04-.817.074-1.223.098-.008.09-.015.277-.02.367.372.328.696.84 1.266.683.032-.285.055-.57.078-.855.157-.41.313-.82.473-1.23.512.261.594.773.574 1.308-.21.39-.199.84-.195 1.27.098-.29.207-.575.332-.852-.004-.156-.012-.469-.012-.625l.434.078c.094-.258.195-.512.297-.765.242-.13.43-.32.574-.555-.297.023-.59.055-.879.094.024-.418.05-.836.094-1.246l.723-.278.472.219c.14.289.274.59.445.863.27.024.543.016.817-.012.348.329.726.66 1.226.696.09-1.2-1.98-.617-1.8-1.805.562-.156 1.105.164 1.66.242.015-.23.035-.457.055-.683l-.524.199c-.129-.04-.39-.117-.52-.16.043-.746-.851-1.082-.773-1.832.367-.098.715-.281 1.09-.364.18.493.351.985.629 1.434.09-.406.203-.809.344-1.2.64-.124 1.015.462 1.507.763l-.257.89c.425-.3.824-.687 1.355-.8.211.265.348.624.68.777.183-.395.379-.79.738-1.063-.023-.36-.047-.715-.055-1.074.211-.168.418-.336.621-.508.149-.035.305-.062.461-.09.036.32.075.641.118.961.304-.16.613-.32.925-.476.23.281.45.574.66.875.016.148.055.437.07.586.071-.004.216-.004.286-.004a7.23 7.23 0 01.578-1.137c.145.055.434.152.578.203.098-.75.692-1.297 1.371-1.558 0 .507-.05 1.015-.132 1.52.503-.142.882-.056.812.608.371-.257.746-.511 1.145-.718.265.55.449 1.14.566 1.742.226.078.453.152.68.226.191.305.129 1.16.722.801.024-.43-.191-.812-.293-1.215.145-.003.434-.02.575-.023-.16-.348-.305-.7-.336-1.086.472-.023.941.05 1.418.106-.055-.41-.106-.817-.141-1.223.309.066.762-.07.926.297.402.629.363 1.734 1.304 1.84.04-.368.04-.739 0-1.106-.203-.101-.41-.2-.609-.3-.094-.466-.277-.91-.348-1.38.102-.328.528-.414.762-.636-.18-.223-.36-.438-.539-.653.227-.41.578-.71.969-.964.133-.004.406-.008.539-.012l.574-.613c.117-.024.348-.067.465-.09.25.32.504.644.695 1.007.067.422-.297.747-.433 1.118.359.363.75.742.718 1.304-.265.118-.527.239-.789.36-.11.414-.25.816-.402 1.219.187-.024.559-.067.742-.086-.004.378-.012.761-.008 1.144.137-.004.41-.02.547-.031a6.31 6.31 0 01.375-1.582c.34-.254.586-.805 1.074-.735.27.391.422.942.895 1.137.371-.066.668-.32.98-.504.004-.277-.023-.55-.039-.824.258-.39.653-.55 1.11-.496-.078.348-.18.691-.274 1.035.399.086.797.18 1.2.274a29.67 29.67 0 00-.692-.247c.442-.632.813-1.644 1.758-1.55.289.316.55.664.844.984.082-.098.246-.289.328-.383-.117-.703-.461-1.355-.516-2.074.813.117 1.574.438 2.383.559.012.25.027.496.043.746.25.234.512.468.77.703.207-.59.527-1.145.59-1.778.593-.332.949.235 1.1.723.306-.086.614-.176.927-.258.007-.148.023-.433.027-.578.164-.004.488-.02.648-.027l-.316-.832a6.29 6.29 0 01-.09-.457c.106.004.324.004.434.008l-.047-.422c.113-.004.344-.008.457-.016.172.145.344.29.52.434h.488c0 .566.304 1.207-.176 1.672-.336.289-.07.668.023 1.007.356-.117.707-.25 1.059-.382.023-.223.047-.442.074-.657.594-.25.516-.98.828-1.453.371-.265.836-.355 1.258-.512 0 .707.09 1.407.211 2.106l.871-.188c-.21.403-.469.774-.726 1.145.332.473.601.984.992 1.414.422-.375.703-1.043 1.363-1.016.074.122.223.364.297.489.922-.164 1.766.386 2.25 1.14.52-.058.602-.62.816-1 .446.04 1.164.172 1.047.785-.21.551-.668 1.004-1.246 1.157l.688.078c.097.273.191.547.316.812.484.13.988.028 1.484-.011-.003-.153-.003-.457-.007-.61.285-.09.597-.304.906-.144.183.23.336.492.496.746.324.047.645.082.98.117-.007.355-.023.71-.027 1.07.664-.293 1.367-1 2.129-.543-.008.176-.023.352-.039.532-.383.304-.73.652-1.066 1.007l.015.309c.41.281.395.758.422 1.207h1.047l.309.621c.105-.02.308-.05.414-.066a4.476 4.476 0 00-1.145-1.39c.02-.157.063-.47.086-.622.297-.078.598-.082.902-.02.352.235.422.68.645 1.016.488.195.832-.277 1.215-.488-.114-.332-.211-.664-.301-1 .324-.02.656-.024.984-.012.274.356.653.606 1.075.758.41.683.984 1.27 1.816 1.363l-.098-.445.301.027c.016-.285.031-.566.05-.847l.54-.063-.344-.184c-.012-.468-.09-1.07.54-1.144.23.242.308.875.757.762.07-.121.219-.368.29-.489.085.004.253.012.339.02.004-.027.008-.082.016-.11a5.315 5.315 0 01-1.817-.343c.012-.856.5-1.535 1.125-2.07.106 0 .32-.004.43-.004l.058.441c.407-.29.72-.832 1.293-.719.227.422.52.797.79 1.196.054-.457.128-.915.207-1.368l.402.051c.172.117.348.23.527.344l.672-.004c.602.504.844 1.379 1.633 1.672-.078-.29-.156-.578-.223-.867.664-.211 1.578-.344 1.781-1.133.18-.262.391-.504.672-.656.29.05.582.101.875.16.387-.184.73-.446 1.082-.688-.355-.273-1.039-.363-1.039-.902-.09-.363.301-.418.532-.567.27.293.543.583.832.86.136-.977-.735-1.656-.965-2.559-.469.098-.938.223-1.41.278.03-.41-.118-.942.336-1.172.386-.25.71-.781 1.238-.598-.363-.094-.809-.203-.922-.61-.137-.378.254-.593.473-.831.187-.004.562-.004.75-.008.386.262.75.558 1.148.812.129-.656-.156-1.257-.398-1.843a12.329 12.329 0 01-.106-.922c.258-.024.52-.043.785-.063.438-.207.907-.36 1.313-.633.426.235.746.598 1.062.957.266-.289.532-.578.801-.867.25-.043.504-.086.762-.12.023-.247.047-.49.074-.735.68-.262 1.14.262 1.59.691.058-.137.18-.41.238-.547l.531-.047c.391-.25.848-.183 1.29-.136l-.055-.266c.37.004.738.078 1.078.25-.012-.308-.016-.621-.02-.93.227.036.461.07.696.114.32.492.945.355 1.398.633.352.144.61.433.887.683-.008-.41-.028-.82-.04-1.23m8.302 3.39c.386.442.832.938 1.484.809.207.101.414.2.633.289a12.062 12.062 0 01-.414-.613 6.369 6.369 0 01-1.325-.762c.145-.223.364-.414.41-.688-.296.286-.835.473-.788.965m18.617 4.282c.082.476.277.925.293 1.414a1.856 1.856 0 01-.914-.028c.054.39.101.785.14 1.18.656.004.793-.777 1.313-1.055.363-.273-.11-.633-.246-.879-.293-.214.109-.472.172-.703l-.758.07m-115.953 9.376c-.055.496-.106 1.015-.461 1.398.043.137.086.277.136.414l.043-.348.118-.062c.171-.164.351-.328.53-.492-.003-.317-.015-.63-.023-.946l-.343.036m157.5 11.308c0 .211 0 .422.003.629l.442.016c-.008-.23-.008-.457-.008-.684l-.437.04m9.859 9.948c-.004.461-.004.926 0 1.387.07-.02.215-.055.289-.074.047-.27.082-.543.164-.805l.824-.234c-.152-.703-.8-.36-1.277-.274m-201.273 1.864l-.22-.079c.04.344.083.696.141 1.04.141-.395.102-.899.516-1.122.523-.382.691.497 1.055.75l.312-.218c-.054-.309.043-.762-.336-.899-.531.028-1.3-.168-1.468.528m201.875 2.812a26.747 26.747 0 00-.922-.41c.03.309.078.613.125.918l.468.012c.102-.559.633-.5 1.082-.485.188.246.352.457.747.235.015.078.046.234.058.312.129-.234.293-.437.504-.613.012-.078.027-.23.04-.309-.286.211-.599.41-.888.602-.273-.317-.546-.625-.812-.945-.25.144-.371.398-.402.683m-.532 1.547c-.05.273-.105.547-.148.82a52.953 52.953 0 00-.781-.082l-.016.434c.098-.012.293-.031.387-.043l-.047-.348c.328.074.664.145 1 .215-.121-.336-.266-.664-.395-.996m-5.539 2.14c.25.051.508.106.77.153-.012-.164-.031-.492-.047-.656a4.97 4.97 0 00-.723.504m-105.91 7.593c-.023.172-.047.348-.062.524.402.262.78.629 1.308.586a8.842 8.842 0 00-.61-.602c-.01-.133-.042-.402-.054-.535-.195.008-.39.016-.582.027m-5.348 14.508l.028.52c.433-.063.68-.407.886-.758-.308.066-.613.152-.914.238m129.485 3.758l-.02.688c.38.23.797.367 1.25.34-.12-.305-.25-.606-.379-.9-.21-.03-.636-.093-.851-.128m-173.336 2.14l.047.434c.144.309.285.63.418.953.101-.027.316-.082.418-.105.004-.418-.192-.781-.352-1.152-.18-.043-.355-.086-.531-.13m-1.352.727c.016.195.032.395.051.598l.422-.031c.027-.196.055-.391.086-.582l-.559.015m27.016.496c.016.598.226 1.262.824 1.508l.184.215c-.004-.102-.008-.3-.008-.399-.242-.539-.2-1.125-.192-1.695-.308.043-.714-.02-.808.371m4.719-.3c.035.636.074 1.3-.25 1.878-.168.207-.328.422-.489.641.164.113.344.234.516.34.23-.41.656-.59 1.055-.781.011-.707.101-1.438-.266-2.082-.187 0-.379 0-.566.003m64.988-.25c.027.368-.137.829.203 1.102.246.176.563.2.856.281.07.344.144.696.21 1.047l.207-.055c-.019.38-.046.754-.027 1.137.738.149.621-.719.664-1.164l.238.098-.035-.2c.137-.066.403-.199.536-.265.363.086.714.164 1.085.234.047-.8-.75-1.316-1.472-1.316.02-.164.054-.496.074-.664-.11-.008-.328-.02-.438-.031a6.27 6.27 0 01-.238 1.144c-.285-.773-1.066-1.277-1.863-1.348m77.539.473c-.098.469.328.777.547 1.137.18-.113.363-.227.55-.34 0-.105.008-.312.008-.418-.156.031-.476.094-.632.129-.004-.137-.008-.41-.008-.543l-.465.035m-103.676 2.094l.078.558c-.636.22-.632.97-.902 1.485l.184-.235c.574-.312 1.097-.714 1.703-.988 0-.156.008-.308.02-.46-.31-.02-.618-.036-.919-.06a7.383 7.383 0 01-.164-.3m-123.48.777l-.031.48c.367-.124.722-.28 1.082-.429-.118-.113-.235-.227-.348-.34-.235.098-.469.192-.703.29m127.98-.325c.008.11.02.332.028.445.113.008.336.028.449.036-.004-.118-.004-.352-.008-.47-.117-.003-.352-.007-.469-.011m103.946 1.32v.235c-.61-.051-1.215.023-1.817-.043.25.363.41.773.555 1.191.222-.07.445-.14.68-.21.097.046.3.132.402.179.191.2.406.375.656.512.281-.48.828-.735 1.008-1.29-.16.012-.484.04-.649.055-.011.18-.03.543-.039.723-.265-.102-.523-.203-.78-.305-.079-.137-.243-.41-.321-.543.191-.148.402-.289.605-.437l-.3-.067m-229.61 1.364c-.02.164-.055.496-.074.66-.383.199-.637.531-.816.918l.492-.016c.133-.086.265-.164.398-.246-.004-.437 0-.879 0-1.316m99.063.984c.152.258.25.727.644.64.371.122.422-.327.586-.542a22.18 22.18 0 00-.52-.29c-.234.063-.476.13-.71.192m-97.614-.055l-.02.563.474-.031c.007-.137.027-.407.035-.543-.121.003-.368.007-.489.011m203.786 1.063c0 .137-.004.406-.004.543.199-.016.402-.028.613-.04-.004-.12-.016-.359-.02-.48-.203-.008-.394-.02-.59-.023m-207.628 2.148a2.236 2.236 0 00-.657.797c.204.11.41.227.618.34.128-.469.265-.934.375-1.406-.086.066-.254.203-.336.27m205.23 1.14c0 .223.008.441.02.668.246-.11.496-.211.746-.32a8.35 8.35 0 01.445-.899c.027-.098.078-.297.106-.394-.125.675-.739.804-1.317.945m33.766.59c-.008.144-.012.437-.016.582.168.117.336.23.512.347l-.059-.82c-.11-.027-.332-.082-.437-.11m-76.86 3.348c.102.043.309.125.41.168.301.383.711.043 1.028-.101a38.44 38.44 0 01-.027-.656c-.47.207-.93.425-1.41.59m11.742.242c-.004.148-.02.445-.024.59.262.078.524.144.797.21l.016-.504c-.262-.109-.524-.207-.79-.296m-17.167.828c-.028.25-.047.504-.059.765.117-.004.352-.004.469-.004.152-.332.3-.664.453-.992-.09-.101-.176-.203-.262-.3-.2.18-.402.351-.601.53m68.855-.148c-.004.285.004.57.023.856a3.675 3.675 0 011.918-.117l-.046-.61c-.403-.11-.672.211-.926.469-.223-.36-.555-.57-.969-.598m-184.523 2.649c.082.265.164.53.253.797.352.152.72.285 1.11.285.203-.297.422-.582.64-.864-.609-.367-1.328-.398-2.003-.218m4.843 1.632c.157 0 .465.004.621.004.13-.28.153-.593.153-.898-.383.18-.688.465-.774.894m1.227.266c-.113.242-.234.48-.32.738.074.34.28.633.441.942.098 0 .297-.008.395-.016.066-.23.14-.46.222-.691.008-.067.031-.2.043-.27-.16-.242-.312-.488-.46-.73-.079.004-.24.02-.321.027m87.406.629l-.047.356c.465.214.903.484 1.317.792.086-.406.097-.886-.383-1.03a17.597 17.597 0 01-.598-.395 9.687 9.687 0 00-.289.277m-3.289.402c-.215.09-.422.176-.629.27.024.187.051.379.086.57.203-.004.406-.008.613-.008l-.058-.671c.21.003.633.015.844.02-.211-.048-.414-.087-.622-.126-.003-.152-.007-.46-.011-.617a6.228 6.228 0 00-.223.562m109.352.72l-.047.44c.191-.015.386-.035.59-.046.004-.121.015-.36.02-.48-.192.027-.38.054-.563.085m-101.953.29c-.02.105-.047.32-.067.429.254.265.512.527.777.781a1 1 0 00.325-.836c-.301-.031-.598-.058-.895-.082-.035-.074-.11-.223-.14-.293m-19.508 2.906c-.008.16-.016.48-.02.641.551.168.91-.207.914-.73-.3.007-.605.007-.894.09m135.101.152l-.015.691-.215.004c.027.09.09.274.12.367-.562-.144-.745.207-.745.715-.106-.035-.313-.11-.418-.148.004.152.012.449.012.601.273-.199.543-.398.832-.586.457.512-.45 1.008.058 1.528.137-.27.278-.54.414-.809.25.024.504.047.762.074l.031-.43c-.351-.312-1.031-.542-.926-1.117.118-.093.348-.28.461-.375a7.733 7.733 0 01-.027-.515h-.344m-134.21.379l-.25.644c.214.383.71.383 1.085.531-.156-.472-.195-1.164-.836-1.175m-9.707 1.406c-.093.266-.101.535.028.797.172-.07.511-.211.683-.278a27.387 27.387 0 01-.062-.78c-.215.085-.438.171-.649.26m126.387-.042c.082.23.16.46.25.695.195-.101.602-.054.535-.379.18-.539-.488-.285-.785-.316m4.86.59c-.005.129-.008.394-.008.527.113-.02.34-.05.453-.066-.008-.094-.028-.285-.035-.38-.102-.019-.309-.062-.41-.081m-284.7 12.527c.285.16.598.266.906.375l-.093.637c-.25.012-.5.027-.75.043.011.105.039.316.05.426.012-.094.032-.286.043-.38.383.009.766.024 1.145.04-.004-.43-.016-.856-.012-1.281-.433-.04-.875-.012-1.289.14m170.18.574c-.004.29 0 .582.008.88.367-.005.738-.012 1.11-.04-.169-.308-.349-.61-.532-.902l-.586.062m18.707 1.883c.398-.094.594-.433.789-.758a13.223 13.223 0 00-.395-.324c-.402.211-.351.695-.394 1.082m-51.238.156l.054.247c-.308.062-.61.136-.914.218.02.098.063.301.082.403l.54.332c.14-.223.273-.45.406-.676.117-.016.351-.043.468-.059l.016-.41c-.223-.02-.438-.039-.652-.055m169.976 2.36c-.008.156-.027.469-.039.625l.715.39c-.016-.097-.04-.296-.055-.394a31.032 31.032 0 01-.62-.621m-13.204 1.34c-.039.261-.07.53-.094.8.52-.015.965.247 1.39.528-.14-.621-.507-1.528-1.296-1.328m-1.371.441c-.004.11-.012.324-.012.434l.504.03c-.015-.105-.055-.312-.074-.417l-.418-.047m17.05 4.621c.032.453.02.918.122 1.367.23.325.535.582.785.899l-.031-.453.543.234c-.219-.367-.457-.738-.895-.852-.031-.359-.05-.718-.074-1.078-.11-.03-.336-.09-.45-.117m-270.972 2.219c.512.594.016 1.187-.355 1.687-.235.02-.465.067-.7.067.008-.344-.168-.535-.515-.574.039.246.097.496.156.746 1.05-.032 2.078.43 3.094-.032.152-.168.304-.332.46-.496l-.042-.367c.125.02.383.063.508.082.003-.05.011-.148.011-.199-.156-.004-.472-.016-.633-.02l-.03-.789a13.11 13.11 0 00-.227-.25l-.028-.757a6.072 6.072 0 00-1.699.902m-23.121-.43c-.11.332-.242.692.125.946.176-.27.32-.555.418-.86a22.543 22.543 0 00-.543-.086m-12.176.184c-.004.125-.008.375-.008.5.11 0 .332-.004.446-.008v-.516c-.11.008-.332.02-.438.024m12.946.64c-.172.23-.348.461-.528.692.215.086.43.172.649.262.105-.301.21-.598.304-.899-.105-.012-.32-.043-.425-.055m268.625 1.762a7.155 7.155 0 00-.493 1.016c.09.015.27.039.356.047.183-.184.37-.364.566-.536a7.319 7.319 0 01-.02-.5 14.453 14.453 0 00-.41-.027m-272.152.45c-.02.21-.035.421-.047.636.32.102.649.195.98.277a1.576 1.576 0 00-.445-.957c-.12.012-.363.032-.488.043m43.95.75c.234.04.71.11.949.145-.02-.238-.051-.715-.07-.953-.544-.106-.81.324-.88.808m230.848-.914c-.101.301-.187.614-.277.922.14.024.418.067.554.086.075.059.215.184.29.242.05-.52-.02-1.05-.567-1.25m-273.219.54c-.28.327.375.585.575.32.273-.352-.364-.54-.575-.32m43.196.745c-.118.356 0 .485.347.391.11-.363-.008-.496-.347-.39m141.386.539c.012.386.051.77.106 1.156.176-.043.355-.09.535-.137.055-.348-.043-.691-.129-1.023-.129 0-.383.004-.512.004m-140.09.722c-.718-.441-1.14.262-1.425.797.851.242 1.308-.613 2.02-.879-.157-.34-.43-.117-.594.082m20.187-.129c.016.32.04.645.066.973l-.253-.008c.019.156.042.313.066.473.234.148.469.308.707.465l.16.117c.274-.07.54-.153.809-.235l-.086-.437c-.07.047-.207.14-.274.187-.152-.011-.453-.039-.601-.054-.586-.356-.137-.942-.028-1.418l-.566-.063m231.04.094c.081.332.202.664.335.988.121.024.367.075.492.098.02-.535-.422-.848-.828-1.086m-262.934.547c-.52.293-.53.95-.578 1.473.356-.114.575-.422.797-.704.266-.023.531-.043.801-.062-.023-.356-.05-.707-.09-1.059-.344.024-.723.032-.93.352m152.325.39c-.008.133-.028.391-.035.52.28.113.562.219.855.32-.2-.363-.297-.89-.82-.84m-186.16.293c.164.125.164.125 0 0m24.425.676c.32.024.649.035.973.043.02-.27.031-.535.043-.797-.461.094-1.129.102-1.016.754m248.528.235c-.008.109-.02.328-.028.433.227.008.453.02.692.031-.028-.238-.055-.472-.078-.707-.2.079-.395.16-.586.243m-241.559-.094c-.031.383-.05.766-.066 1.152l.43.031c.226-.261.46-.515.69-.773-.312-.234-.652-.437-1.054-.41m15.637.941c.031.309-.078.543-.332.7.168-.07.34-.141.515-.204.012.09.04.274.055.368-.152.003-.45.007-.601.011.18.188.43.84.777.446.324-.356.758-.246 1.16-.352l.16-.066c.094-.004.277-.02.371-.028.156.594-.414.95-.722 1.356l.738.176c-.348.222-.766.171-1.152.18l.011.382c.348.063.696.133 1.047.195.078.157.23.47.309.625-.125.082-.375.254-.496.34.074.172.23.516.308.688-.39.031-.777.07-1.164.117a9.43 9.43 0 00-.234 1.2c.68.901 1.797 1.233 2.816 1.597.895.312 1.695.851 2.598 1.144.883.047 1.625.563 2.453.805.121-.254.238-.508.355-.758.293.008.59.024.887.047.172.145.25.66.567.461.355-.281.644-.844 1.183-.684.274.34.277.793.367 1.204.055.02.164.066.223.09.188-.419.457-.79.918-.93.203.507.105 1.02-.148 1.484.101.113.207.23.308.352.086-.133.172-.262.262-.391.039-.445.086-.887.133-1.328-.332-.352-.774-.547-1.211-.723a8.74 8.74 0 00-.41-.758c-.403.04-.891.313-1.204-.109-.136.305-.234.625-.347.945-.48.203-.442-.402-.54-.703.548-.222.657-.844 1.098-1.176-.023-.14-.078-.425-.105-.57l.266.004c.007-.113.015-.344.023-.457-.059.004-.176.016-.234.02l.082.3-.246-.043c-.012.16-.04.48-.051.637-.29.012-.574.02-.864.024-.195-.293-.675-1.352-.976-.653-.367.719.371 1.305.148 2.027-.418.168-.812.375-1.214.563-.407-.148-.778-.375-1.165-.555.332-1.172 1.45-1.894 1.805-3.062-.101 0-.3-.008-.398-.008-.196.266-.387.527-.582.79a2.11 2.11 0 00-.88.468l-.093-.008c-.145.566-.328 1.156-.777 1.559-.922-.247-1.864-.43-2.735-.82-.008-.395.192-.727.403-1.036a11.6 11.6 0 01-.18-.703l.984-.07a12.866 12.866 0 00-.61-1.176c-.374.293-.75.586-1.147.851-.016-.25-.043-.757-.06-1.007l.263.03c-.008-.183-.016-.358-.02-.534-.414-.078-.656-.356-.723-.766.922.25 1.844.129 2.774.008-.055.36-.238.687-.332 1.043.191.426.613.664.996.898.082-.285.184-.562.293-.836a9.72 9.72 0 01-.05 1.118c.581-.454 1.331.086 1.91-.38.195-.62.433-1.206.956-1.62-.5-.055-.945.183-1.398.355-.125-.582.133-1.066.586-1.402-.07-.485-.598-.473-.953-.625-.325-.063-.375-.465-.535-.688l-.204-.008c-.285.793-.62 1.664-1.402 2.102a3.856 3.856 0 01.707-1.652c-.27-.207-.543-.403-.812-.602-.54.43-1.188.7-1.86.848-.152-.215-.308-.426-.46-.64-.66-.224-1.227.6-1.817-.032l-.082-.668c-.07.07-.215.203-.29.273m73.641-.086l.047.383c.426.106.848.25 1.27.395 0-.13.004-.383.004-.512-.426-.156-.871-.227-1.32-.266m170.855.223c.027.086.078.262.105.348.16.21.063.902.47.746.14-.262.265-.516.019-.754-.16-.184-.375-.274-.594-.34m-270.227.734a.434.434 0 00.235.614c.363-.27.695-.645.578-1.13-.278.16-.563.31-.813.516m20.805.516l-.64.168c.218.234.386.824.8.555.387-.45.43-1.094.32-1.649-.175.301-.335.61-.48.926m39.348-.715c-.118.238-.235.48-.356.719a3.938 3.938 0 00-.418.945l.297.067.02-.563c.437.098.87.242 1.32.324a10.654 10.654 0 00-.492-.847c0-.239.004-.48.008-.715-.094.02-.286.055-.38.07m-12.761.531c.484.426 1.059.774 1.73.766-.003-.121-.003-.351-.003-.469a39.71 39.71 0 00-1.438-.527l-.023-.168c-.09.129-.18.262-.266.398m53.578-.183l-.125.707c-.242-.02-.48-.04-.719-.055-.117.086-.347.266-.465.352.02.82-.394 1.566-.332 2.39-.109.356-.156.739-.32 1.082-.246.04-.492.075-.738.102-.336.406-.746.746-1.098 1.144-.543.442-1.035.942-1.558 1.403-.336-.078-.672-.152-.997-.266.434.246.797.598 1.176.922.094.285.172.559.266.852.535.015 1.078-.043 1.613.02.84.183 1.406.894 2.172 1.241 1.14.559 2.07 1.442 3.04 2.25.597.473 1.003 1.125 1.53 1.668.5.375.97.805 1.512 1.125 1.43.371 3.3-.351 3.524-1.957-.055-.082-.165-.246-.215-.328-.262.2-.524.39-.793.574-.02-.18-.055-.535-.075-.714a30.726 30.726 0 00-.351-.372 21.866 21.866 0 00-.04-.503 40.14 40.14 0 01-.98-.051c.036-.535.47-.867.82-1.219-.175-.117-.343-.234-.511-.352l.094-1.007c-.453.047-.883.18-1.281.386-.235.028-.47.051-.7.075-.011-.426 0-.844.024-1.262a9.46 9.46 0 011.039-.332c-.508-.164-.93-.5-1.309-.863.125-.27.219-.547.27-.84.207-.188.625-.453.828-.098.375.348.687.828 1.23.914 0-.105 0-.316-.004-.426-.41-.308-.699-.77-1.148-1.015-.578-.07-1.023.648-1.633.351.242.407.457.867.094 1.29.101.284.195.57.289.863-.184.078-.367.156-.55.238-.102.3-.204.605-.302.91-.332-.012-.941.195-.984-.297-.266-.668.484-1.082.742-1.605-.66-.059-1.125.504-1.566.906-.258.004-.52.004-.774.004-.113-.926.88-1.313 1.375-1.926l.696-.035c-.11-.121-.325-.367-.43-.488l.016-.641c-.5-.016-1.254.277-1.454-.375-.253-.055-.5-.113-.746-.168.27-.023.543-.039.82-.047.325-.418.665-.863 1.25-.875-.058-.57.239-1.05.36-1.578a18.735 18.735 0 00-1.652-1.777c-.239-.266-.617-.235-.93-.297m-100.23.906c-.149.016-.442.047-.586.059l.187.203c.543.398 1.238.484 1.89.566-.07-.527-.59-.773-.91-1.137-.195.098-.394.2-.581.31m97.273.995c.273.29.574.555.969.684.043-.613.125-1.262-.32-1.75-.153.39-.387.742-.649 1.066m96.277-.16c0 .273.008.555.024.836l.383.035c.125-.308.25-.613.363-.922-.262.008-.516.028-.77.051m63.641.14c.156.329.324.333.504.012-.172-.324-.34-.328-.504-.011m-197.594.078c-.484.39-.957.797-1.457 1.172a2.186 2.186 0 00-.633-.61c-.07.27-.152.532-.242.797-.07.035-.219.113-.293.149l-.527-.008c.098-.551.617-.946.59-1.524-1.086.016-1.715 1.094-2.031 1.996.312-.046.601-.156.87-.316l.399.031.094.621c.12-.136.36-.402.48-.539.563-.132 1.258-1.011 1.63-.144.5-.543 1.35-.813 1.503-1.61l-.383-.015m129.86.262c.12.332.25.66.324 1.011.191.332.523.469.898.492.211-.21.442-.402.692-.57l.308-.355c.492.187 1 .34 1.516.449l-.082-.797c-.336-.117-.668-.234-1.004-.336-.086.14-.258.418-.34.555a28.15 28.15 0 01-.84-.067c-.293-.32-.687-.492-1.086-.62-.097.058-.293.179-.386.238m22.293-.227c-.172.144-.34.285-.504.43a32.713 32.713 0 01-.934-.207c-.074.039-.226.125-.3.164v.379c.417.16.84.316 1.257.476.07-.21.14-.422.219-.629.219-.086.445-.168.672-.246v-.367h-.41m51.105-.184c.078.258-.23 1.098.27.899.668-.332 1.277.289 1.964.12a7.19 7.19 0 00-.742-.683c-.136.078-.41.239-.547.317-.328-.207-.62-.45-.945-.653m-197.441 1.313c.09.383.363.719.804.64.055-.25.106-.496.153-.746l.894-.187c-.015-.14-.05-.426-.07-.567-.684.063-1.238.485-1.781.86m-61.551-.344c-.45.086-.274.649-.324.957-.461-.152-.926-.32-1.41-.383.117.383.414.645.714.89.555-.093.907.235 1.02.767.035-.079.098-.239.129-.317.203.004.61.02.812.024.2.609-.136 1.113-.5 1.57-.453-.16-.718-.524-.851-.965l-.23.063c-.122.675-.743.476-1.208.355-.058.137-.168.418-.226.555a28.76 28.76 0 01-.578-.043c-.122.066-.364.195-.485.258l.012.34c.144.027.433.081.578.113.07.113.207.343.273.457-.125.281-.246.562-.382.843l-.063.41c-.316.215-.46.57-.605.907.629.781 1.73.906 2.656.719.433-.051.902-.184 1.047-.645.922.152 1.617-.566 2.265-1.101.614-.668 1.555-1.25 1.524-2.27.523.027.797-.402 1.078-.766-.227-.328-.484-.668-.434-1.09.215-.105.43-.214.649-.324-.016-.242-.031-.476-.043-.715-.047.06-.137.18-.184.243-.297.21-.59.425-.886.64a23.22 23.22 0 01-.04-1.273c-.117-.012-.351-.027-.468-.04-.29.56-.61 1.29-1.282 1.438-.804-.031-.503-1.035-.824-1.492-.422-.574-1.183-.305-1.734-.125m117.871.25c-.277.031-.55.047-.824.05-.024.224-.043.45-.063.68-.386.254-.699.598-.96.977-.622-.277-1.141-.746-1.801-.941a19.38 19.38 0 01-.262-1.239c-.727-.078-1.445.075-2.121.32.027.516.078 1.032.129 1.552.238.93.453 1.863.664 2.8a42.03 42.03 0 001.093 3.14c.25.603.45 1.27.993 1.685.52-.047 1.046-.09 1.574-.114.316-.074.625-.152.95-.222l.058-.922c-.168-.035-.5-.117-.668-.157.004-.207.007-.414.015-.617.375.082.735.239 1.114.336.3.156.836.434 1.035-.015.46-.508-.082-1.149-.164-1.696.527-.082.68-.62.953-.992-.36.277-.707.567-1.008.906-.012.325-.016.653-.055.985-.043.332-.402.773-.71.398-.4-.515.566-1.058.042-1.586-.828.332-1.656.965-2.566.88-.723-.192-.328-.95-.125-1.392a8.969 8.969 0 00-.613-.496c.265-.043.53-.082.8-.117-.015.184-.039.555-.054.738.566.055 1.12-.054 1.383-.605.46-.43 1.175-.73 1.578-.062.05-.063.164-.188.218-.25.059-.31.137-.606.227-.903-.2-.191-.39-.375-.578-.558-.18-.024-.531-.067-.711-.086.02-.188.05-.563.066-.75.32-.196.715-.059 1.07-.07l-.015.187c.375.012.617.281.828.562.192.168.406.313.63.45l.339.12c-.281-.745-1.09-.976-1.617-1.5.086-.73.148-1.46.215-2.187-.516-.039-.75.395-1.059.711m43.793.215c.223.012.445.027.676.043.02-.27.039-.54.054-.805-.449.024-.617.387-.73.762m-119.914-.426l.004.43c.285.015.57.027.855.043.75.836-.27 2.066-1.234 1.937-.024.114-.067.344-.09.457a4.348 4.348 0 00-.195.953c-.176.235-.36.461-.543.688-.117-.125-.352-.383-.469-.508-.383.008-.73.192-1.09.309l.047.566h.363c.063.309.137.63.207.942-.28.464-.172 1.007-.187 1.523-.77.004-.899-.785-1.07-1.355a17.623 17.623 0 01-.485-.106l.063-.316c-.23-.047-.465-.09-.692-.137.242.18.485.363.696.586.058.426-.118.828-.239 1.23-.523.258-1.097.25-1.664.176-.32-.793.442-1.25.883-1.77a50.342 50.342 0 00-.621-.355c-.293.785-.91 1.442-.918 2.32.543.274 1.11.508 1.719.586 1.18.489 2.48.73 3.758.707 1.101.118 2.093 1.008 3.238.528.12-.242.242-.485.363-.723.512.145.672.633.856 1.074.168.004.34.008.511.016-.086-.297-.18-.598-.218-.902.16-.442.433-.84.511-1.313a32.684 32.684 0 01-.926-.152c.125-.328.274-.649.442-.957-.73-.625-.262-1.66-.176-2.469.645.316 1.332.61 1.824 1.156.203 0 .61.008.813.012-.07.164-.215.496-.29.664.216-.129.423-.262.653-.367.477.32.906.875 1.555.695-.262-.312-.582-.582-1.008-.625-.258-.152-.559-.265-.863-.258.152-.367.308-.726.472-1.082-.328-.277-.617-.593-.953-.855-.601.148-1.18.46-1.808.234.086-.527.402-1.16-.223-1.476-.379.18-.77.336-1.164.468-.113-.59-.844-.754-.856-1.382.426-.332.864-.649 1.36-.872l-.016-.335-.48-.032c-.223.164-.45.32-.672.489a13.04 13.04 0 01-.856-.739c-.402.078-.796.188-1.187.297m-35.09.192a2.78 2.78 0 01-1.059 1.261c.114.754 1.032.086.97-.43.07-.062.214-.183.288-.245.031-.196.063-.391.098-.579a7.53 7.53 0 00-.297-.007m-16.156.527c-.098.05-.293.152-.395.203-.011.113-.039.34-.054.453.277-.137.55-.277.824-.41.191.113.379.23.57.352.117-.13.23-.258.348-.387-.02-.133-.063-.402-.086-.535-.406.097-.805.218-1.207.324m6.73-.3c-.07.097-.207.284-.273.378-.715.082-1.371.742-1.145 1.496.094.012.282.035.375.05.25-.468.485-.944.766-1.394.23-.054.465-.113.7-.171-.145-.122-.286-.239-.423-.36m40.89-.183c-.015.464.224.863.497 1.218.328-.008.664-.004 1 .012.113.492.215.984.324 1.48.16-.328.317-.664.461-1 .184-.09.367-.175.555-.257.035-.317.074-.63.12-.942a9.4 9.4 0 00-.151.27c-.38.226-.747.465-1.141.664.05-.453.187-.883.402-1.285-.695.035-1.394.043-2.066-.16m61.605.195c-.007.219-.023.656-.027.875-.402.074-.8.144-1.191.246.625.86 1.742-.332 2.41.539.082 0 .254 0 .34.004-.336-.695-.84-1.309-1.532-1.664m-105.62 1.664a9.7 9.7 0 01.335.023c.246-.386.528-.75.793-1.12-.555.066-1.398.394-1.129 1.097m161.692-.29l-.336.766c-.184-.011-.547-.039-.73-.05a5.792 5.792 0 01-.391-1.524c-.594.403-1.16 1.012-1.93.973-.137-.18-.266-.356-.399-.531-.152.007-.46.027-.613.039.055.285-.004.66.313.816.605-.043 1.218-.348 1.793.031.5.059.507.598.566.985.094.226.184.457.266.691l-.438-.297a25.44 25.44 0 00-.418-.273c-.37.02-.75.047-1.082.234.383.297.762.715 1.274.754.586-.113 1.18-.316 1.78-.137.153.61.872.594 1.384.618.199-.286.406-.559.617-.836.27.113.547.222.832.328.008-.16.02-.488.027-.649.34-.308.742-.609.719-1.125-.262.125-.512.262-.758.407-.453-.235-.867-.536-1.289-.813.012-.156.031-.465.04-.617.09-.184.179-.363.269-.543-.125.008-.38.02-.504.027 0 .164 0 .496-.004.66l-.098.012c-.136.07-.414.207-.55.274a8.08 8.08 0 01-.622-1.004c-.52.218.082.562.282.785m99.683-.742c.125.632.45 1.226.324 1.89.262.215.52.422.793.637a1.18 1.18 0 00-.078 1.059c-.406.714.535 1.125.938 1.593.238-.636-.14-1.148-.563-1.574l-.23.145c-.024-.36-.04-.72-.059-1.075.172.024.516.07.688.098.004-.058.011-.172.011-.23-.113.02-.34.05-.453.066-.02-.277-.05-.555-.09-.824-.19-.32-.613-.363-.902-.543.016-.64.719-.899 1.223-1.098a.635.635 0 00.043-.09c-.551.012-1.098-.039-1.645-.054m-192.43.347c.087.395.329.715.579 1.024-.024.273-.043.547-.063.828.258-.129.516-.254.778-.379-.051-.68-.57-1.434-1.293-1.473m85.394.106c-.023.234-.043.465-.058.703.308-.133.613-.277.925-.406a12.1 12.1 0 01.024-.387c-.301.023-.598.055-.89.09m72.413-.035c.012.203.035.41.063.617.113.008.347.027.464.039-.019-.235-.03-.469-.042-.7-.122.012-.364.032-.485.044m-14.746.707c.227.906.977 1.53 1.469 2.293.129-.332.262-.66.398-.985-.328-.129-.71-.199-.941-.476-.106-.532-.152-1.075-.3-1.594-.278.195-.786.312-.626.762m-168.3-.106c-.235.36-.337.89-.766 1.067-.297.03-.883.093-1.18.125.422.02.781.312 1.117.535.371.039.707.199 1.008.418.266-.098.535-.18.809-.258.011-.371.109-.754-.02-1.11-.293-.296-.64-.53-.969-.777m12.89 1.36l.661-.036a22.05 22.05 0 00-.234-1.363 17 17 0 00-.426 1.399m110.504-1.395c.152.277.164.832.62.742.477.024.923-.304 1.04-.773-.207.113-.41.23-.602.355a4.726 4.726 0 00-1.058-.324m47.41.32c-.02.426-.184.805-.531 1.063.129.156.258.312.386.473.032.125.086.375.114.5.324-.125.64-.258.972-.372.012.204.04.614.051.817-.066.058-.207.18-.277.238.234.035.469.07.71.11-.003-.09-.007-.278-.011-.372-.059-.113-.187-.34-.254-.453l.254-.199c.078-.223.336-.46.172-.703-.426-.336-.875-.656-1.106-1.16a8.976 8.976 0 00-.48.058m7.066-.027c.051.219.114.441.18.664.09-.062.266-.187.352-.25-.016-.094-.043-.277-.063-.371l-.469-.043m-154.05-.004v.55c.195.15.39.302.586.462.296.129.59.273.847.484l.13.067c-.005-.043-.009-.13-.013-.172-.586-.383-1.043-.918-1.55-1.39m25.285-.075c-.02.23-.059.687-.074.918.085.031.257.094.347.129-.43.054-.93.176-1.023.68.68.378 1.469.507 2.195.788-.336-.492.024-.878.258-1.285-.336-.3-.77-.437-1.176-.601-.18-.211-.351-.422-.527-.63m109.219.278a26.53 26.53 0 00-.461.477c.027.379.07.762.136 1.14.016-.093.051-.273.067-.363l.215.043c.027-.344.062-.683.101-1.02.145-.074.297-.144.453-.214-.129-.016-.383-.051-.512-.063m-201.921 1.285c.218-.015.433-.027.652-.039.05-.129.152-.379.203-.507l.535-.157c-.004-.086-.004-.254-.008-.34a24.282 24.282 0 00-.53-.039c-.333.32-.645.664-.852 1.082m-6.348-.484c.215.07.43.14.652.203l-.03-.644c-.27.05-.544.125-.622.441m77.52 1.465c.335-.047.582-.27.816-.492.738-.02 1.48-.004 2.215-.082-.664-.582-1.672-1.067-2.485-.524-.015-.347-.027-.691-.039-1.031-1.207.074-.507 1.406-.507 2.129m-2.125.215c.289.172.582.347.867.535.312-.176.629-.348.945-.516 0-.222.004-.441.008-.656-.317-.18-.543-.672-.957-.582-.442.27-.688.75-.863 1.219m186.808-.594c.137.004.41.016.547.02l.25-.297c-.125-.137-.242-.27-.356-.399a9.546 9.546 0 00-.44.676m-189.946-.305c.02.055.054.164.074.223.313.246.566.55.73.918-.312.05-.597.133-.898.215.23.047.461.093.7.136.429-.492.597-1.086.3-1.687-.305.062-.605.129-.906.195m-42.055.977c.281.05.567.058.852.082a36.81 36.81 0 00-.067-.711c-.418-.05-.898.121-.785.629m71.625.195c.008-.328 0-.656-.035-.98-.29.3-.414.75.035.98m116.442-.89c-.235.304.28.671.503.363.23-.309-.293-.684-.503-.363m-155.11.273c-.082.523-.137 1.09.332 1.453.047-.363.082-.723.13-1.082l.116-.324a15.01 15.01 0 00-.578-.047m145.012-.18c.23.617.71 1.074 1.117 1.582.723-.082 1.398-.914.867-1.578-.664.024-1.324.004-1.984-.004m14.98.418c.32.29.63.598.89.946a28.31 28.31 0 01-.015-.993c-.3.012-.59.028-.875.047m3.493-.027c0 .277.003.558.015.84l.496.12c.254-.187.516-.37.778-.55-.004-.102-.008-.305-.012-.406-.43-.008-.856-.012-1.277-.004m-4.297.879c.007.199.023.398.043.601l.421.004c.012-.207.032-.41.055-.61-.129 0-.39.005-.52.005m-74.136.394c-1.117 1.844-.457 4.043-.477 6.059.887-.45.914-1.625 1.184-2.48.168-1.133.86-2.38.246-3.481-.168-.445-.637-.16-.953-.098m86.379.778c.324.136.62.449 1.004.363.09-.43-.23-.707-.512-.961-.168.195-.336.39-.492.598m-165.957-.313a19.78 19.78 0 00-.012.684l.543-.012c-.016-.223-.031-.441-.043-.66-.125 0-.367-.008-.488-.012m-64.485.164c-.035.254-.078.508-.128.758a55.422 55.422 0 01-.5-.363c-.262.058-.438.293-.657.43-.023.105-.074.316-.097.421-.141.164-.278.336-.414.504.402-.012.804-.027 1.207-.004.101.575.441.965 1.027 1.172-.652-.39-.594-.933-.176-1.25.102.149.309.45.41.602.512-.09.809-.551 1.153-.883-.594.117-1.125-.008-1.454-.535-.003-.285-.003-.567-.003-.848-.094 0-.278-.004-.368-.004m111.579.446c.234.02.468.035.71.046-.05-.433-.3-.707-.753-.718.011.222.023.445.043.672m81.738-.227l.605.031c.047.75-.668 1.043-1.144 1.457.02.133.054.399.074.535.496-.293.828-.777 1.289-1.12.5-.118.668.429.953.71.008-.27.027-.808.031-1.078-.597.04-1.011-.379-1.382-.777-.149.078-.286.16-.426.242m19.027-.246c-.07.105-.21.324-.281.43.05.097.16.289.215.382.363-.039.715-.16.969-.441a12.551 12.551 0 00-.903-.371m45.942.2c.218.425.5.823.796 1.206.395-.16.77-.348 1.207-.394.016.246.043.492.079.742.113.008.347.02.464.023l.008-.207-.254.117c-.039-.351-.18-.734-.476-.933-.614-.188-1.203-.414-1.824-.555m-52.25.711c.043.145.132.43.175.574-.21.11-.414.223-.617.34-.02.27-.031.547-.043.82l.242-.027c.227.973.524 1.945 1.032 2.813.183.484.234 1 .328 1.511.219.004.445.004.672.008-.172-.793-.704-1.46-.782-2.273-.226-.336-.43-.692-.62-1.04.269-.316.581-.59.85-.902-.484-.039-.694.39-.956.7-.457-.41-.238-1.055-.367-1.575.324-.23.824-.367.78-.855a24.496 24.496 0 00-.694-.094m1.734.246c-.184.188-.36.387-.535.582.297.004.601.008.906.008.016-.207.035-.41.059-.61-.106.005-.32.012-.43.02m-68.61.942c-.027.382-.046.765-.046 1.156.379-.246.672-.875 1.199-.606l.207.543c.676-.511.32-1.304.266-1.988-.563.262-1.094.574-1.625.895m-61.032-.91c.012.452.055.913.09 1.37.649.075 1.285.223 1.918.399.004-.117.02-.352.027-.469-.804-.219-1.347-.875-2.035-1.3m8.188.335c.008.11.023.325.035.43.36.105.746.148 1.078.328.348.387.649.809 1.024 1.168.125-.75-.5-1.383-.977-1.887-.387-.062-.777-.035-1.16-.039m-11.637.52c.2.488.555.883.934 1.242.34.043.695-.039 1.043-.031.058-.422.43-.43.77-.457.109.39.292.742.737.836l-.027-1.032a13.28 13.28 0 00-.691.028c-.184-.098-.367-.192-.547-.29-.29.364-.656.567-1.106.337l-.011-.88c-.371.071-.739.153-1.102.247m14.488-.305c-.046.317-.086.637-.113.957.531-.066 1.008-.316 1.484-.547.04.39.07.79.114 1.184.277-.094.558-.192.832-.297a34.289 34.289 0 01-.57-.957c-.602-.027-1.165-.234-1.747-.34m168.797 1.594c.309.2.625.398.926.621-.289.336-.648.676-.496 1.172.465-.367.5-.992.7-1.508-.153-.262-.571-.492-.333-.824.129-.063.395-.195.527-.262.114-.383-.136-.664-.39-.91-.117.664-.418 1.273-.934 1.71m3.68-1.292a9.77 9.77 0 00-.004.48c.461.38.918.782 1.469 1.032a9.083 9.083 0 00-.352-1.059l-.16-.555c-.324.02-.64.055-.953.102m-127.27 1.16c-.984 1.852-2.25 3.547-3.078 5.48a8.142 8.142 0 01-.449 1.102c-.762 1.578-1.086 3.305-1.598 4.973-.12.535-.257 1.14.02 1.652.476.969.902 1.996 1.617 2.824.547-.613.836-1.43 1.485-1.96.421-.368.773-.805 1.152-1.215.543-.586 1.426-.477 2.07-.891.887-.524 1.7-1.172 2.485-1.832.988-1.14 2.66-1.64 3.214-3.149.621-.55 1.059-1.273 1.383-2.027-.5-.547-.867-1.219-1.484-1.652-.367-.262-.5-.719-.703-1.102-.79-.031-1.192.906-1.989.91v-.722l-.59.035c-.386-.617-.585-1.496-1.445-1.578.125-.305.227-.633.364-.93-.297.11-.59.223-.883.344a7.327 7.327 0 00-.77-1.324 4.715 4.715 0 00-.8 1.062m88.62-.941c-.167.312-.078.672-.07 1.011l.516.047c.148-.265.289-.531.387-.82-.282-.094-.543-.203-.832-.238m-130.762.968c.113-.074.34-.222.457-.296.246-.028.5-.047.754-.07-.012.413-.008.823.011 1.238.047-.22.09-.438.13-.657l.195.016v-.582c-.43-.074-.891-.05-1.27-.29-.086.22-.187.423-.277.641m124.703-.363c-.156.219-.145.434.039.645.598.347.492-.899-.04-.645m20.474-.105c-.067.644.152 1.324.882 1.418.313.515.77 1.035.672 1.687-.375.168-.699-.082-1.008-.234-.109.11-.214.219-.316.332.164.062.492.183.656.246.215.488-.386.594-.668.828.293.5.586 1.008.785 1.559l.282.027c.031-.16.097-.473.129-.633a27.18 27.18 0 011.175-.273c.024.18.07.535.098.715l.559-.094c-.098-.156-.293-.473-.391-.63.125-.491-.191-.894-.352-1.323.172-.184.36-.348.57-.493-.062-.359-.206-.699-.288-1.05-.082-.473.52-.602.789-.864.004-.433-.559-.457-.848-.597-.047.156-.133.476-.176.637-.375-.012-.746-.098-.996-.395-.09.09-.261.27-.351.355-.106-.015-.309-.05-.41-.07-.211-.426-.165-1.156-.793-1.148m4.539.297c-.184.328-.387.636-.547.98.093.195.281.234.566.125.172-.34.332-.684.469-1.039l-.488-.066m18.562 1.082c.578.21.7-.508.652-.922-.363.203-.824.422-.652.922m-122.11-.086l.583.187.129.102c.183-.024.27-.172.265-.453.64-.176 1.008.41 1.434.761.039-.328.176-.675.027-.988-.46-.406-.969.129-1.449.211l-.18.027c-.398.145-.523-.199-.675-.476-.047.21-.094.414-.133.629m-69.684.504c.14.011.418.046.555.058-.04-.172-.121-.527-.164-.703.172.016.523.04.695.05.035.138.106.407.145.54.468.144.941.293 1.433.344-.012-.301-.012-.602-.07-.899-.492-.008-.98.04-1.469.024l.063-.332c-.551.007-1.16.296-1.188.918m194.578-.848c.02.086.063.254.078.34.176.308.348.625.454.969.043.519-.336.703-.786.69-.187-.218-.351-.417-.535-.628-.015.125-.05.375-.07.5.21.09.426.188.64.285.126.172.254.344.387.52.254.347.567.652.871.965.008-.04.028-.125.035-.165-.246-.363-.714-.71-.55-1.203.14-.25.75-.515.386-.828-.378-.394-.52-.91-.464-1.445h-.446m-46.511.254c.14.203.093.762.457.664.386.035.32-.457.43-.695-.301.003-.594.015-.887.03m-19.457.15c-.207.581.359.859.707 1.195.046-.16.132-.485.175-.645-.293-.184-.476-.691-.882-.55m-3.836.558c-.07.258-.102.52-.137.789l.437-.078c.02-.145.067-.442.086-.59.059-.063.168-.188.223-.25-.207.035-.41.078-.61.129m11.52.183c.031.32.11.641.059.973-.168.113-.75-.101-.575.23.434.098.887.032 1.333.044-.004-.567.035-1.215-.493-1.567-.082.078-.242.238-.324.32m-117.082-.191c.129.277.277.55.43.828.043.262.097.531.156.8.106-.073.324-.214.434-.284a40.627 40.627 0 00-.383-.918 11.288 11.288 0 00-.637-.426m-19.516.32c-.02.414-.03.828-.054 1.246a20.9 20.9 0 00-.863.137c.195.375.664.645.667 1.098-.316.297-.656.566-.964.87.308.017.62.04.937.071.098-.281.207-.558.317-.828.203.215.402.434.601.66.11-.008.324-.027.43-.039-.18-.305-.356-.613-.52-.926.172-.296.367-.578.473-.902-.324-.414-.692-.824-.727-1.379l-.297-.008m4.86.653c.004.097.02.293.023.39.168.078.508.235.68.313-.063-.176-.18-.531-.242-.703h-.461m187.488-.032c-.164.489-.254 1-.242 1.52.144-.043.293-.082.445-.121-.02-.375-.027-.754-.015-1.125l.308-.168c-.125-.027-.37-.078-.496-.106m-189.539 1.192c-.055.586-.668.797-1.176.832.04.035.11.105.145.14.426-.101.93-.382 1.32-.046.113-.114.227-.223.344-.329.238.043.48.11.726.125.375-.582-.503-.476-.828-.636.012-.446.297-.778.532-1.13-.633-.085-.989.493-1.063 1.044m147.375-.953c-.035.21-.012.418.063.62.257.052.527.087.796.11-.18-.34-.336-.992-.859-.73m13.598 1.011c.562.258 1.129.594 1.304 1.239.391-.145.692-.438.98-.73-.038-.145-.066-.282-.093-.419l-.637.278c-.46-.114-.601-.606-.742-.985-.375.051-.605.336-.812.617m29.082-.09c.05.16.152.477.207.637.172-.152.344-.304.527-.449.086-.183.176-.363.27-.539-.344.11-.676.227-1.004.352m-64.485.476c.141.543.422 1.031.793 1.457.067-.086.196-.258.262-.344.008-.062.035-.183.047-.246-.266-.129-.516-.265-.766-.398.18-.29.364-.574.559-.856l-.348-.55c-.23.277-.508.554-.547.937m-1.093.281c.004.133.004.403.004.543l.468-.058c.008-.11.032-.332.04-.442l-.512-.043m10.691-.332c.02.59.148 1.172.273 1.754.227-.035.457-.062.692-.09-.172-.617-.219-1.476-.965-1.664m54.816.793l.047.34c.094.024.278.067.371.09.024-.129.07-.39.098-.523l-.516.093m-44.058 1.676c.191.008.387.02.59.031.09-.207.191-.406.293-.609-.153-.035-.453-.11-.606-.145-.097.239-.187.48-.277.723m43.215-.312c.539.168 1.07.402 1.101 1.054.297-.113.57-.465.922-.285.465.465.934 1.074 1.645 1.133-.293-.566-.746-1.035-1.325-1.3a8.632 8.632 0 01-.082-.595c-.757-.046-1.562-.503-2.261-.007m-25.426 1.98c0 .117-.004.348-.004.465.543.262 1.05.672 1.691.672-.023-.176-.043-.348-.062-.52-.55-.187-1.027-.578-1.625-.617m29.582 1.34c.332-.152.41-.816.004-.922-.348.113-.223.734-.004.922m-23.852-.41c-.254.289-.523.586-.468 1.008.101-.168.207-.329.316-.493.457-.023 1.027-.035 1.203-.562-.36 0-.707.023-1.05.047m-35.88.672c-.101.14-.199.285-.293.433.22.008.438.016.665.028.015-.125.046-.38.066-.504l-.438.043m32.489.476c-.024.278-.051.559-.063.844.18-.121.36-.242.547-.36-.012-.144-.039-.437-.05-.578l-.434.094m-25.328.535c-.536.067-1.063.121-1.594.137l-.078.29c.136.054.418.163.558.214.41.012.961.203 1.133-.348l.57-.015c-.02-.14-.05-.414-.066-.555-.18.086-.355.18-.523.277m-9.954.27c-.027.215-.05.43-.074.648l.434-.093c.015-.204.031-.399.05-.594-.1.012-.304.031-.41.039m-134.042.144c-.094.25-.18.508-.258.77.297-.055.59-.137.867-.262l-.016-.48c-.203-.012-.402-.024-.593-.028m129.707 2.278c.476-.188.898-.469.73-1.055-.426.207-.664.598-.73 1.055m15.07-.965c-.063.375-.371 1.105.219 1.16.445-.082.074-.637.136-.93-.09-.058-.27-.171-.355-.23m1.148.672l-.156.375c.324.832.902-.75.156-.375zm0 0"/></g><path d="M286.512 355.402l.547.016c-.004.113-.024.336-.028.45-.12-.005-.355-.005-.472-.009l-.047-.457zm0 0M514.996 358.2l.922.034c.027.297.059.594.09.895-.145-.004-.43-.012-.574-.012-.168-.293-.36-.59-.438-.918zm0 0M526.195 374.234l.371.032c-.086.734.586 1.015 1.211.937-.718.168-1.062.945-1.8 1.113-.055-.16-.172-.476-.23-.632.292-.434.46-.922.448-1.45zm0 0M444.688 377.133c.292-.235.675.281.378.508-.308.254-.695-.278-.378-.508zm0 0M534.32 385.266c.27-.04.551-.075.832-.106l.125.625c.305-.226.614-.445.942-.644.855.804-.614 1.304-.461 2.148-.328.18-.656.348-.985.508-.574-.7-.441-1.684-.453-2.531zm0 0M540.71 396.258c.267.02.54.047.817.078.125.488.258.976.375 1.473-.117.015-.355.039-.476.05.004.121.008.36.008.477l-.989-.125c.328-.613.36-1.277.266-1.953zm0 0M247.594 417.121c.238.629.379 1.3.328 1.98-.281.098-.555.2-.832.31-.567-.173-.988-.692-.54-1.235.009-.047.02-.14.024-.188.559.028.785-.449 1.02-.867zm0 0M245.598 426.512c.113-.004.343-.008.457-.012-.02.379-.235.64-.551.82l-.363-.015.011-.512c.11-.07.332-.211.446-.281zm0 0M562.941 437.438c.188-.2.383-.387.594-.57.465.312.809.987.274 1.417a26.349 26.349 0 00-.567-.293 25.06 25.06 0 00-.3-.555zm0 0M313.777 438.828c.258.008.528.008.778.098l.082.82c-.223-.004-.672-.004-.899-.004.012-.308.024-.613.04-.914zm0 0M385.543 439.746c.234-.023.473-.043.71-.055-.019.29-.038.586-.062.883-.23.008-.46.02-.687.028.004-.286.02-.575.039-.856zm0 0M289.86 441.93c.476-.024 1.245-.555 1.44.148.165.508-.488.543-.792.738-.274-.253-.531-.523-.649-.886zm0 0M402.805 442.84c-.012-.66.808-.844 1.293-.516l.093.547c.262.016.528.04.797.07.02.32.063.641.032.97-.153.355-.52.558-.786.823-.457-.347-.558-.851-.449-1.39-.363-.063-1.11.086-.98-.504zm0 0M332.746 443.965c-.098-.785.824-.813 1.371-.785.051.683-.832 1.441-1.37.785zm0 0M445.137 444.352c.113-.602.64-1.098 1.203-1.297.094.101.273.297.367.394.078.696.254 1.801-.652 2.016-.57-.07-.73-.668-.918-1.113zm0 0M405.797 444.2c.683-.302 1.285.366.805.98-.102.07-.309.207-.414.273-.204-.394-.36-.808-.391-1.254zm0 0M473.055 445.297c-.649-.356-.13-1.332.507-1.25.204.16.403.332.594.52-.355.253-.64.683-1.101.73zm0 0M475 443.965l.344-.043c.094.57.183 1.14.226 1.719-.355.175-.597.476-.765.832-.34-.086-.692-.145-.95-.391.032-.488.383-.887.422-1.375.317-.168.676-.332.723-.742zm0 0M381.93 445.355c.191-.3.465-.503.824-.57-.024.48.191 1.246-.527 1.203-.102-.215-.2-.425-.297-.633zm0 0M480.086 446.863c-.035-.48-.617-1.246.031-1.547.317-.074.535.2.762.375.012.176.047.532.066.707.551.043 1.157.122 1.606-.28.05.25.133.503.308.706-.136-.012-.41-.039-.546-.05-.133.234-.274.464-.422.69-.371.079-.637-.257-.957-.362-.23.324.234.515.359.773.316.383-.008 1.066-.48 1.129-.368.101-.653-.184-.93-.356-.266.442-.633.797-1.153.5.067-.421.235-.808.508-1.136.137.086.407.261.54.343.242-.308.523-.601.624-.996-.48-.062-.746.336-1.105.543-.3-.125-.352-.492-.524-.73 0-.098.004-.293.004-.39.434.027.868.058 1.309.081zm0 0M273.676 445.828c.383-.297.59.094.765.387.43-.027.86-.047 1.29-.043a10.7 10.7 0 01-.043 1.273c-.122.016-.36.04-.477.051-.164-.137-.332-.27-.492-.394-.137.207-.27.414-.406.625l-.614-.063c.024-.297.055-.59.09-.879l-.445.063c.008.464-.172.89-.395 1.289.176.402.235.836.196 1.273-.696.113-1.008-.629-1.606-.808-.148-.567.32-.872.66-1.223.301-.66.79-1.266 1.477-1.55zm0 0M276.395 446.266c.37-.243.812-.149 1.222-.102.016.32.028.645.028.969-.204.125-.403.254-.606.387-.125-.02-.379-.047-.508-.067-.12-.383-.32-.789-.136-1.187zm0 0M481.902 449.488l.371-.527h.66c.075.129.22.387.297.516-.242.25-.273.98-.738.789-.43.035-.402-.528-.59-.778zm0 0M470.637 449.797l.48.027c.07.73-.508 1.27-.789 1.899.078.004.223.02.297.027l-.035-.23c.41-.118.82-.336 1.265-.211.372.164.27.574.278.906-.524.36-.93.851-1.133 1.46-.188-.081-.566-.238-.754-.316-.09.254-.176.508-.262.766-.21-.04-.421-.07-.629-.105.004-.68.02-1.375.325-2 .027-.36.05-.711.082-1.067.27-.402.527-.816.875-1.156zm0 0"/><path d="M468.457 451.523c.356-.152.723-.257 1.121-.234-.004.203-.004.61-.004.813-.36.09-.719.187-1.07.277l-.047-.856zm0 0M481.563 452.844c.207-.028.417-.055.632-.078.07.28.145.562.207.851-.277 0-.55 0-.82-.004-.012-.258-.02-.515-.02-.77zm0 0M444.664 454.863c.121-.613.55-1.07 1.086-1.37.078.163.242.487.324.655.137-.023.41-.062.547-.082.11.215.215.43.328.649.344.156.692.195 1.016-.067-.313-.14-.617-.285-.918-.43l.39-.59c.57.095.63.552.551 1.048l.715.078c.082.527-.46.668-.8.91.882.063.41.98.386 1.504-.027-.137-.09-.414-.117-.55-.399.183-.68.51-.926.859-.36.03-.719.05-1.07.054.008-.37.12-.722.328-1.035a20.956 20.956 0 01-.942-1.504l-.898-.129zm0 0M347.29 459.168c.296.074.593.16.894.25-.012.379-.028.766-.047 1.148-.305-.097-.602-.21-.895-.336-.008-.359.012-.714.047-1.062zm0 0M525.66 462.258c.27-.016.543-.028.82-.031-.02.144-.066.445-.085.593h-.454c.262.25.551.52.832.77.04.18.082.367.133.55l-.89.188c-.196.285-.668.664-.957.293-.461-.418-.317-1.047-.274-1.594.512-.207.961-.593 1.582-.453zm0 0M519.25 465.2c.129-.075.39-.223.523-.302.301.403.262.848.04 1.286.171.351.328.707.468 1.074a15.02 15.02 0 01-.836.281c-.308-.242-.277-.637-.312-.976a22.286 22.286 0 01-1.098-.786c.086-.156.25-.468.332-.625.29.012.586.028.883.047zm0 0M494.496 465.91c.145-.098.293-.195.442-.285.242.156.492.313.742.469-.106.238-.207.48-.309.726-.527.547-.598 1.676-1.555 1.61-.086-.34-.18-.68-.27-1.012a12.8 12.8 0 01.235-.461c.2-.094.406-.184.614-.27.03-.261.066-.519.101-.777zm0 0"/></svg>