<svg xmlns="http://www.w3.org/2000/svg" viewBox="200 200 405 405" version="1.0"><path d="M501.945 422.492c-20.48-25.02-49.418-43.375-65.332-48.672.54-1.75.828-3.61.828-5.539 0-6.273-3.07-11.832-7.793-15.25 10.461-15 24.239-46.172 31.079-75.242 1.636-6.945 7.156-30.402 1.96-32.637-4.94-2.125-17.683 15.723-24.82 28.07-15.633 27.036-22.652 59.258-22.508 76.52-6.914 1.203-12.53 6.172-14.656 12.715-17.043-1.977-53.723 2.672-84.14 12.84-6.774 2.265-29.633 9.906-28.805 15.5.789 5.316 22.68 6.762 36.941 6.336 31.113-.93 62.113-11.832 76.79-21.008 2.663 5.797 8.183 10.008 14.761 10.828l-20.59 174.27c-.363 3.062 2.031 5.754 5.117 5.754h34.637c3.059 0 5.445-2.645 5.125-5.684l-18.223-174.555a18.742 18.742 0 006.282-2.5c9.27 14.84 34.863 40.442 60.992 58.012 5.926 3.984 25.93 17.434 29.86 13.363 3.734-3.863-8.473-22.086-17.505-33.12zm-71.105-50.73c-2.059.996-5.063-.965-6.711-4.371-1.649-3.407-1.317-6.977.742-7.973 2.055-.992 5.059.969 6.707 4.375 1.649 3.406 1.317 6.977-.738 7.969zm0 0"/></svg>