<svg xmlns="http://www.w3.org/2000/svg" viewBox="0 0 124 124"><path d="M106.3 36.6c-2.8 1.3-6 2.1-9 2.6 1.5-.2 3.6-2.9 4.5-3.9 1.3-1.6 2.4-3.5 3-5.5.1-.2.1-.4 0-.5-.2-.1-.3 0-.5 0-3.4 1.8-6.9 3.2-10.7 4.1-.3.1-.5 0-.7-.2-.3-.4-.6-.7-.9-1-1.6-1.3-3.3-2.4-5.2-3.2-2.5-1-5.3-1.5-8-1.3-2.6.2-5.2.9-7.5 2.1-2.3 1.2-4.4 2.9-6.1 5-1.7 2.1-3 4.6-3.6 7.3-.6 2.6-.6 5.1-.2 7.7.1.4 0 .5-.4.4-14.8-2.1-27-7.3-36.9-18.6-.4-.5-.7-.5-1 0-4.3 6.5-2.2 16.9 3.2 22.1.7.7 1.5 1.4 2.3 2-.3.1-3.9-.3-7.1-2-.4-.3-.6-.1-.7.4 0 .7 0 1.3.1 2.1.8 6.6 5.4 12.7 11.6 15 .7.3 1.6.6 2.4.7-1.4.3-2.9.5-7 .2-.5-.1-.7.2-.5.6C30.4 81.1 37 83.6 42 85c.7.1 1.3.1 2 .3 0 .1-.1.1-.1.1-1.6 2.5-7.3 4.4-10 5.3-4.8 1.7-10.1 2.4-15.2 1.9-.8-.1-1-.1-1.2 0-.2.1 0 .3.2.5 1 .7 2.1 1.3 3.2 1.9 3.2 1.7 6.6 3.1 10.1 4.1 18.2 5 38.8 1.3 52.5-12.3C94.2 76.2 98 61.5 98 46.7c0-.6.7-.9 1.1-1.2 2.8-2.1 5-4.6 7.1-7.4.5-.6.4-1.2.4-1.4v-.1c0-.2.1-.2-.3 0z"/><path fill-rule="evenodd" d="M43.9 101c7.5 0 .3 0 0 0 1 0-.1 0 0 0zm0 0c-.1 0-1.5 0 0 0 0 0-.3 0 0 0zm3 .1c0-.2 1.6 0 0 0 0-.1.2 0 0 0zm31.6-73.2c-.1.1-.2.1-.4 0h.4z" clip-rule="evenodd"/></svg>