<svg xmlns="http://www.w3.org/2000/svg" viewBox="0 0 124 124"><path fill-rule="evenodd" d="M64 15.8c-25.5 0-46.2 20.7-46.2 46.2 0 9 2.5 17.6 7.4 25.1l-7 15.5c-.6 1.4-.4 3.1.6 4.3.8.9 1.9 1.4 3.1 1.4.4 0 .7 0 1.1-.1l19.4-5.3c6.7 3.6 14.2 5.5 21.8 5.5 25.5 0 46.2-20.7 46.2-46.2-.2-25.7-20.9-46.4-46.4-46.4zm0 84.4c-6.8 0-13.4-1.8-19.2-5.2-.6-.4-1.3-.6-2-.6-.4 0-.7 0-1.1.1L29 98l4.4-9.7c.6-1.3.4-2.9-.4-4-4.7-6.5-7.2-14.2-7.2-22.3C25.8 41 43 23.8 64 23.8c21 0 38.2 17.1 38.2 38.2 0 21-17.1 38.2-38.2 38.2z" clip-rule="evenodd"/><path fill-rule="evenodd" d="M81.8 68.9c-1.9-1.2-4.5-2.5-6.7-1.5-1.7.7-2.9 3.5-4 4.9-.6.7-1.3.8-2.2.5-6.6-2.6-11.6-7-15.2-13-.6-.9-.5-1.7.2-2.6 1.1-1.3 2.5-2.8 2.8-4.5.3-1.7-.5-3.8-1.2-5.3-.9-2-1.9-4.8-3.9-5.9-1.8-1-4.2-.5-5.8.9-2.8 2.3-4.2 5.9-4.1 9.4 0 1 .1 2 .4 3 .6 2.3 1.6 4.5 2.9 6.6.9 1.6 1.9 3.1 3 4.5 3.5 4.8 7.9 8.9 12.9 12 2.5 1.5 5.3 2.9 8.1 3.8 3.2 1 6 2.1 9.4 1.5 3.6-.7 7.1-2.9 8.5-6.3.4-1 .6-2.2.4-3.2-.7-2.4-3.7-3.7-5.5-4.8z" clip-rule="evenodd"/></svg>