<svg xmlns="http://www.w3.org/2000/svg" width="100" viewBox="0 0 75 75" height="100" version="1.0"><defs><clipPath id="prefix_earth__a"><path d="M12.227 12.227h50.25v50.25h-50.25zm0 0"/></clipPath><clipPath id="prefix_earth__b"><path d="M12.227 41H29v20H12.227zm0 0"/></clipPath><clipPath id="prefix_earth__c"><path d="M30 13h32.477v31H30zm0 0"/></clipPath><clipPath id="prefix_earth__d"><path d="M22 12.227h12V21H22zm0 0"/></clipPath><clipPath id="prefix_earth__e"><path d="M12.227 20H19v16h-6.773zm0 0"/></clipPath></defs><g clip-path="url(#prefix_earth__a)"><path fill="#03a8e8" d="M62.48 37.352c0 .058 0 .12-.003.183a24.402 24.402 0 01-.293 3.645 25.018 25.018 0 01-7.77 14.617h-.004a25.038 25.038 0 01-17.058 6.683c-3.223 0-6.305-.605-9.13-1.714a20.04 20.04 0 01-1.038-.43 25.194 25.194 0 01-11.43-10.14 25.114 25.114 0 01-2.922-7.329 25.204 25.204 0 01-.61-5.515c0-.668.024-1.325.083-1.973a24.96 24.96 0 016.039-14.461 25.21 25.21 0 014.441-4.04l.004-.003a25.1 25.1 0 011.367-.906 24.977 24.977 0 0113.196-3.746c2.949 0 5.785.511 8.414 1.449a25.147 25.147 0 0110.812 7.504 25.017 25.017 0 015.902 16.176"/></g><path fill="#70c573" d="M40.707 57.016s-1.367-1.91-1.215-5.18c.149-3.273-.152-3.816-2.281-4.5-2.125-.68-4.254-1.91-4.559-3.543-.304-1.637 1.52-5.453 1.52-5.453s2.433-1.637 4.558-1.363c2.13.27 5.778.27 7.446 1.77 1.672 1.5 2.734 4.91 3.496 5.046.758.137-1.063 5.996-1.367 6.953-.305.953-1.215 4.77-1.977 6.27-.758 1.5-1.52 2.863-2.125 2.863-.61 0-3.344.273-3.496-2.863"/><g clip-path="url(#prefix_earth__b)"><path fill="#70c573" d="M28.898 56.703c-.132.645-.367 2.36-.675 4.063a20.04 20.04 0 01-1.04-.43 25.194 25.194 0 01-11.43-10.14 25.114 25.114 0 01-2.921-7.329c.926-.492 2.09-.933 3.23-.914 2.497.047 2.813.664 4.942 2.192 2.121 1.527 3.789 5.34 4.687 5.406.899.058 3.438 6.008 3.207 7.152"/></g><g clip-path="url(#prefix_earth__c)"><path fill="#70c573" d="M62.48 37.352c0 .058 0 .12-.003.183a24.402 24.402 0 01-.293 3.645c-1.125-1.657-2.344-4.145-2.965-4.578-.957-.676-4.457-1.079-3.184.671 1.274 1.754 1.813 1.754 1.813 1.754s-2.45 4.934-4.2 4.453c-1.753-.472-5.257-6.878-5.257-6.878-2.067-1.63 1.91-2.832 1.91-2.832s1.273-1.114-.637-2.387c-1.91-1.274-3.34 1.433-4.613 1.113-1.274-.32-1.594.953-1.992 2.23-.399 1.274-1.563 2.036-1.832 0-.274-2.038-3.184-.796-4.141-.796-.953 0-2.863 3.343-4.617 3.343-1.75 0-1.75-2.386-1.434-3.503.32-1.114 3.024-2.23 5.574-2.387 2.547-.16.16-2.39.953-2.82.797-.438 3.188.273 5.497 1.23 2.304.953 4.695-1.277 6.765-1.23 2.07.042-4.457-1.637-2.39-3.231 2.074-1.594-2.383-3.027-2.227-4.777.16-1.754-1.273-3.82-1.273-5.73 0-.61.675-1.005 1.832-1.153a25.147 25.147 0 0110.812 7.504 25.017 25.017 0 015.902 16.176"/></g><path fill="#70c573" d="M26.906 28.855s.926 1.09 1.637 0c.71-1.09.812-1.96.367-2.039-.45-.082-3.098 1.586-2.004 2.04M21.531 28.855s1.895-.484 2.317-1.433c.425-.95 2.847-.527 3.48-1.477.633-.949 2.27-1.289 2.664-2.172.395-.886.824-2.257-.812-2.363-1.64-.105-3.254-.844-3.239 0 .016.844-.406.633-1.878 1.16-1.477.528-3.06-.234-3.06 1.203 0 1.434.423 3.04.423 3.04s-.844 1.156.105 2.042"/><g clip-path="url(#prefix_earth__d)"><path fill="#70c573" d="M33.703 12.484s-2.824 3.774-3.348 3.875c-.527.102-2.144 1.207-2.44 2.317-.306 1.11-2.423 1.816-4.032 1.11-1.613-.704-1.985-1.485-1.098-2.907l.004-.004a25.1 25.1 0 011.367-.906 24.977 24.977 0 019.547-3.485"/></g><g clip-path="url(#prefix_earth__e)"><path fill="#70c573" d="M17.867 27.313c-.265.804-.203 1.746-1.07 2.027-.879.281-.543 1.328-1.149 2.672-.543 1.21-2.875 3.015-3.343 3.367a24.96 24.96 0 016.039-14.461c.355 1.078.215 2.855.531 3.434.473.875-.738 2.152-1.008 2.96"/></g></svg>