<svg xmlns="http://www.w3.org/2000/svg" viewBox="0 0 2800 1900"><g data-name="Layer 1"><path fill="#0295a5" d="M1344.7852,1032.8423c0,166.1723-70.8937,315.7502-184.0905,420.1436a572.17426,572.17426,0,0,1-184.32382,114.2866,561.79867,561.79867,0,0,1-133.1405,32.8767h-.078c-12.6986,1.6357-25.4747,2.7265-38.4073,3.3504h-.078c-10.439.6229-20.8786.9339-31.4736.9339a570.41767,570.41767,0,0,1-281.16069-73.7762c-171.39179-97.0698-287.7044-280.0694-290.353-490.4139-.0779-2.4151-.0779-4.9081-.0779-7.4011v-.7014c0-11.5298.3894-22.9042,1.0907-34.2781,11.7638-195.2308,121.6102-364.1296,281.0048-457.9279a571.80108,571.80108,0,0,1,617.4,24.6963l.0775.0775c136.4904,95.824,229.198,249.7646,242.0521,425.909q1.28595,17.06085,1.4022,34.3561C1344.7852,1027.5448,1344.7852,1030.1933,1344.7852,1032.8423Z"/><path fill="#95cb1f" d="M848.68378 495.9966c-15.4251-14.1013-10.1276-8.3359-39.654-13.6335-29.448-5.2979-35.6023 1.7137-51.4953 13.6335-12.6987-5.298-37.784-22.9042-37.784-22.9042-16.5938-4.9861-36.84948 37.3165-45.6524 27.8898-8.8033-9.4263-31.7075 21.7359-31.7075 14.6462 0-7.0112 5.2975-21.112-8.1805-9.3487-8.3354 7.2456-16.2039 8.0245-22.2028 6.2328a19.93031 19.93031 0 01-8.88128-5.0641c-5.29752-5.2975-37.00511 11.7638-42.848 2.9605s-12.93211 6.3883-48.69091 23.995c-13.8669 6.8557-22.5142 7.4006-27.8897 5.531-159.3946 93.7983-269.241 262.6971-281.0048 457.9279-.7013 11.3739-1.0907 22.7483-1.0907 34.2781v.7014c0 2.493 0 4.986.0779 7.4011a83.19291 83.19291 0 0112.30921-2.4151c14.02289-1.5582 23.13769 2.7265 31.16219 14.2564 4.5961 6.6222 8.88081 15.659 13.5554 27.4228 16.9833 42.77 33.4213 33.4213 47.5221 45.7304s9.4267 23.4496 7.0117 61.0781c-2.3376 37.4724 2.415 48.0674 46.9767 118.4937 44.5621 70.4268 105.6396 61.0001 131.4263 125.5064 25.7867 64.5829.3894 100.3412.3894 100.3412a566.55973 566.55973 0 00154.87589 59.7538c10.985-21.7359 6.70032-70.2708-10.9064-97.8487-17.6067-27.5788 0-67.4672 4.6741-82.7364 2.4151-7.9465 10.28362-14.2563 16.2045-21.8129 5.5314-6.8557 9.4267-14.7243 6.0763-25.7092v-.1555c-5.7649-19.0869 3.4279-34.1226 7.0117-57.3387a104.70368 104.70368 0 001.2463-14.6462c.5454-32.3305-21.8914-57.1043-44.3277-67.6218-11.0629-5.2196-17.6847-11.1404-24.3069-16.6714a109.99413 109.99413 0 00-10.43909-8.1805 51.41231 51.41231 0 00-6.1543-3.6613q-.468-.234-.9353-.4674a48.71039 48.71039 0 00-7.0112-3.1944c-20.4892-7.7905-22.6708-12.4647-34.9795-33.0318v-.078c-.8573-1.5577-1.8696-3.0379-2.8824-4.7521-14.8022-24.3844-37.8624-19.3983-64.4279-26.6435h-.078a1.83538 1.83538 0 01-.6234-.156c-4.1287-1.1682-6.8557-2.5705-8.4914-4.1287-8.9593-8.7254 13.86691-23.1381 4.5186-35.0574-10.9849-14.1009-44.01669 9.2708-69.1025-2.1816-21.112-9.6602-31.941-16.5159-47.2881-15.1916a61.20405 61.20405 0 00-9.0373 1.5582c-13.9449 3.5838-14.8797 11.6858-22.0473 17.2172-3.5054 2.6486-8.41349 4.5962-17.0613 5.2196-16.282 1.0908-19.5539-7.4011-18.853-21.6575.3894-8.8033 2.2596-19.7883 3.42781-32.0195v-.0775c3.03849-32.0194-23.761-5.6874-24.61781-31.1621-.9349-25.5532 10.9844-23.3716 10.9844-34.746 0-11.4523-25.94259-18.9309-33.4212 1.7137-7.4791 20.7231-13.6335 11.4524-13.6335-13.6334 0-25.0853 17.6067-63.8045 29.448-75.7238 11.9198-11.8418 22.4368 20.2552 28.2017 6.2323 5.68741-14.1008 21.96941-.9348 22.8262 21.502.9353 22.4368 0 7.4791 14.1014 18.9309 14.10081 11.4524 12.7761 19.3984 14.9577 11.9198 2.18111-7.4791 1.3242-14.9582-5.6874-25.5532-7.0892-10.517.3899-33.8887 21.5019-59.8313 21.1905-25.9426 40.9783-26.8774 63.4151-56.7928 22.4368-29.9159 43.0819-11.4524 49.2362-25.9426s34.3561-34.746 29.9159-16.7499c-1.8701 7.8685 8.9588 10.2836 22.2808 8.3359 17.1393-2.571 38.4073-12.5426 41.1338-27.6563 4.8301-26.8774-4.8301-12.3091-22.0469-10.1276-17.1392 2.1811 22.9042-36.0702 22.5143-25.0857-.4674 10.9849 13.6335 21.5799 32.56441 31.2401.078.078.234.078.312.1559a11.60006 11.60006 0 007.79048 1.1683c12.2312-2.8824 15.659-29.0585 15.659-29.0585s14.4903-17.6067 6.1544-30.7727c-8.41388-13.244-8.41388-30.3828-7.9465-53.287.4674-22.8262 29.059-27.7343 45.5749-31.2402 16.5939-3.5058 1.94772-19.3203.1555-44.8735-1.7137-25.4752 11.0629-20.2552 26.41-25.9427 15.42522-5.7649 10.1276.4675 24.2285 14.9582 14.1009 14.4903 11.8418 18.0736-1.7917 39.1862s-10.517 39.1086 0 52.7421c10.595 13.7114 18.931 10.1276 40.5109-11.8418s52.3522-31.2401 75.7238-36.0702c23.2941-4.8301 39.5761-4.4407 43.0819-25.9427 3.50582-21.5794-3.0384-22.0468 4.4407-38.3293C882.57248 500.8267 864.031 510.0974 848.68378 495.9966zM498.65509 649.3918c-18.7755 7.0897-38.0959 0-18.7755-22.2808 19.3988-22.2808 56.3259-28.1237 56.3259-28.1237 9.4263 9.9721 18.775 8.1799 9.4263 18.152C536.20549 627.111 517.43009 642.3806 498.65509 649.3918zm81.5667-60.1427c-3.4279 4.1292-6.8557 11.3743-9.5822 10.9069-.5454 0-1.0908-.3899-1.5583-1.1687-1.7916-2.9605-.4674-9.7382.7794-14.4123a6.77546 6.77546 0 017.0892-4.9081c.8568.078 1.5582.1555 2.25911.2334C586.37659 581.1471 583.49409 585.3538 580.22179 589.2491zm22.28129 36.2262c-9.34879 7.7905-10.829 5.1415-11.99779-5.3755a40.69084 40.69084 0 00-2.9604-11.0629 4.19124 4.19124 0 015.6094-5.453C602.81448 608.0241 609.67018 619.6324 602.50308 625.4753zm-2.8825-42.926c-10.59549 7.6346 7.5566-21.1125 7.5566-21.1125 4.6741-7.7905 11.76382 3.5059 11.76382 6.3883C618.941 570.7856 610.13758 574.9143 599.62058 582.5493zM1344.6292 1024.9738q-.11625-17.29485-1.4022-34.3561c-12.8541-176.1444-105.5617-330.085-242.0521-425.909.9353.8573 17.2173 16.3604 12.6986 16.9838-4.6741.5449-29.0585-21.6579-68.0892-16.9838-39.0306 4.5966-32.2529-2.7265-35.5248 21.9694-3.1939 24.6183-22.82622 16.9833-14.64633 36.0702 8.258 19.0089 24.92993 33.1098 32.87643 40.7448 7.946 7.6346 10.8284 8.8029 3.1939 17.2948-7.5566 8.4919-30.7727 3.2719-34.9015-.3115-4.12923-3.5058-22.82622 15.0357-26.41 30.2274-3.50592 15.2691-2.88252 21.7354 10.90688 29.9154 13.789 8.2579 24.92942 17.3727 2.33712 15.0356-7.63462-.8568-14.80222-1.4802-20.87862-1.0907-7.2451.3899-12.9325 2.2595-16.28238 7.1676-2.18112 3.0384-3.34992 7.4011-3.34992 13.244 0 22.9042 0 56.3254 15.5811 55.4686 15.5031-.9348 20.2552 4.0507 8.8033 15.2691-11.4518 11.1404-31.1621 22.5928-33.1877 40.4329-2.0257 17.9182.3119-8.4914-17.9182 16.438-18.1521 24.9298-43.7048 36.0702-47.21058 62.1688-3.50592 26.1761 4.12868 7.6345 0 33.1877a77.9304 77.9304 0 01-1.71422 8.102v.078c-2.2591 9.1928-5.3755 16.7494-6.6997 24.4624-1.7137 9.4262-.7009 19.0864 7.4791 32.175 6.7777 10.8284 12.4646 20.0992 18.3075 28.6691 0 .0775.078.0775.078.1555a200.35126 200.35126 0 0031.0062 35.9922 98.103 98.103 0 0110.829 11.6858c9.89412 12.3872 10.1276 17.8406 28.74712 12.0757 15.26958-4.7526 39.10857-6.2328 58.1175-7.0896 10.5171-.4674 19.6319-.6234 24.9298-1.0908 14.9577-1.1683 21.9689-4.6742 20.1773 4.3627-.6234 3.3503-1.4023 6.0768-1.3243 7.8685.2335 3.3498 2.9605 4.0512 13.3995.7013 16.4384-5.2975 31.7076-11.1404 16.9833 11.6858-14.6457 22.9042-4.9856 35.8363 3.5059 59.8313 8.5698 24.073 12.0752 25.8646-2.6486 52.2747-14.6462 26.4095-33.1097 63.0252-31.3181 91.2269 1.7137 28.1237 12.8546 12.3096-4.4406 40.5104-17.2948 28.1247-43.7048 48.3799-18.4636 48.3799 1.6362 0 2.4151.7008 2.4931 2.0256 1.1687 11.4518-50.71652 69.8809-62.24632 105.2493a572.17426 572.17426 0 00184.32382-114.2866c113.1968-104.3934 184.0905-253.9713 184.0905-420.1436C1344.7852 1030.1933 1344.7852 1027.5448 1344.6292 1024.9738zM1198.1672 752.383c1.7922-5.9209 5.6094-1.1688 7.9465 5.9988 2.3371 7.2452 6.4663 1.7917 18.2296 4.2847 11.6858 2.493 18.1521 2.9605 18.6195 11.7638.3894 8.8033-16.4379 5.2195-30.0714 1.0128-13.6334-4.2852-8.1019 10.9845-14.7242 2.3371C1191.6234 769.1328 1198.1672 752.383 1198.1672 752.383zM1066.3515 613.0101c18.7749-12.8541 29.9158 14.7243 32.7983 28.1238 2.9604 13.3999-2.3376 29.137-10.2056 25.3192-7.9465-3.8173-24.3844 4.6746-38.1738 2.3375C1036.981 666.4531 1066.3515 613.0101 1066.3515 613.0101zm11.6858 214.4737c-13.8674-10.7509-23.917-7.3231-35.2134-1.0907-2.9605 1.5582-5.9984 3.3498-9.1928 5.064a93.84744 93.84744 0 01-13.166 6.3103c-23.29363 8.8034-29.526 1.7917-21.57953-3.5058 5.375-3.5838 11.68583-4.5967 16.74943-11.1404 2.415-3.0385 4.5186-7.3232 6.0768-13.5555a14.82135 14.82135 0 00.3895-1.7921c4.0512-17.3728-4.6746-9.9717 8.1799-11.9973 13.1661-2.0256 11.6858-15.5031 11.6858-15.5031-1.1687-5.6094 20.5672-14.9582 26.7215 0 6.1549 14.9577 3.5059 36.6151 12.3092 28.4352s-5.6094-23.1377 8.258-19.0869c13.7114 4.1292 46.0418 19.7103 25.4752 20.2557-20.5672.6233 22.5922 41.3677-4.6746 20.8785C1082.7894 810.1886 1100.0846 844.5451 1078.0373 827.4838zm158.4597 40.5109c-17.2952 6.4658-21.424 3.5054-50.7945-1.7921-29.2925-5.2975-9.9721 11.1404-20.2556 10.595-10.2056-.6229-41.2898-12.3087-53.6765-25.2413-12.3092-12.932 8.258.312 15.5811-8.2579 7.3231-8.4914 15.2691-36.2257 15.2691-36.2257 6.3104-18.8535 18.4636 13.3995 48.3794 38.8747 29.9159 25.5527 14.9577-24.6184 34.0447-8.8034 19.0869 15.8926 23.4496.6234 21.7354 10.9065C1244.9884 858.2566 1253.7918 861.5284 1236.497 867.9947z"/><path d="M1160.6947,1452.9859a572.17426,572.17426,0,0,1-184.32382,114.2866,561.79867,561.79867,0,0,1-133.1405,32.8767h-.078c-12.6986,1.6357-25.4747,2.7265-38.4073,3.3504h-.078c-10.439.6229-20.8786.9339-31.4736.9339a570.41767,570.41767,0,0,1-281.16069-73.7762c-171.39179-97.0698-287.7044-280.0694-290.353-490.4139-.0779-2.4151-.0779-4.9081-.0779-7.4011v-.7014c0-11.5298.3894-22.9042,1.0907-34.2781,11.7638-195.2308,121.6102-364.1296,281.0048-457.9279a567.7059,567.7059,0,0,1,147.00739-60.7661c-5.9989,10.2055-12.3092,21.346-18.6975,33.3437-10.829,20.2552-21.96939,42.77-32.79828,67.3878-2.88251,6.6223-5.765,13.322-8.56941,20.2557-20.4112,49.4697-38.7188,106.1071-50.0152,167.73-16.6718,90.76-18.152,192.3484,11.3739,297.5207,13.322,47.2886,31.3181,89.9806,53.0536,128.1544a515.055,515.055,0,0,0,84.917,111.2486c103.614,102.9907,241.5846,151.9155,368.64832,157.2135C1081.0757,1463.7369,1122.3654,1460.6205,1160.6947,1452.9859Z" style="mix-blend-mode:soft-light" opacity=".65"/><rect width="175.287" height="162.14" x="2134.387" y="268.61" fill="#565b5b"/><rect width="80.694" height="74.642" x="2181.683" y="214.856" fill="#565b5b"/><rect width="55.508" height="32.866" x="2105.173" y="289.06" fill="#565b5b"/><path fill="#979b9b" d="M2460.1448,581.3026v757.1623a124.2488,124.2488,0,0,1-124.2596,124.2592H2125.6967a124.24861,124.24861,0,0,1-124.2587-124.2592V581.3026a229.30527,229.30527,0,0,1,455.2785-39.1082A223.261,223.261,0,0,1,2460.1448,581.3026Z"/><path d="M2460.1448,595.8709l-286.3022,5.064s0,504.4373,286.3022,665.9349v71.5951a124.2488,124.2488,0,0,1-124.2596,124.2592H2125.6967a124.24861,124.24861,0,0,1-124.2587-124.2592V581.3026a228.39392,228.39392,0,0,1,65.5967-160.4849c-2.1036,49.5477,8.6473,98.9399,54.2218,115.8453,76.1137,28.2797,251.0898,14.4123,335.46,5.5314a223.261,223.261,0,0,1,3.4283,39.1082Z" style="mix-blend-mode:soft-light" opacity=".65"/><circle cx="765.507" cy="1440.292" r="48.752" fill="#565b5b"/><path fill="#565b5b" d="M941.769,1262.6631c-15.737,105.0163-109.30152,168.6649-167.34062,180.5066a79.56135,79.56135,0,0,1-9.0363,1.4018,83.6,83.6,0,0,1-9.1153-1.4018c-58.0401-11.8417-151.6045-75.4903-167.34149-180.5066-17.5287-116.858,24.85229-119.8185,70.11479-245.4019,42.381-117.6369,98.8624-123.8697,105.9521-124.1032a.07639.07639,0,0,1,.078-.078h.6229c6.7777.3115,63.415,6.1544,105.9511,124.1812C916.99558,1142.8446,959.29768,1145.8051,941.769,1262.6631Z"/><path fill="#83c1c6" d="M924.53908,1253.4983c-14.2,94.7596-98.6263,152.1918-150.9969,162.877a71.82049,71.82049,0,0,1-8.1538,1.2649,75.46328,75.46328,0,0,1-8.225-1.2649c-52.37138-10.6852-136.7977-68.1174-150.9977-162.877-15.81679-105.4449,22.425-108.1162,63.2669-221.4342,38.2418-106.1477,89.2068-111.7717,95.604-111.9824a.069.069,0,0,1,.07042-.0704h.562c6.11578.2811,57.22148,5.5533,95.60318,112.0528C902.18528,1145.3821,940.35578,1148.0534,924.53908,1253.4983Z"/><ellipse cx="804.399" cy="1250.764" fill="#fff" opacity=".21" rx="148.446" ry="90.93" transform="rotate(-71.743 804.399 1250.763)"/><ellipse cx="795.635" cy="995.502" fill="#fff" opacity=".21" rx="38.063" ry="62.139" transform="rotate(-27.072 795.634 995.502)"/><ellipse cx="831.787" cy="1280.343" fill="#fff" opacity=".21" rx="62.139" ry="38.063" transform="rotate(-68.033 831.787 1280.343)"/><path fill="#565b5b" d="M1344.6292 1024.9738l-285.5229 130.4135-113.43022 51.8852-6.1548 2.8045-2.96-29.2145c.3115-.078 2.2591-1.0128 5.687-2.571 11.2184-5.1416 37.9398-17.6067 73.07522-34.0446 94.2653-44.0943 249.2192-116.7801 327.9035-153.6292Q1344.51295 1007.67855 1344.6292 1024.9738zM593.77768 1180.8625l-1.63619 16.8273-1.2467 12.3872-5.9205-2.7265-261.3728-119.4291-35.9143-16.4379-42.536-19.3988L213.989 1037.8283l-12.38711-5.6094v-.078c0-11.5298.3894-22.9042 1.0907-34.2781 25.00741 11.7638 55.5466 26.0982 88.42241 41.5237 20.56719 9.5822 41.99119 19.6319 63.57109 29.7595 38.3293 17.9961 77.048 36.1482 111.872 52.4306 3.11591 1.4023 6.0764 2.8825 9.1148 4.2847h.078c25.3972 11.9193 48.4569 22.6703 67.3103 31.3956v.078c21.5795 10.0501 37.628 17.5287 45.4185 21.1125C591.67409 1179.9277 593.54379 1180.7845 593.77768 1180.8625z"/><path d="M475.73629 959.8971s88.7389-84.3568 148.99371-9.8599C624.73 950.0372 571.04839 806.5212 475.73629 959.8971zM606.10578 726.5466S592.95929 805.4257 479.02289 840.483zM1061.8513 959.8971s-88.73892-84.3568-148.99372-9.8599C912.85758 950.0372 966.53908 806.5212 1061.8513 959.8971zM931.48178 726.5466s13.1465 78.8791 127.08292 113.9364z"/><path fill="#565b5b" d="M2568.7454,1490.6928c-70.6607,95.5891-251.9466,154.252-431.2849,139.5278-126.6742-10.4391-229.9768-46.5093-321.0478-78.3733-90.292-31.5511-168.2754-58.8179-249.6871-56.0135-80.5529,2.8045-147.5523,36.3042-225.1457,75.1009-80.8658,40.4334-172.4826,86.2409-301.4934,108.7556a351.46832,351.46832,0,0,1-59.52082,5.454c-53.598,0-99.5633-14.4913-137.2683-43.3159-84.2161-64.2719-95.59-175.8329-96.0579-180.5061l31.0062-2.9614c.156,1.0138,10.829,102.9916,84.1382,158.8501,43.8607,33.3428,101.8228,44.0158,172.32662,31.7851,124.4926-21.7359,214.0058-66.4535,292.924-105.9512,80.8658-40.4333,150.6697-75.3348,238.0013-78.3732,87.3316-2.8045,171.7037,26.566,261.061,57.8052,89.3572,31.1621,190.5562,66.5315,313.3351,76.6595,166.4838,13.7115,340.0562-40.8223,403.6282-126.9081,24.6174-33.3437,29.9145-68.0113,15.8921-102.9907C2512.576,1251.6787,2406,1259.5467,2379.0451,1263.5979a2.764,2.764,0,0,0-.7789.156c-15.1141,3.3499-60.9995,12.6986-107.4308,12.6986-20.6461,0-41.3682-1.7921-59.5208-6.8557-37.783-10.4395-70.3478-68.7906-115.4553-149.5784-40.9004-73.2312-91.8498-164.3801-156.7456-231.457-129.9456-134.3088-154.331-245.09-93.3305-423.4155,24.8514-72.7638,80.2429-126.1288,160.1739-154.2525,59.4409-20.9566,111.0931-20.6452,113.2738-20.6452l-.311,31.1622c-.5459,0-49.0808-.156-103.4586,19.1649-71.1276,25.3192-118.3378,70.5822-140.2296,134.6982-57.1833,167.0291-35.3694,265.8911,86.3188,391.6304,67.7002,69.9589,119.7405,163.1339,161.4986,237.9229,36.6931,65.7521,71.3606,127.765,96.5239,134.7762,47.912,13.166,120.6754.2339,146.6185-5.1416h.0779c1.4798-.3114,2.8036-.6234,3.8953-.8568a1.46425,1.46425,0,0,0,.6229-.156c1.4027-.156,3.1164-.3894,5.064-.6234,35.4474-4.4406,159.0822-9.1927,212.6821,124.8046C2606.6064,1402.7373,2599.7516,1448.7787,2568.7454,1490.6928Z"/><path fill="#565b5b" d="M2370.1647,1233.6046c-1.0917.2334-2.4155.5454-3.8953.8568h-.0779v-.1559C2366.3474,1234.3055,2367.7492,1233.994,2370.1647,1233.6046Z"/><rect width="534.625" height="707.72" x="1788.196" y="774.75" fill="#565b5b"/><rect width="487.128" height="644.846" x="1811.944" y="806.187" fill="#979b9b"/><rect width="430.548" height="132.561" x="1837.495" y="836.101" fill="#565b5b"/><rect width="407.781" height="125.551" x="1848.879" y="839.606" fill="#83c1c6"/><rect width="413.019" height="21.911" x="1849.546" y="1007.005" fill="#565b5b"/><rect width="215.822" height="17.529" x="1851.737" y="1056.305" fill="#565b5b"/><rect width="215.822" height="17.529" x="1851.737" y="1092.458" fill="#565b5b"/><rect width="215.822" height="17.529" x="1851.737" y="1128.611" fill="#565b5b"/><rect width="215.822" height="17.529" x="1851.737" y="1164.763" fill="#565b5b"/><rect width="215.822" height="17.529" x="1851.737" y="1272.127" fill="#565b5b"/><rect width="215.822" height="17.529" x="1851.737" y="1308.28" fill="#565b5b"/><rect width="215.822" height="17.529" x="1851.737" y="1344.432" fill="#565b5b"/><rect width="215.822" height="17.529" x="1851.737" y="1380.585" fill="#565b5b"/><rect width="53.681" height="340.714" x="2204.502" y="1060.687" fill="#565b5b"/><rect width="53.681" height="340.714" x="2137.674" y="1060.687" fill="#565b5b"/><polygon points="1788.196 774.751 2322.82 1482.471 1788.196 1482.471 1788.196 774.751" style="mix-blend-mode:soft-light" opacity=".65"/><path fill="#565b5b" d="M2375.8516,1232.8252c-1.9476.234-3.6613.4674-5.064.6234,3.1164-.6234,4.8301-1.0908,4.9861-1.0908Z"/></g></svg>