<svg xmlns="http://www.w3.org/2000/svg" enable-background="new 0 0 512 512" viewBox="0 0 512 512"><path fill="none" d="M370.3 320.9c-24.1-4.5-47.5 12.3-52.2 37.5-4.7 25.2 11.1 49.2 35.3 53.7s47.5-12.3 52.2-37.5S394.4 325.3 370.3 320.9zM424 95.2c-18.4-11-42.5-4.3-54 14.8-11.4 19.1-5.8 43.6 12.6 54.5 18.4 11 42.5 4.3 54-14.8S442.4 106.2 424 95.2z"/><circle cx="152" cy="189.7" r="57.7" fill="none"/><path d="M257.8 258.2l-2.8-3.1c-3.4-3.8-4.1-9.3-1.7-13.9 2.7-5.2 4.9-10.6 6.7-16.3 1.6-4.9 5.9-8.3 11.1-8.6l4.2-.2c6.5-.4 11.6-5.7 11.6-12.3v-28.2c0-6.5-5.1-11.9-11.6-12.3l-4.2-.2c-5.1-.3-9.5-3.7-11.1-8.6-1.8-5.6-4.1-11.1-6.7-16.3-2.3-4.6-1.7-10.1 1.7-13.9l2.8-3.1c4.4-4.8 4.2-12.3-.5-16.9l-20-20c-4.6-4.6-12-4.8-16.9-.5l-3.1 2.8c-3.8 3.4-9.3 4.1-13.9 1.7-5.2-2.6-10.7-4.9-16.3-6.7-4.9-1.6-8.3-5.9-8.6-11l-.2-4.2c-.4-6.5-5.7-11.6-12.3-11.6h-28.2c-6.5 0-11.9 5.1-12.3 11.6l-.2 4.2c-.3 5.1-3.7 9.5-8.6 11-5.6 1.8-11.1 4.1-16.3 6.7-4.6 2.3-10.1 1.7-13.9-1.7l-3.1-2.8c-4.9-4.4-12.3-4.2-16.9.5l-20 20c-4.6 4.6-4.8 12-.5 16.9l2.8 3.1c3.4 3.8 4.1 9.3 1.8 13.9-2.7 5.2-4.9 10.7-6.8 16.3-1.6 4.9-5.9 8.3-11.1 8.6l-4.2.2c-6.5.3-11.6 5.7-11.6 12.3v28.2c0 6.5 5.1 11.9 11.6 12.3l4.2.2c5.1.3 9.5 3.7 11.1 8.6 1.8 5.6 4.1 11.1 6.7 16.3 2.3 4.6 1.7 10.1-1.7 13.9l-2.8 3.1c-4.4 4.9-4.2 12.3.5 16.9l20 20c4.6 4.6 12 4.8 16.9.4l3.1-2.8c3.8-3.4 9.3-4.1 13.9-1.7 5.2 2.7 10.7 4.9 16.3 6.7 4.9 1.6 8.3 5.9 8.6 11.1l.2 4.2c.4 6.5 5.7 11.6 12.3 11.6h28.2c6.5 0 11.9-5.1 12.3-11.6l.2-4.2c.3-5.1 3.7-9.5 8.6-11.1 5.6-1.8 11.1-4.1 16.3-6.7 4.6-2.3 10.1-1.7 13.9 1.7l3.1 2.8c4.9 4.4 12.3 4.2 16.9-.4l20-20C261.9 270.5 262.1 263 257.8 258.2zM152 247.4c-31.9 0-57.7-25.8-57.7-57.7 0-31.9 25.8-57.7 57.7-57.7 31.9 0 57.7 25.8 57.7 57.7C209.7 221.6 183.9 247.4 152 247.4zM459 362.9l-3.1-.8c-3.8-.9-6.6-4.3-7.1-8.3-.6-4.7-1.5-9.3-2.7-13.8-1.1-3.9.2-8.2 3.4-10.7l2.6-2.1c4-3.2 4.9-9.1 2.1-13.4l-12.2-18.6c-2.8-4.3-8.4-5.5-12.7-2.7l-2.8 1.8c-3.4 2.2-7.7 1.9-10.8-.6-3.6-2.8-7.4-5.4-11.4-7.6-3.5-1.9-5.4-5.9-4.9-9.9l.4-3.3c.7-5.2-2.6-10-7.6-10.9l-21.4-4c-4.9-.9-9.8 2.4-11 7.5l-.8 3.3c-1 4-4.2 7-8.1 7.5-4.5.7-9 1.7-13.3 3-3.8 1.2-7.9-.1-10.3-3.3l-1.9-2.6c-3-4.1-8.7-5-12.9-2l-18.1 13c-4.2 3-5.4 8.8-2.8 13.3l1.7 2.8c2 3.5 1.7 7.9-.7 11.2-2.8 3.7-5.3 7.7-7.5 11.9-1.9 3.6-5.7 5.7-9.6 5.2l-3.2-.4c-5-.6-9.6 2.9-10.6 8l-4.1 22.3c-.9 5.2 2.1 10.1 7 11.3l3.1.8c3.8.9 6.6 4.3 7.1 8.3.6 4.7 1.5 9.3 2.7 13.8 1.1 3.9-.2 8.2-3.4 10.7l-2.6 2.1c-4 3.2-5 9.1-2.1 13.4l12.2 18.6c2.8 4.3 8.4 5.5 12.7 2.7l2.8-1.8c3.4-2.2 7.7-1.9 10.8.6 3.6 2.8 7.4 5.4 11.4 7.6 3.5 1.9 5.4 5.8 4.9 9.9l-.4 3.3c-.7 5.2 2.6 10 7.6 10.9l21.4 4c4.9.9 9.8-2.4 11-7.5l.8-3.3c.9-4 4.2-7 8.1-7.5 4.5-.7 9-1.7 13.3-3 3.8-1.2 7.9.1 10.3 3.3l1.9 2.6c3 4.1 8.7 5 12.9 2l18.1-13c4.2-3 5.4-8.8 2.8-13.3l-1.7-2.8c-2-3.5-1.7-7.9.7-11.2 2.8-3.7 5.3-7.7 7.5-11.9 1.9-3.6 5.7-5.7 9.6-5.2l3.2.4c5 .6 9.7-2.9 10.6-8.1l4.1-22.3C467 369 463.9 364.1 459 362.9zM405.5 374.5c-4.7 25.2-28 41.9-52.2 37.5s-39.9-28.5-35.3-53.7c4.7-25.2 28-42 52.2-37.5C394.4 325.3 410.2 349.3 405.5 374.5zM494.7 114.9L490.3 96c-1-4.4-5.2-7-9.6-6.1l-2.8.6c-3.4.7-6.8-.8-8.6-3.7-2.1-3.4-4.4-6.6-7-9.7-2.2-2.6-2.7-6.4-1-9.6l1.4-2.6c2.1-4 .9-8.9-2.9-11.2l-16.3-9.7c-3.8-2.3-8.7-1-11.2 2.8l-1.6 2.4c-2 3-5.5 4.4-8.9 3.7-3.9-.8-7.9-1.3-11.8-1.6-3.5-.2-6.4-2.5-7.4-5.8l-.8-2.8c-1.2-4.3-5.6-6.7-9.9-5.5l-18.7 5.1c-4.3 1.2-7.1 5.6-6.3 10l.5 2.8c.6 3.5-1 7-4 8.9-3.4 2.2-6.7 4.7-9.7 7.5-2.7 2.4-6.4 2.9-9.5 1.3l-2.5-1.3c-3.9-2-8.8-.6-11.1 3.4l-10.1 17c-2.3 3.9-1.3 8.9 2.3 11.4l2.3 1.6c2.8 1.9 4.1 5.5 3.3 9-1 4-1.6 8.1-2 12.1-.3 3.5-2.6 6.6-6 7.7l-2.7.9c-4.3 1.4-6.8 5.9-5.8 10.3l4.3 18.9c1 4.4 5.2 7 9.6 6.1l2.8-.6c3.4-.8 6.8.8 8.6 3.7 2.1 3.4 4.4 6.6 7 9.7 2.2 2.6 2.7 6.4 1 9.6l-1.4 2.6c-2.1 4-.9 8.9 2.9 11.2l16.3 9.7c3.8 2.3 8.7 1 11.2-2.8l1.6-2.4c2-3 5.5-4.4 8.9-3.7 3.9.8 7.9 1.4 11.8 1.6 3.5.2 6.4 2.5 7.4 5.8l.8 2.7c1.2 4.3 5.6 6.7 9.9 5.6l18.7-5.1c4.3-1.2 7.1-5.6 6.3-10l-.5-2.8c-.6-3.5 1-7 4-9 3.4-2.2 6.6-4.7 9.7-7.5 2.7-2.4 6.4-2.9 9.4-1.3l2.5 1.3c3.9 2 8.8.6 11.1-3.4l10.1-17c2.3-3.9 1.3-8.9-2.3-11.4l-2.3-1.6c-2.8-1.9-4.1-5.5-3.3-9 1-4 1.6-8.1 2-12.1.3-3.5 2.6-6.6 6-7.8l2.7-.9C493.1 123.8 495.7 119.3 494.7 114.9zM436.6 149.8c-11.4 19.1-35.6 25.8-54 14.8-18.4-11-24-35.4-12.6-54.5 11.4-19.1 35.6-25.8 54-14.8C442.4 106.2 448 130.6 436.6 149.8z"/></svg>