<svg xmlns="http://www.w3.org/2000/svg" viewBox="0 0 1440 300">
        <path
          fill="var(--c-bg1)"
          fill-opacity="1"
          d="M0,128L40,128C80,128,160,128,240,112C320,96,400,64,480,48C560,32,640,32,720,64C800,96,880,160,960,165.3C1040,171,1120,117,1200,101.3C1280,85,1360,107,1400,117.3L1440,128L1440,320L1400,320C1360,320,1280,320,1200,320C1120,320,1040,320,960,320C880,320,800,320,720,320C640,320,560,320,480,320C400,320,320,320,240,320C160,320,80,320,40,320L0,320Z"
        ></path>
      </svg>